M48
;Layer_Color=9474304
;FILE_FORMAT=4:4
METRIC,LZ
;TYPE=PLATED
T1F00S00C0.7110
T2F00S00C0.7112
T3F00S00C0.7620
T4F00S00C0.9000
T5F00S00C1.5000
;TYPE=NON_PLATED
T6F00S00C0.9000
T7F00S00C3.0000
%
T01
X01059183Y00634398
T02
X009485Y002655
X00969547Y00307015
X00978798Y00319266
X0097775Y00339
X00989798Y00329516
X0100325Y0031325
X009885Y002925
X00952297Y00365518
X00942Y0037775
X0092375Y00378
X00923295Y00393019
X00879Y00356
X0108975Y0038525
X0112075Y0038825
X0112025Y0028175
X01064052Y00241512
X01201Y0027525
X011965Y0038825
X01217Y0038575
X0135325Y003885
X0137175Y0038175
X0135475Y002695
X0132575Y00279
X0148925Y002825
X015655Y002514
X0170275Y0035175
X01687Y0063325
X0152725Y0058525
X015375Y0055375
Y00527
X0141575Y0057526
X01414Y0059175
X01371Y005915
X013735Y0055725
X0134575Y004995
X0133725Y004373
X0132825Y00401356
X01315814Y0040277
X01290743Y00413233
X0127075Y0042375
X0127775Y0044925
X0125525Y0047475
X0120925Y0047625
X012175Y0044125
X0122756Y004295
X0124125Y0043075
X0119675Y0040225
X0135725Y00408
X01425Y004
X01472Y0063675
X013225Y00629
X01323315Y0060728
X01322565Y00595029
X0131125Y0060175
X013185Y0070925
X013069Y007244
X013324Y007249
X01353Y007287
X01342Y0074275
X012835Y007525
X0130875Y007895
X0121575
X0119225
X0118075Y0077525
X011865Y0072875
X0114675Y007325
X01100104Y0068925
X01001Y0069875
X01015Y006295
X01011299Y00570278
X01Y00564
X00999049Y00577528
X01011549Y00542527
X010332Y0055375
X0105234Y0053436
X0103025Y0051725
X0102455Y00484274
X01035551Y00474023
X010475Y0046468
X01047607Y004435
X0106375Y004285
X01073302Y0041852
X010796Y004392
X01095053Y00449772
X01118305Y00444522
X0110825Y004025
X0108375Y004005
X01084648Y00495
X0106525Y0048
X01011549Y00494524
X01065802Y00565778
X0105234Y0059676
X0094725Y006565
X0089325Y0064725
X008925Y005275
X011795Y004591
X010315Y00811
X010135Y0081075
Y0082925
Y008455
X0103175Y0084525
Y0082925
X01032Y008655
X01013
X00937535Y0079425
X008535Y0104
X01091Y009875
X0123Y008295
X01332Y00801
X014685Y0089975
X0140725Y009875
X0131375Y011275
X0178375Y0102225
T03
X008737Y002001
X008991
X008864Y002255
X00861
X01139Y00239
X011644
X011898
X011771Y002136
X011517
X012025
X012279
X012533
X012787
X01266Y00239
X012406
X012152
X016726Y002247
X01698
X017234
X017488
X017742
X017869Y001993
X017615
X017361
X017107
X016853
X01776Y003995
Y004249
X018014Y004122
Y004376
X017869Y00548
X017615
X017361
X017107
X016853
X016726Y005734
X01698
X017234
X017488
X017742
X015002Y004488
X014748
X014494
X01424
X013986
X013732
X013859Y004234
X014113
X014367
X014621
X014875
X015129
X015129Y00772
X014875
X014621
X014367
X014113
X013859
X01064Y007115
X010525Y0066175
X01041Y0064475
X010175Y0066175
X0099625Y0078175
X008446Y0069085
Y006651
Y0063935
Y0061335
Y0058785
Y005621
Y0053635
Y0051085
X008651Y004627
X008905
X009159
X009413
X009667
X009794Y004373
X00954
X009286
X009032
X008778
X0090225Y0083875
X0101625Y0090375
X0105125
X011517Y009133
X011771
X011898Y009387
X011644
X01139
X009794Y011373
X00954
X009286
X009032
X008778
X008651Y011627
X008905
X009159
X009413
X009667
X0119175Y01163
X0121715
X0120445Y011376
X0122985
X01386Y011383
X014114
X014368
X014622
X014876
X01513
X015003Y011637
X014749
X014495
X014241
X013987
X013733
X01266Y009387
X012406
X012152
X012025Y009133
X012279
X012533
X012787
X013732Y007974
X013986
X01424
X014494
X014748
X015002
X01685Y008994
X017104
X017358
X017612
X017866
X017739Y009248
X017485
X017231
X016977
X016723
X01769Y011205
Y011459
X017944Y011332
Y011586
T04
X014387Y002198
X014641
X014895
X015149
X015403
X015657
T05
X00847Y002075
X012927Y002316
X018009Y002172
X01794Y003855
X018009Y005659
X013592Y004308
X013592Y007794
X008511Y004448
X008511Y011448
X0117775Y01145
X013593Y011457
X012927Y009313
X018006Y009173
X01787Y011065
T06
X01021751Y0022825
X0106575
T07
X008875Y00293
X017645
X008875Y01069
X017645
M30
