%FSLAX25Y25*%
%MOIN*%
G70*
G01*
G75*
G04 Layer_Color=32896*
%ADD10R,0.05079X0.04882*%
%ADD11O,0.01575X0.05906*%
%ADD12R,0.01575X0.05906*%
%ADD13R,0.00748X0.03961*%
%ADD14R,0.03961X0.00748*%
%ADD15R,0.08661X0.12992*%
%ADD16R,0.08661X0.03937*%
%ADD17O,0.03150X0.10039*%
%ADD18R,0.12992X0.08268*%
%ADD19R,0.04724X0.08268*%
%ADD20R,0.14567X0.09055*%
%ADD21R,0.03150X0.03543*%
%ADD22R,0.02756X0.03543*%
%ADD23R,0.03543X0.03150*%
%ADD24R,0.03543X0.02756*%
%ADD25R,0.02953X0.03543*%
%ADD26R,0.39370X0.19685*%
%ADD27R,0.03543X0.02953*%
%ADD28O,0.09055X0.01378*%
%ADD29R,0.07874X0.09843*%
%ADD30R,0.01969X0.09055*%
%ADD31C,0.31496*%
%ADD32C,0.01000*%
%ADD33C,0.01969*%
%ADD34C,0.03937*%
%ADD35C,0.06000*%
%ADD36C,0.11811*%
%ADD37C,0.02362*%
%ADD38R,0.05906X0.05906*%
%ADD39C,0.05906*%
%ADD40C,0.03937*%
%ADD41C,0.05000*%
%ADD42R,0.09055X0.09055*%
%ADD43C,0.00787*%
%ADD44C,0.01181*%
%ADD45C,0.00984*%
%ADD46C,0.02362*%
%ADD47C,0.00394*%
%ADD48R,0.05879X0.05682*%
%ADD49O,0.02375X0.06706*%
%ADD50R,0.02375X0.06706*%
%ADD51R,0.01548X0.04761*%
%ADD52R,0.04761X0.01548*%
%ADD53R,0.09461X0.13792*%
%ADD54R,0.09461X0.04737*%
%ADD55O,0.03950X0.10839*%
%ADD56R,0.13792X0.09068*%
%ADD57R,0.05524X0.09068*%
%ADD58R,0.15367X0.09855*%
%ADD59R,0.03950X0.04343*%
%ADD60R,0.03556X0.04343*%
%ADD61R,0.04343X0.03950*%
%ADD62R,0.04343X0.03556*%
%ADD63R,0.03753X0.04343*%
%ADD64R,0.40170X0.20485*%
%ADD65R,0.04343X0.03753*%
%ADD66O,0.09855X0.02178*%
%ADD67R,0.08674X0.10642*%
%ADD68R,0.02769X0.09855*%
%ADD69C,0.06800*%
%ADD70C,0.12611*%
%ADD71C,0.03162*%
%ADD72R,0.06706X0.06706*%
%ADD73C,0.06706*%
%ADD74C,0.04737*%
%ADD75C,0.05800*%
%ADD76R,0.09855X0.09855*%
D32*
X406731Y382668D02*
Y376670D01*
X403732D01*
X402732Y377670D01*
Y381668D01*
X403732Y382668D01*
X406731D01*
X400733Y376670D02*
X398733D01*
X399733D01*
Y382668D01*
X400733Y381668D01*
X502582Y270909D02*
X503581Y271909D01*
X505581D01*
X506580Y270909D01*
Y266911D01*
X505581Y265911D01*
X503581D01*
X502582Y266911D01*
X500582Y270909D02*
X499583Y271909D01*
X497583D01*
X496584Y270909D01*
Y269910D01*
X497583Y268910D01*
X498583D01*
X497583D01*
X496584Y267910D01*
Y266911D01*
X497583Y265911D01*
X499583D01*
X500582Y266911D01*
X494584Y271909D02*
X490586D01*
Y270909D01*
X494584Y266911D01*
Y265911D01*
X456997Y191098D02*
X457996Y192098D01*
X459996D01*
X460995Y191098D01*
Y187100D01*
X459996Y186100D01*
X457996D01*
X456997Y187100D01*
X454997Y191098D02*
X453998Y192098D01*
X451998D01*
X450998Y191098D01*
Y190099D01*
X451998Y189099D01*
X452998D01*
X451998D01*
X450998Y188099D01*
Y187100D01*
X451998Y186100D01*
X453998D01*
X454997Y187100D01*
X445001Y192098D02*
X447000Y191098D01*
X448999Y189099D01*
Y187100D01*
X447999Y186100D01*
X446000D01*
X445001Y187100D01*
Y188099D01*
X446000Y189099D01*
X448999D01*
D43*
X395945Y373307D02*
X405591D01*
X395945Y361102D02*
X405591D01*
X376260D02*
X386496D01*
X376260Y373307D02*
X386496D01*
X407362Y362874D02*
Y371535D01*
X405591Y361102D02*
X407362Y362874D01*
X405591Y373307D02*
X407362Y371535D01*
X376260Y361102D02*
Y373307D01*
M02*
