%FSLAX25Y25*%
%MOIN*%
G70*
G01*
G75*
G04 Layer_Color=65535*
%ADD10R,0.05079X0.04882*%
%ADD11O,0.01575X0.05906*%
%ADD12R,0.01575X0.05906*%
%ADD13R,0.00748X0.03961*%
%ADD14R,0.03961X0.00748*%
%ADD15R,0.08661X0.12992*%
%ADD16R,0.08661X0.03937*%
%ADD17O,0.03150X0.10039*%
%ADD18R,0.12992X0.08268*%
%ADD19R,0.04724X0.08268*%
%ADD20R,0.14567X0.09055*%
%ADD21R,0.03150X0.03543*%
%ADD22R,0.02756X0.03543*%
%ADD23R,0.03543X0.03150*%
%ADD24R,0.03543X0.02756*%
%ADD25R,0.02953X0.03543*%
%ADD26R,0.39370X0.19685*%
%ADD27R,0.03543X0.02953*%
%ADD28O,0.09055X0.01378*%
%ADD29R,0.07874X0.09843*%
%ADD30R,0.01969X0.09055*%
%ADD31C,0.31496*%
%ADD32C,0.01000*%
%ADD33C,0.01969*%
%ADD34C,0.03937*%
%ADD35C,0.06000*%
%ADD36C,0.11811*%
%ADD37C,0.02362*%
%ADD38R,0.05906X0.05906*%
%ADD39C,0.05906*%
%ADD40C,0.03937*%
%ADD41C,0.05000*%
%ADD42R,0.09055X0.09055*%
%ADD43C,0.00787*%
%ADD44C,0.01181*%
%ADD45C,0.00984*%
%ADD46C,0.02362*%
%ADD47C,0.00394*%
G36*
X424764Y277268D02*
Y279236D01*
X426732D01*
X424764Y277268D01*
D02*
G37*
D32*
X643110Y448130D02*
Y454128D01*
X645110Y452129D01*
X647109Y454128D01*
Y448130D01*
X650108D02*
X652107D01*
X653107Y449130D01*
Y451129D01*
X652107Y452129D01*
X650108D01*
X649108Y451129D01*
Y449130D01*
X650108Y448130D01*
X656106Y453128D02*
Y452129D01*
X655106D01*
X657106D01*
X656106D01*
Y449130D01*
X657106Y448130D01*
X661104D02*
X663104D01*
X664103Y449130D01*
Y451129D01*
X663104Y452129D01*
X661104D01*
X660105Y451129D01*
Y449130D01*
X661104Y448130D01*
X666103Y452129D02*
Y448130D01*
Y450129D01*
X667102Y451129D01*
X668102Y452129D01*
X669102D01*
X676100Y448130D02*
X672101D01*
X676100Y452129D01*
Y453128D01*
X675100Y454128D01*
X673101D01*
X672101Y453128D01*
X678099Y447130D02*
X682098D01*
X688096Y454128D02*
X684097D01*
Y448130D01*
X688096D01*
X684097Y451129D02*
X686096D01*
X442520Y432382D02*
Y438380D01*
X444519Y436381D01*
X446518Y438380D01*
Y432382D01*
X449517D02*
X451517D01*
X452517Y433382D01*
Y435381D01*
X451517Y436381D01*
X449517D01*
X448518Y435381D01*
Y433382D01*
X449517Y432382D01*
X455515Y437380D02*
Y436381D01*
X454516D01*
X456515D01*
X455515D01*
Y433382D01*
X456515Y432382D01*
X460514D02*
X462513D01*
X463513Y433382D01*
Y435381D01*
X462513Y436381D01*
X460514D01*
X459514Y435381D01*
Y433382D01*
X460514Y432382D01*
X465512Y436381D02*
Y432382D01*
Y434381D01*
X466512Y435381D01*
X467512Y436381D01*
X468511D01*
X471510Y432382D02*
X473510D01*
X472510D01*
Y438380D01*
X471510Y437380D01*
X476509Y431382D02*
X480507D01*
X486506Y438380D02*
X482507D01*
Y432382D01*
X486506D01*
X482507Y435381D02*
X484506D01*
X446054Y376947D02*
Y382945D01*
X448054Y380946D01*
X450053Y382945D01*
Y376947D01*
X453052D02*
X455051D01*
X456051Y377947D01*
Y379946D01*
X455051Y380946D01*
X453052D01*
X452052Y379946D01*
Y377947D01*
X453052Y376947D01*
X459050Y381946D02*
Y380946D01*
X458050D01*
X460050D01*
X459050D01*
Y377947D01*
X460050Y376947D01*
X464048D02*
X466048D01*
X467048Y377947D01*
Y379946D01*
X466048Y380946D01*
X464048D01*
X463049Y379946D01*
Y377947D01*
X464048Y376947D01*
X469047Y380946D02*
Y376947D01*
Y378947D01*
X470047Y379946D01*
X471046Y380946D01*
X472046D01*
X475045Y376947D02*
X477044D01*
X476045D01*
Y382945D01*
X475045Y381946D01*
X480043Y375948D02*
X484042D01*
X486041Y382945D02*
Y376947D01*
X489040D01*
X490040Y377947D01*
Y381946D01*
X489040Y382945D01*
X486041D01*
X329528Y434646D02*
Y440644D01*
X331527Y438644D01*
X333526Y440644D01*
Y434646D01*
X336525D02*
X338525D01*
X339524Y435645D01*
Y437645D01*
X338525Y438644D01*
X336525D01*
X335526Y437645D01*
Y435645D01*
X336525Y434646D01*
X342523Y439644D02*
Y438644D01*
X341524D01*
X343523D01*
X342523D01*
Y435645D01*
X343523Y434646D01*
X347522D02*
X349521D01*
X350521Y435645D01*
Y437645D01*
X349521Y438644D01*
X347522D01*
X346522Y437645D01*
Y435645D01*
X347522Y434646D01*
X352520Y438644D02*
Y434646D01*
Y436645D01*
X353520Y437645D01*
X354520Y438644D01*
X355519D01*
X358518Y434646D02*
X360518D01*
X359518D01*
Y440644D01*
X358518Y439644D01*
X363517Y433646D02*
X367515D01*
X369515Y434646D02*
Y440644D01*
X372514D01*
X373513Y439644D01*
Y437645D01*
X372514Y436645D01*
X369515D01*
X532382Y433465D02*
Y439463D01*
X534381Y437463D01*
X536381Y439463D01*
Y433465D01*
X539380D02*
X541379D01*
X542379Y434464D01*
Y436464D01*
X541379Y437463D01*
X539380D01*
X538380Y436464D01*
Y434464D01*
X539380Y433465D01*
X545378Y438463D02*
Y437463D01*
X544378D01*
X546377D01*
X545378D01*
Y434464D01*
X546377Y433465D01*
X550376D02*
X552375D01*
X553375Y434464D01*
Y436464D01*
X552375Y437463D01*
X550376D01*
X549376Y436464D01*
Y434464D01*
X550376Y433465D01*
X555374Y437463D02*
Y433465D01*
Y435464D01*
X556374Y436464D01*
X557374Y437463D01*
X558373D01*
X565371Y433465D02*
X561373D01*
X565371Y437463D01*
Y438463D01*
X564371Y439463D01*
X562372D01*
X561373Y438463D01*
X567371Y432465D02*
X571369D01*
X573369Y439463D02*
Y433465D01*
X576368D01*
X577367Y434464D01*
Y438463D01*
X576368Y439463D01*
X573369D01*
X532638Y184071D02*
Y190069D01*
X534637Y188070D01*
X536636Y190069D01*
Y184071D01*
X539636D02*
X541635D01*
X542635Y185071D01*
Y187070D01*
X541635Y188070D01*
X539636D01*
X538636Y187070D01*
Y185071D01*
X539636Y184071D01*
X545634Y189069D02*
Y188070D01*
X544634D01*
X546633D01*
X545634D01*
Y185071D01*
X546633Y184071D01*
X550632D02*
X552631D01*
X553631Y185071D01*
Y187070D01*
X552631Y188070D01*
X550632D01*
X549632Y187070D01*
Y185071D01*
X550632Y184071D01*
X555630Y188070D02*
Y184071D01*
Y186070D01*
X556630Y187070D01*
X557630Y188070D01*
X558629D01*
X564628Y184071D02*
Y190069D01*
X561628Y187070D01*
X565627D01*
X567626Y183071D02*
X571625D01*
X573625Y190069D02*
Y184071D01*
X576624D01*
X577623Y185071D01*
Y189069D01*
X576624Y190069D01*
X573625D01*
X331000Y96000D02*
Y100935D01*
X332645Y99290D01*
X334290Y100935D01*
Y96000D01*
X336758D02*
X338403D01*
X339226Y96823D01*
Y98468D01*
X338403Y99290D01*
X336758D01*
X335935Y98468D01*
Y96823D01*
X336758Y96000D01*
X341693Y100113D02*
Y99290D01*
X340871D01*
X342516D01*
X341693D01*
Y96823D01*
X342516Y96000D01*
X345806D02*
X347451D01*
X348274Y96823D01*
Y98468D01*
X347451Y99290D01*
X345806D01*
X344984Y98468D01*
Y96823D01*
X345806Y96000D01*
X349919Y99290D02*
Y96000D01*
Y97645D01*
X350742Y98468D01*
X351564Y99290D01*
X352387D01*
X358145Y100935D02*
X354854D01*
Y98468D01*
X356500Y99290D01*
X357322D01*
X358145Y98468D01*
Y96823D01*
X357322Y96000D01*
X355677D01*
X354854Y96823D01*
X359790Y95177D02*
X363080D01*
X368016Y100935D02*
X364725D01*
Y96000D01*
X368016D01*
X364725Y98468D02*
X366370D01*
X668898Y138386D02*
Y144384D01*
X670897Y142385D01*
X672896Y144384D01*
Y138386D01*
X675895D02*
X677895D01*
X678894Y139385D01*
Y141385D01*
X677895Y142385D01*
X675895D01*
X674896Y141385D01*
Y139385D01*
X675895Y138386D01*
X681893Y143384D02*
Y142385D01*
X680894D01*
X682893D01*
X681893D01*
Y139385D01*
X682893Y138386D01*
X686892D02*
X688891D01*
X689891Y139385D01*
Y141385D01*
X688891Y142385D01*
X686892D01*
X685892Y141385D01*
Y139385D01*
X686892Y138386D01*
X691890Y142385D02*
Y138386D01*
Y140385D01*
X692890Y141385D01*
X693890Y142385D01*
X694889D01*
X700887Y138386D02*
Y144384D01*
X697888Y141385D01*
X701887D01*
X703886Y137386D02*
X707885D01*
X713883Y144384D02*
X709884D01*
Y138386D01*
X713883D01*
X709884Y141385D02*
X711884D01*
X332600Y189600D02*
Y195598D01*
X334599Y193599D01*
X336599Y195598D01*
Y189600D01*
X339598D02*
X341597D01*
X342597Y190600D01*
Y192599D01*
X341597Y193599D01*
X339598D01*
X338598Y192599D01*
Y190600D01*
X339598Y189600D01*
X345596Y194598D02*
Y193599D01*
X344596D01*
X346596D01*
X345596D01*
Y190600D01*
X346596Y189600D01*
X350594D02*
X352593D01*
X353593Y190600D01*
Y192599D01*
X352593Y193599D01*
X350594D01*
X349594Y192599D01*
Y190600D01*
X350594Y189600D01*
X355593Y193599D02*
Y189600D01*
Y191599D01*
X356592Y192599D01*
X357592Y193599D01*
X358592D01*
X365589Y195598D02*
X361591D01*
Y192599D01*
X363590Y193599D01*
X364590D01*
X365589Y192599D01*
Y190600D01*
X364590Y189600D01*
X362590D01*
X361591Y190600D01*
X367589Y188600D02*
X371587D01*
X373587Y189600D02*
Y195598D01*
X376586D01*
X377585Y194598D01*
Y192599D01*
X376586Y191599D01*
X373587D01*
X656132Y94906D02*
Y100904D01*
X658132Y98904D01*
X660131Y100904D01*
Y94906D01*
X663130D02*
X665129D01*
X666129Y95905D01*
Y97904D01*
X665129Y98904D01*
X663130D01*
X662130Y97904D01*
Y95905D01*
X663130Y94906D01*
X669128Y99904D02*
Y98904D01*
X668128D01*
X670128D01*
X669128D01*
Y95905D01*
X670128Y94906D01*
X674126D02*
X676126D01*
X677126Y95905D01*
Y97904D01*
X676126Y98904D01*
X674126D01*
X673127Y97904D01*
Y95905D01*
X674126Y94906D01*
X679125Y98904D02*
Y94906D01*
Y96905D01*
X680125Y97904D01*
X681124Y98904D01*
X682124D01*
X688122Y94906D02*
Y100904D01*
X685123Y97904D01*
X689122D01*
X656100Y233100D02*
Y239098D01*
X658099Y237099D01*
X660099Y239098D01*
Y233100D01*
X663098D02*
X665097D01*
X666097Y234100D01*
Y236099D01*
X665097Y237099D01*
X663098D01*
X662098Y236099D01*
Y234100D01*
X663098Y233100D01*
X669096Y238098D02*
Y237099D01*
X668096D01*
X670095D01*
X669096D01*
Y234100D01*
X670095Y233100D01*
X674094D02*
X676093D01*
X677093Y234100D01*
Y236099D01*
X676093Y237099D01*
X674094D01*
X673095Y236099D01*
Y234100D01*
X674094Y233100D01*
X679093Y237099D02*
Y233100D01*
Y235099D01*
X680092Y236099D01*
X681092Y237099D01*
X682092D01*
X685091Y238098D02*
X686090Y239098D01*
X688090D01*
X689089Y238098D01*
Y237099D01*
X688090Y236099D01*
X687090D01*
X688090D01*
X689089Y235099D01*
Y234100D01*
X688090Y233100D01*
X686090D01*
X685091Y234100D01*
X691089Y232100D02*
X695087D01*
X697087Y233100D02*
Y239098D01*
X700086D01*
X701086Y238098D01*
Y236099D01*
X700086Y235099D01*
X697087D01*
X656000Y371500D02*
Y377498D01*
X657999Y375499D01*
X659999Y377498D01*
Y371500D01*
X662998D02*
X664997D01*
X665997Y372500D01*
Y374499D01*
X664997Y375499D01*
X662998D01*
X661998Y374499D01*
Y372500D01*
X662998Y371500D01*
X668996Y376498D02*
Y375499D01*
X667996D01*
X669995D01*
X668996D01*
Y372500D01*
X669995Y371500D01*
X673994D02*
X675993D01*
X676993Y372500D01*
Y374499D01*
X675993Y375499D01*
X673994D01*
X672995Y374499D01*
Y372500D01*
X673994Y371500D01*
X678993Y375499D02*
Y371500D01*
Y373499D01*
X679992Y374499D01*
X680992Y375499D01*
X681992D01*
X688989Y371500D02*
X684991D01*
X688989Y375499D01*
Y376498D01*
X687990Y377498D01*
X685990D01*
X684991Y376498D01*
X690989Y370500D02*
X694987D01*
X696987Y371500D02*
Y377498D01*
X699986D01*
X700985Y376498D01*
Y374499D01*
X699986Y373499D01*
X696987D01*
X532697Y321372D02*
Y327371D01*
X534696Y325371D01*
X536696Y327371D01*
Y321372D01*
X539695D02*
X541694D01*
X542694Y322372D01*
Y324372D01*
X541694Y325371D01*
X539695D01*
X538695Y324372D01*
Y322372D01*
X539695Y321372D01*
X545693Y326371D02*
Y325371D01*
X544693D01*
X546692D01*
X545693D01*
Y322372D01*
X546692Y321372D01*
X550691D02*
X552690D01*
X553690Y322372D01*
Y324372D01*
X552690Y325371D01*
X550691D01*
X549691Y324372D01*
Y322372D01*
X550691Y321372D01*
X555689Y325371D02*
Y321372D01*
Y323372D01*
X556689Y324372D01*
X557689Y325371D01*
X558688D01*
X561688Y326371D02*
X562687Y327371D01*
X564686D01*
X565686Y326371D01*
Y325371D01*
X564686Y324372D01*
X563687D01*
X564686D01*
X565686Y323372D01*
Y322372D01*
X564686Y321372D01*
X562687D01*
X561688Y322372D01*
X567686Y320373D02*
X571684D01*
X573684Y327371D02*
Y321372D01*
X576683D01*
X577682Y322372D01*
Y326371D01*
X576683Y327371D01*
X573684D01*
X446038Y101455D02*
Y107453D01*
X448037Y105454D01*
X450036Y107453D01*
Y101455D01*
X453035D02*
X455035D01*
X456035Y102455D01*
Y104454D01*
X455035Y105454D01*
X453035D01*
X452036Y104454D01*
Y102455D01*
X453035Y101455D01*
X459034Y106454D02*
Y105454D01*
X458034D01*
X460033D01*
X459034D01*
Y102455D01*
X460033Y101455D01*
X464032D02*
X466031D01*
X467031Y102455D01*
Y104454D01*
X466031Y105454D01*
X464032D01*
X463032Y104454D01*
Y102455D01*
X464032Y101455D01*
X469030Y105454D02*
Y101455D01*
Y103454D01*
X470030Y104454D01*
X471030Y105454D01*
X472029D01*
X479027Y107453D02*
X475028D01*
Y104454D01*
X477028Y105454D01*
X478027D01*
X479027Y104454D01*
Y102455D01*
X478027Y101455D01*
X476028D01*
X475028Y102455D01*
X481027Y100455D02*
X485025D01*
X487024Y107453D02*
Y101455D01*
X490024D01*
X491023Y102455D01*
Y106454D01*
X490024Y107453D01*
X487024D01*
D43*
X534055Y130266D02*
G03*
X534055Y128986I0J-640D01*
G01*
X508464Y137559D02*
X534055D01*
X508464Y121693D02*
Y137559D01*
Y121693D02*
X534055D01*
Y128986D01*
Y130266D02*
Y137559D01*
X504075Y279630D02*
X511772D01*
Y271933D02*
Y279630D01*
X424370Y271933D02*
Y279630D01*
X432067D01*
X424370Y192228D02*
Y199925D01*
Y192228D02*
X432067D01*
X511772D02*
Y199925D01*
X504075Y192228D02*
X511772D01*
X371850Y196850D02*
X383661D01*
X371850Y223228D02*
X383661D01*
Y196850D02*
Y223228D01*
X371850Y196850D02*
Y223228D01*
X373130Y325886D02*
Y330413D01*
X392815Y325886D02*
Y330413D01*
X373130Y325886D02*
X392815D01*
X373130Y330413D02*
X392815D01*
X416732Y289567D02*
Y302165D01*
X390354Y289567D02*
Y302165D01*
X416732D01*
X390354Y289567D02*
X416732D01*
X389272Y267520D02*
Y300590D01*
X356594Y267520D02*
Y300590D01*
X381791D02*
X389272D01*
X381791Y267520D02*
X389272D01*
X356594Y300590D02*
X364075D01*
X356594Y267520D02*
X364075D01*
X364961Y340354D02*
X366535D01*
X364961Y343110D02*
X366535D01*
X370768Y349114D02*
X372343D01*
X370768Y346358D02*
X372343D01*
X369783Y332382D02*
Y333957D01*
X367027Y332382D02*
Y333957D01*
X565059Y101476D02*
Y103051D01*
X567815Y101476D02*
Y103051D01*
X575098Y102067D02*
Y103642D01*
X577854Y102067D02*
Y103642D01*
X585039Y102087D02*
Y103661D01*
X587795Y102087D02*
Y103661D01*
X595177Y102067D02*
Y103642D01*
X597933Y102067D02*
Y103642D01*
X425394Y181299D02*
X426969D01*
X425394Y184055D02*
X426969D01*
X500197Y148917D02*
Y150492D01*
X502953Y148917D02*
Y150492D01*
X512297Y148228D02*
X513872D01*
X512297Y150984D02*
X513872D01*
X336221Y303839D02*
X337795D01*
X336221Y306594D02*
X337795D01*
X335728Y316535D02*
Y318110D01*
X332972Y316535D02*
Y318110D01*
X335630Y328051D02*
Y329626D01*
X332874Y328051D02*
Y329626D01*
X332776Y341634D02*
Y343209D01*
X335531Y341634D02*
Y343209D01*
X344685Y319980D02*
X345472D01*
X344685Y322736D02*
X345472D01*
X344587Y310630D02*
X345374D01*
X344587Y313386D02*
X345374D01*
X344587Y332087D02*
X345374D01*
X344587Y329331D02*
X345374D01*
X344980Y341043D02*
X345768D01*
X344980Y338287D02*
X345768D01*
X375886Y87795D02*
Y88583D01*
X373130Y87795D02*
Y88583D01*
X367913Y79724D02*
X369488D01*
X367913Y76968D02*
X369488D01*
X378937Y79724D02*
X380512D01*
X378937Y76968D02*
X380512D01*
X384055Y87598D02*
Y88386D01*
X381299Y87598D02*
Y88386D01*
X410335Y115354D02*
Y134646D01*
X417421Y115354D02*
Y134646D01*
X410335D02*
X417421D01*
X410335Y115354D02*
X417421D01*
X419784Y75492D02*
X422933D01*
X398918D02*
X402067D01*
X430414Y108169D02*
Y113287D01*
Y86516D02*
Y95177D01*
X391437Y86516D02*
Y95177D01*
Y108169D02*
Y113287D01*
X430414D01*
X561417Y81535D02*
Y91535D01*
X621417Y81535D02*
Y91535D01*
X561417Y81535D02*
X621417D01*
X561417Y91535D02*
X621417D01*
D44*
X421811Y270378D02*
G03*
X421811Y270378I-591J0D01*
G01*
D45*
X366437Y223228D02*
G03*
X366437Y223228I-492J0D01*
G01*
X394705Y337008D02*
G03*
X394705Y337008I-492J0D01*
G01*
X390453Y283858D02*
G03*
X390453Y283858I-492J0D01*
G01*
X382874Y303150D02*
G03*
X382874Y303150I-492J0D01*
G01*
X404724Y136535D02*
G03*
X404724Y136535I-492J0D01*
G01*
X417717Y72933D02*
G03*
X417717Y72933I-492J0D01*
G01*
D46*
X390059Y326476D02*
G03*
X390059Y326476I-1181J0D01*
G01*
X415453Y130709D02*
G03*
X415453Y130709I-1181J0D01*
G01*
D47*
X392913Y116382D02*
Y114742D01*
X393241Y114414D01*
X393897D01*
X394225Y114742D01*
Y116382D01*
X396193Y116054D02*
X395865Y116382D01*
X395209D01*
X394881Y116054D01*
Y115726D01*
X395209Y115398D01*
X395865D01*
X396193Y115070D01*
Y114742D01*
X395865Y114414D01*
X395209D01*
X394881Y114742D01*
X396849Y116382D02*
Y114414D01*
X397833D01*
X398161Y114742D01*
Y115070D01*
X397833Y115398D01*
X396849D01*
X397833D01*
X398161Y115726D01*
Y116054D01*
X397833Y116382D01*
X396849D01*
X412291Y137893D02*
X410979D01*
Y136909D01*
X411635D01*
X410979D01*
Y135925D01*
X412947Y137893D02*
X414259D01*
X413603D01*
Y135925D01*
X414915Y137893D02*
Y135925D01*
X415899D01*
X416227Y136253D01*
Y137565D01*
X415899Y137893D01*
X414915D01*
X416883D02*
X417538D01*
X417210D01*
Y135925D01*
X416883D01*
X417538D01*
X339075Y315748D02*
Y317716D01*
X340059D01*
X340387Y317388D01*
Y316732D01*
X340059Y316404D01*
X339075D01*
X339731D02*
X340387Y315748D01*
X342027D02*
X341371D01*
X341043Y316076D01*
Y316732D01*
X341371Y317060D01*
X342027D01*
X342355Y316732D01*
Y316404D01*
X341043D01*
X344322Y317060D02*
X343338D01*
X343010Y316732D01*
Y316076D01*
X343338Y315748D01*
X344322D01*
X345962D02*
X345306D01*
X344978Y316076D01*
Y316732D01*
X345306Y317060D01*
X345962D01*
X346290Y316732D01*
Y316404D01*
X344978D01*
X346946Y315748D02*
X347602D01*
X347274D01*
Y317060D01*
X346946D01*
X348586D02*
X349242Y315748D01*
X349898Y317060D01*
X351538Y315748D02*
X350882D01*
X350554Y316076D01*
Y316732D01*
X350882Y317060D01*
X351538D01*
X351866Y316732D01*
Y316404D01*
X350554D01*
X338090Y326771D02*
X339403D01*
X338747D01*
Y324803D01*
X340058Y326115D02*
Y324803D01*
Y325459D01*
X340386Y325787D01*
X340714Y326115D01*
X341042D01*
X342354D02*
X343010D01*
X343338Y325787D01*
Y324803D01*
X342354D01*
X342026Y325131D01*
X342354Y325459D01*
X343338D01*
X343994Y324803D02*
Y326115D01*
X344978D01*
X345306Y325787D01*
Y324803D01*
X345962D02*
X346946D01*
X347274Y325131D01*
X346946Y325459D01*
X346290D01*
X345962Y325787D01*
X346290Y326115D01*
X347274D01*
X347930Y324803D02*
Y326115D01*
X348258D01*
X348586Y325787D01*
Y324803D01*
Y325787D01*
X348914Y326115D01*
X349242Y325787D01*
Y324803D01*
X349898D02*
X350554D01*
X350226D01*
Y326115D01*
X349898D01*
X351866Y326443D02*
Y326115D01*
X351538D01*
X352194D01*
X351866D01*
Y325131D01*
X352194Y324803D01*
X562532Y80216D02*
X561876D01*
X562204D01*
Y78576D01*
X561876Y78248D01*
X561548D01*
X561221Y78576D01*
X563188Y80216D02*
X564500D01*
X563844D01*
Y78248D01*
X565156D02*
Y79560D01*
X565812Y80216D01*
X566468Y79560D01*
Y78248D01*
Y79232D01*
X565156D01*
X568436Y79888D02*
X568108Y80216D01*
X567452D01*
X567124Y79888D01*
Y78576D01*
X567452Y78248D01*
X568108D01*
X568436Y78576D01*
Y79232D01*
X567780D01*
X340977Y345373D02*
X339665D01*
Y344389D01*
X340321Y344717D01*
X340649D01*
X340977Y344389D01*
Y343734D01*
X340649Y343406D01*
X339993D01*
X339665Y343734D01*
X341633Y345373D02*
Y344061D01*
X342289Y343406D01*
X342945Y344061D01*
Y345373D01*
X339075Y335990D02*
X339403Y336318D01*
X340059D01*
X340387Y335990D01*
Y335662D01*
X340059Y335334D01*
X339731D01*
X340059D01*
X340387Y335006D01*
Y334678D01*
X340059Y334350D01*
X339403D01*
X339075Y334678D01*
X341043Y334350D02*
Y334678D01*
X341371D01*
Y334350D01*
X341043D01*
X342683Y335990D02*
X343010Y336318D01*
X343667D01*
X343994Y335990D01*
Y335662D01*
X343667Y335334D01*
X343338D01*
X343667D01*
X343994Y335006D01*
Y334678D01*
X343667Y334350D01*
X343010D01*
X342683Y334678D01*
X344650Y336318D02*
Y335006D01*
X345306Y334350D01*
X345962Y335006D01*
Y336318D01*
X362795Y76022D02*
X360827D01*
Y77006D01*
X361155Y77334D01*
X361811D01*
X362139Y77006D01*
Y76022D01*
Y76678D02*
X362795Y77334D01*
Y77990D02*
Y78646D01*
Y78318D01*
X360827D01*
X361155Y77990D01*
X360827Y80942D02*
X361155Y80286D01*
X361811Y79630D01*
X362467D01*
X362795Y79958D01*
Y80614D01*
X362467Y80942D01*
X362139D01*
X361811Y80614D01*
Y79630D01*
X387598Y76022D02*
X385631D01*
Y77006D01*
X385959Y77334D01*
X386614D01*
X386943Y77006D01*
Y76022D01*
Y76678D02*
X387598Y77334D01*
Y77990D02*
Y78646D01*
Y78318D01*
X385631D01*
X385959Y77990D01*
X385631Y79630D02*
Y80942D01*
X385959D01*
X387270Y79630D01*
X387598D01*
X371161Y82776D02*
X369194D01*
Y83759D01*
X369521Y84088D01*
X370178D01*
X370505Y83759D01*
Y82776D01*
Y83432D02*
X371161Y84088D01*
X369194Y84743D02*
X371161Y86055D01*
X369194D02*
X371161Y84743D01*
X377658Y82546D02*
Y83858D01*
Y83202D01*
X379626D01*
X377658Y84514D02*
X379626Y85826D01*
X377658D02*
X379626Y84514D01*
M02*
