%FSLAX25Y25*%
%MOIN*%
G70*
G01*
G75*
G04 Layer_Color=8388736*
%ADD10R,0.05079X0.04882*%
%ADD11O,0.01575X0.05906*%
%ADD12R,0.01575X0.05906*%
%ADD13R,0.00748X0.03961*%
%ADD14R,0.03961X0.00748*%
%ADD15R,0.08661X0.12992*%
%ADD16R,0.08661X0.03937*%
%ADD17O,0.03150X0.10039*%
%ADD18R,0.12992X0.08268*%
%ADD19R,0.04724X0.08268*%
%ADD20R,0.14567X0.09055*%
%ADD21R,0.03150X0.03543*%
%ADD22R,0.02756X0.03543*%
%ADD23R,0.03543X0.03150*%
%ADD24R,0.03543X0.02756*%
%ADD25R,0.02953X0.03543*%
%ADD26R,0.39370X0.19685*%
%ADD27R,0.03543X0.02953*%
%ADD28O,0.09055X0.01378*%
%ADD29R,0.07874X0.09843*%
%ADD30R,0.01969X0.09055*%
%ADD31C,0.31496*%
%ADD32C,0.01000*%
%ADD33C,0.01969*%
%ADD34C,0.03937*%
%ADD35C,0.06000*%
%ADD36C,0.11811*%
%ADD37C,0.02362*%
%ADD38R,0.05906X0.05906*%
%ADD39C,0.05906*%
%ADD40C,0.03937*%
%ADD41C,0.05000*%
%ADD42R,0.09055X0.09055*%
%ADD43C,0.00787*%
%ADD44C,0.01181*%
%ADD45C,0.00984*%
%ADD46C,0.02362*%
%ADD47C,0.00394*%
%ADD48R,0.05879X0.05682*%
%ADD49O,0.02375X0.06706*%
%ADD50R,0.02375X0.06706*%
%ADD51R,0.01548X0.04761*%
%ADD52R,0.04761X0.01548*%
%ADD53R,0.09461X0.13792*%
%ADD54R,0.09461X0.04737*%
%ADD55O,0.03950X0.10839*%
%ADD56R,0.13792X0.09068*%
%ADD57R,0.05524X0.09068*%
%ADD58R,0.15367X0.09855*%
%ADD59R,0.03950X0.04343*%
%ADD60R,0.03556X0.04343*%
%ADD61R,0.04343X0.03950*%
%ADD62R,0.04343X0.03556*%
%ADD63R,0.03753X0.04343*%
%ADD64R,0.40170X0.20485*%
%ADD65R,0.04343X0.03753*%
%ADD66O,0.09855X0.02178*%
%ADD67R,0.08674X0.10642*%
%ADD68R,0.02769X0.09855*%
%ADD69C,0.06800*%
%ADD70C,0.12611*%
%ADD71C,0.03162*%
%ADD72R,0.06706X0.06706*%
%ADD73C,0.06706*%
%ADD74C,0.04737*%
%ADD75C,0.05800*%
D48*
X485433Y162008D02*
D03*
X485276Y151969D02*
D03*
X494134D02*
D03*
X494291Y162008D02*
D03*
D49*
X509744Y117224D02*
D03*
X512303D02*
D03*
X514862D02*
D03*
X517421D02*
D03*
X519980D02*
D03*
X522539D02*
D03*
X525098D02*
D03*
X527658D02*
D03*
X530217D02*
D03*
X532776D02*
D03*
X509744Y142027D02*
D03*
X512303D02*
D03*
X514862D02*
D03*
X517421D02*
D03*
X519980D02*
D03*
X522539D02*
D03*
X525098D02*
D03*
X527658D02*
D03*
X530217D02*
D03*
D50*
X532776D02*
D03*
D51*
X433622Y278437D02*
D03*
X435591D02*
D03*
X437559D02*
D03*
X439528D02*
D03*
X441496D02*
D03*
X443465D02*
D03*
X445433D02*
D03*
X447402D02*
D03*
X449370D02*
D03*
X451339D02*
D03*
X453307D02*
D03*
X455276D02*
D03*
X457244D02*
D03*
X459213D02*
D03*
X461181D02*
D03*
X463150D02*
D03*
X465118D02*
D03*
X467087D02*
D03*
X469055D02*
D03*
X471024D02*
D03*
X472992D02*
D03*
X474961D02*
D03*
X476929D02*
D03*
X478898D02*
D03*
X480866D02*
D03*
X482835D02*
D03*
X484803D02*
D03*
X486772D02*
D03*
X488740D02*
D03*
X490709D02*
D03*
X492677D02*
D03*
X494646D02*
D03*
X496614D02*
D03*
X498583D02*
D03*
X500551D02*
D03*
X502520D02*
D03*
Y193421D02*
D03*
X500551D02*
D03*
X498583D02*
D03*
X496614D02*
D03*
X494646D02*
D03*
X492677D02*
D03*
X490709D02*
D03*
X488740D02*
D03*
X486772D02*
D03*
X484803D02*
D03*
X482835D02*
D03*
X480866D02*
D03*
X478898D02*
D03*
X476929D02*
D03*
X474961D02*
D03*
X472992D02*
D03*
X471024D02*
D03*
X469055D02*
D03*
X467087D02*
D03*
X465118D02*
D03*
X463150D02*
D03*
X461181D02*
D03*
X459213D02*
D03*
X457244D02*
D03*
X455276D02*
D03*
X453307D02*
D03*
X451339D02*
D03*
X449370D02*
D03*
X447402D02*
D03*
X445433D02*
D03*
X443465D02*
D03*
X441496D02*
D03*
X439528D02*
D03*
X437559D02*
D03*
X435591D02*
D03*
X433622D02*
D03*
D52*
X510579Y270378D02*
D03*
Y268409D02*
D03*
Y266441D02*
D03*
Y264472D02*
D03*
Y262504D02*
D03*
Y260535D02*
D03*
Y258567D02*
D03*
Y256598D02*
D03*
Y254630D02*
D03*
Y252661D02*
D03*
Y250693D02*
D03*
Y248724D02*
D03*
Y246756D02*
D03*
Y244787D02*
D03*
Y242819D02*
D03*
Y240850D02*
D03*
Y238882D02*
D03*
Y236913D02*
D03*
Y234945D02*
D03*
Y232976D02*
D03*
Y231008D02*
D03*
Y229039D02*
D03*
Y227071D02*
D03*
Y225102D02*
D03*
Y223134D02*
D03*
Y221165D02*
D03*
Y219197D02*
D03*
Y217228D02*
D03*
Y215260D02*
D03*
Y213291D02*
D03*
Y211323D02*
D03*
Y209354D02*
D03*
Y207386D02*
D03*
Y205417D02*
D03*
Y203449D02*
D03*
Y201480D02*
D03*
X425563D02*
D03*
Y203449D02*
D03*
Y205417D02*
D03*
Y207386D02*
D03*
Y209354D02*
D03*
Y211323D02*
D03*
Y213291D02*
D03*
Y215260D02*
D03*
Y217228D02*
D03*
Y219197D02*
D03*
Y221165D02*
D03*
Y223134D02*
D03*
Y225102D02*
D03*
Y227071D02*
D03*
Y229039D02*
D03*
Y231008D02*
D03*
Y232976D02*
D03*
Y234945D02*
D03*
Y236913D02*
D03*
Y238882D02*
D03*
Y240850D02*
D03*
Y242819D02*
D03*
Y244787D02*
D03*
Y246756D02*
D03*
Y248724D02*
D03*
Y250693D02*
D03*
Y252661D02*
D03*
Y254630D02*
D03*
Y256598D02*
D03*
Y258567D02*
D03*
Y260535D02*
D03*
Y262504D02*
D03*
Y264472D02*
D03*
Y266441D02*
D03*
Y268409D02*
D03*
Y270378D02*
D03*
D53*
X389567Y210039D02*
D03*
D54*
X365945Y200984D02*
D03*
Y210039D02*
D03*
Y219094D02*
D03*
D55*
X375472Y319291D02*
D03*
X380472D02*
D03*
X385472D02*
D03*
X390472D02*
D03*
X375472Y337008D02*
D03*
X380472D02*
D03*
X385472D02*
D03*
X390472D02*
D03*
D56*
X403543Y307874D02*
D03*
D57*
X412598Y283858D02*
D03*
X403543D02*
D03*
X394488D02*
D03*
D58*
X372933Y298031D02*
D03*
Y270079D02*
D03*
D59*
X380020Y347638D02*
D03*
X385532D02*
D03*
X417955Y273927D02*
D03*
X412444D02*
D03*
X480906Y187401D02*
D03*
X486417D02*
D03*
X485728Y301181D02*
D03*
X480217D02*
D03*
X483957Y181102D02*
D03*
X489468D02*
D03*
X531890Y225886D02*
D03*
X526378D02*
D03*
X404035Y234154D02*
D03*
X409547D02*
D03*
X412894Y195472D02*
D03*
X418405D02*
D03*
X412894Y200295D02*
D03*
X418405D02*
D03*
X412894Y205217D02*
D03*
X418405D02*
D03*
X487599Y176476D02*
D03*
X493110D02*
D03*
X524901Y196457D02*
D03*
X519390D02*
D03*
X428937Y289665D02*
D03*
X423425D02*
D03*
X428937Y284646D02*
D03*
X423425D02*
D03*
X525000Y191240D02*
D03*
X519488D02*
D03*
X428937Y294587D02*
D03*
X423425D02*
D03*
X531201Y235925D02*
D03*
X525689D02*
D03*
D60*
X368701Y341732D02*
D03*
X362795D02*
D03*
X368602Y347736D02*
D03*
X374508D02*
D03*
X429134Y182677D02*
D03*
X423228D02*
D03*
X516038Y149606D02*
D03*
X510132D02*
D03*
X339961Y305217D02*
D03*
X334055D02*
D03*
X365748Y78347D02*
D03*
X371654D02*
D03*
X376772D02*
D03*
X382677D02*
D03*
D61*
X368406Y324902D02*
D03*
Y319390D02*
D03*
X464173Y166339D02*
D03*
Y171851D02*
D03*
X471457Y300787D02*
D03*
Y295276D02*
D03*
X469095Y166339D02*
D03*
Y171850D02*
D03*
X442225Y180217D02*
D03*
Y185728D02*
D03*
X466437Y298622D02*
D03*
Y293110D02*
D03*
X408662Y214370D02*
D03*
Y208858D02*
D03*
X404035Y214370D02*
D03*
Y208858D02*
D03*
D62*
X368406Y336122D02*
D03*
Y330217D02*
D03*
X566437Y99311D02*
D03*
Y105217D02*
D03*
X576476Y99902D02*
D03*
Y105807D02*
D03*
X586417Y99921D02*
D03*
Y105827D02*
D03*
X596555Y99902D02*
D03*
Y105807D02*
D03*
X501575Y146752D02*
D03*
Y152657D02*
D03*
X334350Y320276D02*
D03*
Y314370D02*
D03*
X334252Y331791D02*
D03*
Y325886D02*
D03*
X334154Y339469D02*
D03*
Y345374D02*
D03*
D63*
X348524Y321358D02*
D03*
X341634D02*
D03*
X348425Y312008D02*
D03*
X341535D02*
D03*
Y330709D02*
D03*
X348425D02*
D03*
X341929Y339665D02*
D03*
X348819D02*
D03*
D64*
X684606Y291378D02*
D03*
D65*
X374508Y91634D02*
D03*
Y84744D02*
D03*
X382677Y91437D02*
D03*
Y84547D02*
D03*
D66*
X404232Y133681D02*
D03*
Y131201D02*
D03*
Y128720D02*
D03*
Y126240D02*
D03*
Y123760D02*
D03*
Y121280D02*
D03*
Y118799D02*
D03*
Y116319D02*
D03*
X423524Y133681D02*
D03*
Y131201D02*
D03*
Y128720D02*
D03*
Y126240D02*
D03*
Y123760D02*
D03*
Y121280D02*
D03*
Y118799D02*
D03*
Y116319D02*
D03*
D67*
X393406Y101673D02*
D03*
X428445D02*
D03*
Y80020D02*
D03*
X393406D02*
D03*
D68*
X417224Y79626D02*
D03*
X414075D02*
D03*
X410925D02*
D03*
X407776D02*
D03*
X404626D02*
D03*
D69*
X409842Y253839D02*
D03*
X418898Y280118D02*
D03*
X355217Y330217D02*
D03*
X392224Y307776D02*
D03*
X332520Y271988D02*
D03*
Y261850D02*
D03*
Y251713D02*
D03*
Y241476D02*
D03*
Y231437D02*
D03*
Y221299D02*
D03*
Y211161D02*
D03*
Y201122D02*
D03*
X453425Y84095D02*
D03*
X463425D02*
D03*
X473425D02*
D03*
X483425D02*
D03*
X493425D02*
D03*
X503425D02*
D03*
X498425Y94095D02*
D03*
X488425D02*
D03*
X478425D02*
D03*
X468425D02*
D03*
X458425D02*
D03*
X448425D02*
D03*
X595630Y303937D02*
D03*
X585630D02*
D03*
X575630D02*
D03*
X565630D02*
D03*
X555630D02*
D03*
X545630D02*
D03*
X540630Y313937D02*
D03*
X550630D02*
D03*
X560630D02*
D03*
X570630D02*
D03*
X580630D02*
D03*
X590630D02*
D03*
X590630Y176693D02*
D03*
X580630D02*
D03*
X570630D02*
D03*
X560630D02*
D03*
X550630D02*
D03*
X540630D02*
D03*
X545630Y166693D02*
D03*
X555630D02*
D03*
X565630D02*
D03*
X575630D02*
D03*
X585630D02*
D03*
X595630D02*
D03*
X453425Y359567D02*
D03*
X463425D02*
D03*
X473425D02*
D03*
X483425D02*
D03*
X493425D02*
D03*
X503425D02*
D03*
X498425Y369567D02*
D03*
X488425D02*
D03*
X478425D02*
D03*
X468425D02*
D03*
X458425D02*
D03*
X448425D02*
D03*
X658386Y364094D02*
D03*
X668386D02*
D03*
X678386D02*
D03*
X688386D02*
D03*
X698386D02*
D03*
X703386Y354095D02*
D03*
X693386D02*
D03*
X683386D02*
D03*
X673386D02*
D03*
X663386D02*
D03*
X658504Y225748D02*
D03*
X668504D02*
D03*
X678504D02*
D03*
X688504D02*
D03*
X698504D02*
D03*
X703504Y215748D02*
D03*
X693504D02*
D03*
X683504D02*
D03*
X673504D02*
D03*
X663504D02*
D03*
X658504Y88465D02*
D03*
X668504D02*
D03*
X678504D02*
D03*
X688504D02*
D03*
X698504D02*
D03*
X703504Y78465D02*
D03*
X693504D02*
D03*
X683504D02*
D03*
X673504D02*
D03*
X663504D02*
D03*
X385591Y172165D02*
D03*
X375590D02*
D03*
X365591D02*
D03*
X355591D02*
D03*
X345590D02*
D03*
X340591Y182165D02*
D03*
X350590D02*
D03*
X360591D02*
D03*
X370590D02*
D03*
X380591D02*
D03*
X400591Y260531D02*
D03*
X414370D02*
D03*
X400098Y355807D02*
D03*
X413878D02*
D03*
X595669Y448150D02*
D03*
X585669D02*
D03*
X575669D02*
D03*
X565669D02*
D03*
X555669D02*
D03*
X545669D02*
D03*
X540669Y458150D02*
D03*
X550669D02*
D03*
X560669D02*
D03*
X570669D02*
D03*
X580669D02*
D03*
X590669D02*
D03*
X696457Y451142D02*
D03*
Y441142D02*
D03*
X706457Y446142D02*
D03*
Y456142D02*
D03*
X479193Y457874D02*
D03*
X469193D02*
D03*
X474193Y447874D02*
D03*
X484193D02*
D03*
X385591Y447756D02*
D03*
X375591D02*
D03*
X365591D02*
D03*
X355591D02*
D03*
X345591D02*
D03*
X340591Y457756D02*
D03*
X350591D02*
D03*
X360591D02*
D03*
X370591D02*
D03*
X380591D02*
D03*
X348976Y88779D02*
D03*
X338976D02*
D03*
X343976Y78780D02*
D03*
X353976D02*
D03*
X699213Y167283D02*
D03*
Y157283D02*
D03*
X709213Y162284D02*
D03*
Y172283D02*
D03*
D70*
X349410Y420866D02*
D03*
X694685D02*
D03*
Y115354D02*
D03*
X349410D02*
D03*
D71*
X402264Y89862D02*
D03*
X419587D02*
D03*
D72*
X616417Y86535D02*
D03*
D73*
X606417D02*
D03*
X596417D02*
D03*
X586417D02*
D03*
X576417D02*
D03*
X566417D02*
D03*
X508937Y91181D02*
D03*
X535118Y306850D02*
D03*
X535118Y169606D02*
D03*
X508937Y366654D02*
D03*
X708898Y361142D02*
D03*
X709016Y222795D02*
D03*
Y85512D02*
D03*
X335079Y175118D02*
D03*
X535157Y451063D02*
D03*
X703543Y435630D02*
D03*
X463681Y450787D02*
D03*
X335079Y450709D02*
D03*
X333465Y81693D02*
D03*
X706299Y151772D02*
D03*
D74*
X518037Y158571D02*
D03*
X522933Y158014D02*
D03*
X519095Y279232D02*
D03*
X431123Y177076D02*
D03*
X479331Y173721D02*
D03*
X464370Y180748D02*
D03*
X494193Y186909D02*
D03*
X394094Y275098D02*
D03*
X433112Y271358D02*
D03*
X471161Y158366D02*
D03*
X488681Y169587D02*
D03*
X406772Y218012D02*
D03*
X419607Y222747D02*
D03*
X414307Y234945D02*
D03*
X417001Y249763D02*
D03*
X529823Y196653D02*
D03*
X520695Y234263D02*
D03*
X419390Y188976D02*
D03*
X476083Y187500D02*
D03*
X556693Y232972D02*
D03*
X557382Y226480D02*
D03*
X520990Y239087D02*
D03*
X516240Y236910D02*
D03*
X520669Y247638D02*
D03*
X505315Y296260D02*
D03*
X451476Y288386D02*
D03*
X616339Y98976D02*
D03*
X351673Y254823D02*
D03*
X351378Y207677D02*
D03*
X528346Y292421D02*
D03*
X472835Y108366D02*
D03*
X539764Y232874D02*
D03*
X471063Y152854D02*
D03*
X393326Y227373D02*
D03*
X393701Y222047D02*
D03*
X398149Y224519D02*
D03*
X394980Y123327D02*
D03*
X425039Y172913D02*
D03*
X418799Y168701D02*
D03*
D75*
X540748Y219390D02*
D03*
X369108Y312697D02*
D03*
X483291Y169095D02*
D03*
X500295Y166831D02*
D03*
X427027Y194882D02*
D03*
X426673Y157677D02*
D03*
X503051Y176870D02*
D03*
X508167Y162690D02*
D03*
X436319Y158465D02*
D03*
X579528Y250689D02*
D03*
X578150Y354232D02*
D03*
X484252Y326575D02*
D03*
X517224Y443898D02*
D03*
X346063Y140157D02*
D03*
X373425Y104528D02*
D03*
X670374Y138484D02*
D03*
X664173Y249311D02*
D03*
X702264Y402461D02*
D03*
X336024Y409449D02*
D03*
X372933Y258465D02*
D03*
X601279Y230413D02*
D03*
X605315Y218012D02*
D03*
Y207480D02*
D03*
X554035Y388779D02*
D03*
X524409Y315354D02*
D03*
X515256Y310827D02*
D03*
X478642D02*
D03*
X469390D02*
D03*
X429528Y388779D02*
D03*
X406102Y319291D02*
D03*
X464862Y305217D02*
D03*
X467126Y286910D02*
D03*
X406201Y326476D02*
D03*
Y332776D02*
D03*
X406299Y340748D02*
D03*
X399016Y319193D02*
D03*
Y326476D02*
D03*
Y332874D02*
D03*
X398819Y340748D02*
D03*
X524567Y285394D02*
D03*
X514528Y285197D02*
D03*
X561024Y157480D02*
D03*
X414307Y210378D02*
D03*
X405610Y203642D02*
D03*
X526476Y172165D02*
D03*
X532776Y152953D02*
D03*
X440277Y175008D02*
D03*
X521949Y109843D02*
D03*
X533366Y106102D02*
D03*
X586319Y111221D02*
D03*
X540059Y150295D02*
D03*
X534350Y160630D02*
D03*
X479134Y151870D02*
D03*
X384941Y133465D02*
D03*
X374920Y143905D02*
D03*
X363681Y148819D02*
D03*
X412402Y182945D02*
D03*
X403366Y190659D02*
D03*
X385353Y125695D02*
D03*
X370866Y148721D02*
D03*
X407697Y186623D02*
D03*
X381712Y120872D02*
D03*
X363502Y154732D02*
D03*
X398248Y194694D02*
D03*
Y213593D02*
D03*
X418918Y95083D02*
D03*
X389173Y115157D02*
D03*
X389684Y129731D02*
D03*
X412444Y174606D02*
D03*
X399606Y247835D02*
D03*
X422560Y164772D02*
D03*
X441043Y110925D02*
D03*
X429035Y151673D02*
D03*
X441240Y152854D02*
D03*
X532677Y286890D02*
D03*
M02*
