%FSLAX25Y25*%
%MOIN*%
G70*
G01*
G75*
G04 Layer_Physical_Order=2*
G04 Layer_Color=16711680*
%ADD10R,0.05079X0.04882*%
%ADD11O,0.01575X0.05906*%
%ADD12R,0.01575X0.05906*%
%ADD13R,0.00748X0.03961*%
%ADD14R,0.03961X0.00748*%
%ADD15R,0.08661X0.12992*%
%ADD16R,0.08661X0.03937*%
%ADD17O,0.03150X0.10039*%
%ADD18R,0.12992X0.08268*%
%ADD19R,0.04724X0.08268*%
%ADD20R,0.14567X0.09055*%
%ADD21R,0.03150X0.03543*%
%ADD22R,0.02756X0.03543*%
%ADD23R,0.03543X0.03150*%
%ADD24R,0.03543X0.02756*%
%ADD25R,0.02953X0.03543*%
%ADD26R,0.39370X0.19685*%
%ADD27R,0.03543X0.02953*%
%ADD28O,0.09055X0.01378*%
%ADD29R,0.07874X0.09843*%
%ADD30R,0.01969X0.09055*%
%ADD31C,0.31496*%
%ADD32C,0.01000*%
%ADD33C,0.01969*%
%ADD34C,0.03937*%
%ADD35C,0.06000*%
%ADD36C,0.11811*%
%ADD37C,0.02362*%
%ADD38R,0.05906X0.05906*%
%ADD39C,0.05906*%
%ADD40C,0.03937*%
%ADD41C,0.05000*%
%ADD42R,0.09055X0.09055*%
G36*
X521441Y166468D02*
Y160442D01*
X520911Y160036D01*
X520513Y160000D01*
D01*
X520059Y160592D01*
X519467Y161047D01*
X518777Y161332D01*
X518037Y161430D01*
X517425Y161349D01*
X514980Y163795D01*
Y164153D01*
X514983Y164173D01*
Y172273D01*
X515445Y172464D01*
X521441Y166468D01*
D02*
G37*
G36*
X414529Y164381D02*
D01*
X414529D01*
Y164381D01*
D01*
X414529D01*
Y164381D01*
X414529D01*
X414529Y164381D01*
Y164381D01*
X414529Y164381D01*
Y164381D01*
X414981Y164079D01*
X415514Y163973D01*
X419270D01*
X419280Y163893D01*
X419620Y163074D01*
X420159Y162371D01*
X420862Y161831D01*
X421681Y161492D01*
X422560Y161377D01*
X423439Y161492D01*
X424258Y161831D01*
X424961Y162371D01*
X425500Y163074D01*
X425840Y163893D01*
X425955Y164772D01*
X425840Y165651D01*
X425500Y166469D01*
X425201Y166859D01*
X425422Y167308D01*
X434934D01*
X453915Y148326D01*
X454367Y148024D01*
X454618Y147974D01*
X454569Y147477D01*
X427881D01*
X426975Y148383D01*
X427305Y148758D01*
X427338Y148733D01*
X428157Y148394D01*
X429035Y148278D01*
X429914Y148394D01*
X430733Y148733D01*
X431436Y149273D01*
X431976Y149976D01*
X432315Y150794D01*
X432431Y151673D01*
X432315Y152552D01*
X431976Y153371D01*
X431436Y154074D01*
X430733Y154614D01*
X429914Y154953D01*
X429421Y155018D01*
X429230Y155480D01*
X429614Y155980D01*
X429953Y156798D01*
X429989Y157072D01*
X433252D01*
X433379Y156767D01*
X433918Y156064D01*
X434621Y155524D01*
X435440Y155185D01*
X436319Y155069D01*
X437198Y155185D01*
X438017Y155524D01*
X438720Y156064D01*
X439259Y156767D01*
X439598Y157586D01*
X439714Y158465D01*
X439598Y159343D01*
X439259Y160162D01*
X438720Y160865D01*
X438017Y161405D01*
X437198Y161744D01*
X436319Y161860D01*
X435440Y161744D01*
X434621Y161405D01*
X433918Y160865D01*
X433379Y160162D01*
X433252Y159857D01*
X429243D01*
X429074Y160078D01*
X428371Y160617D01*
X427552Y160957D01*
X426673Y161072D01*
X425795Y160957D01*
X424976Y160617D01*
X424272Y160078D01*
X423733Y159375D01*
X423394Y158556D01*
X423278Y157677D01*
X423394Y156798D01*
X423733Y155980D01*
X424272Y155276D01*
X424976Y154737D01*
X425795Y154398D01*
X426287Y154333D01*
X426479Y153871D01*
X426095Y153371D01*
X425969Y153066D01*
X424918D01*
X420956Y157028D01*
X420940Y157104D01*
X420639Y157556D01*
X393900Y184295D01*
X393957Y184402D01*
X393951Y184391D01*
X394446Y184465D01*
X414529Y164381D01*
D02*
G37*
G36*
X468685Y156937D02*
X469140Y156344D01*
X469732Y155890D01*
X469755Y155881D01*
Y155381D01*
X469633Y155330D01*
X469041Y154876D01*
X468587Y154284D01*
X468572Y154247D01*
X454573D01*
X452239Y156581D01*
X452431Y157043D01*
X468641D01*
X468685Y156937D01*
D02*
G37*
G36*
X349652Y252801D02*
X349985Y252545D01*
Y210168D01*
X349949Y210153D01*
X349356Y209699D01*
X349307Y209635D01*
X348834Y209796D01*
Y253089D01*
X349307Y253250D01*
X349652Y252801D01*
D02*
G37*
G36*
X369401Y258274D02*
X369603Y257971D01*
X369654Y257586D01*
X369993Y256767D01*
X370074Y256661D01*
Y213414D01*
X370171Y212674D01*
X370457Y211985D01*
X370911Y211393D01*
X372772Y209532D01*
X372581Y209070D01*
X353869D01*
X353854Y209107D01*
X353400Y209699D01*
X352807Y210153D01*
X352771Y210168D01*
Y252209D01*
X353103Y252347D01*
X353695Y252801D01*
X354149Y253393D01*
X354435Y254083D01*
X354532Y254823D01*
X354435Y255563D01*
X354149Y256252D01*
X353695Y256844D01*
X353103Y257299D01*
X352413Y257585D01*
X351673Y257682D01*
X350933Y257585D01*
X350244Y257299D01*
X349652Y256844D01*
X349307Y256396D01*
X348834Y256557D01*
Y258351D01*
X368745D01*
X369174Y258436D01*
X369401Y258274D01*
D02*
G37*
G36*
X419650Y179414D02*
X419650Y179414D01*
X420262Y179005D01*
X420382Y178981D01*
X420984Y178861D01*
X420984Y178861D01*
X428345D01*
X428623Y178446D01*
X428362Y177816D01*
X428264Y177076D01*
X428362Y176336D01*
X428647Y175646D01*
X429074Y175090D01*
X428853Y174642D01*
X427286D01*
X427061Y174935D01*
X426469Y175390D01*
X425779Y175675D01*
X425039Y175773D01*
X424299Y175675D01*
X423610Y175390D01*
X423018Y174935D01*
X422563Y174343D01*
X422278Y173653D01*
X422180Y172913D01*
X422278Y172173D01*
X422563Y171484D01*
X423018Y170892D01*
X423441Y170567D01*
X423280Y170094D01*
X421290D01*
X421275Y170130D01*
X420821Y170722D01*
X420229Y171177D01*
X419539Y171463D01*
X418799Y171560D01*
X418059Y171463D01*
X417370Y171177D01*
X416778Y170722D01*
X416323Y170130D01*
X416038Y169441D01*
X415940Y168701D01*
X416038Y167961D01*
X416323Y167271D01*
X416372Y167208D01*
X416321Y167104D01*
X415828Y167022D01*
X412067Y170783D01*
X412288Y171232D01*
X412444Y171211D01*
X413322Y171327D01*
X414141Y171666D01*
X414845Y172205D01*
X415384Y172909D01*
X415723Y173728D01*
X415839Y174606D01*
X415723Y175485D01*
X415384Y176304D01*
X414845Y177007D01*
X414141Y177547D01*
X413322Y177886D01*
X412444Y178001D01*
X412396Y177995D01*
X411068Y179323D01*
X411346Y179739D01*
X411523Y179665D01*
X412402Y179550D01*
X413280Y179665D01*
X414099Y180005D01*
X414802Y180544D01*
X415342Y181247D01*
X415681Y182066D01*
X415761Y182669D01*
X416234Y182830D01*
X419650Y179414D01*
D02*
G37*
G36*
X373349Y462495D02*
X372745Y462374D01*
X370683Y461674D01*
X370633Y461650D01*
X370591Y461656D01*
X369581Y461523D01*
X368641Y461133D01*
X367833Y460513D01*
X367214Y459706D01*
X367209Y459695D01*
X366919Y459501D01*
X365281Y458065D01*
X365075Y457830D01*
X364596Y457975D01*
X364488Y458800D01*
X364085Y459773D01*
X363443Y460609D01*
X362608Y461250D01*
X361635Y461653D01*
X361091Y461725D01*
Y457756D01*
Y453787D01*
X361635Y453859D01*
X361767Y453914D01*
X362109Y453549D01*
X361672Y452664D01*
X360972Y450601D01*
X360547Y448465D01*
X360405Y446292D01*
Y424481D01*
X360476Y423390D01*
X360547Y422311D01*
X360547Y422309D01*
X360547Y422308D01*
X360759Y421243D01*
X360971Y420175D01*
X360972Y420173D01*
X360972Y420172D01*
X360988Y420125D01*
Y370118D01*
X361130Y367945D01*
X361555Y365809D01*
X362255Y363747D01*
X363219Y361793D01*
X364429Y359982D01*
X365865Y358345D01*
X367502Y356909D01*
X369313Y355699D01*
X371266Y354736D01*
X373328Y354036D01*
X375465Y353611D01*
X377638Y353468D01*
X379811Y353611D01*
X381947Y354036D01*
X384009Y354736D01*
X385963Y355699D01*
X387774Y356909D01*
X389411Y358345D01*
X390847Y359982D01*
X392057Y361793D01*
X393020Y363747D01*
X393720Y365809D01*
X394145Y367945D01*
X394185Y368558D01*
X394685Y368542D01*
Y361811D01*
X397220D01*
Y358406D01*
X396721Y357757D01*
X396332Y356816D01*
X396199Y355807D01*
X396332Y354798D01*
X396721Y353857D01*
X397341Y353050D01*
X398149Y352430D01*
X399089Y352041D01*
X400098Y351908D01*
X401108Y352041D01*
X402048Y352430D01*
X402856Y353050D01*
X403476Y353857D01*
X403865Y354798D01*
X403998Y355807D01*
X403865Y356816D01*
X403476Y357757D01*
X402938Y358457D01*
Y361811D01*
X405473D01*
Y372599D01*
X394685D01*
Y372599D01*
X394641D01*
X394288Y372952D01*
Y397799D01*
X609649D01*
Y391027D01*
X609201Y390806D01*
X608615Y391256D01*
X607925Y391541D01*
X607185Y391639D01*
X555839D01*
X555733Y391720D01*
X554914Y392059D01*
X554035Y392175D01*
X553157Y392059D01*
X552338Y391720D01*
X552232Y391639D01*
X431331D01*
X431225Y391720D01*
X430406Y392059D01*
X429528Y392175D01*
X428649Y392059D01*
X427830Y391720D01*
X427127Y391180D01*
X426587Y390477D01*
X426248Y389658D01*
X426132Y388779D01*
X426248Y387901D01*
X426587Y387082D01*
X426669Y386976D01*
Y301775D01*
X398569Y273675D01*
X398114Y273083D01*
X397829Y272393D01*
X397731Y271654D01*
Y263156D01*
X397214Y262481D01*
X396824Y261541D01*
X396691Y260531D01*
X396824Y259522D01*
X397214Y258582D01*
X397833Y257774D01*
X398641Y257154D01*
X399581Y256765D01*
X400591Y256632D01*
X401600Y256765D01*
X402540Y257154D01*
X403348Y257774D01*
X403968Y258582D01*
X404357Y259522D01*
X404490Y260531D01*
X404357Y261541D01*
X403968Y262481D01*
X403450Y263156D01*
Y270469D01*
X414948Y281968D01*
X415364Y281690D01*
X415131Y281127D01*
X414998Y280118D01*
X415131Y279109D01*
X415521Y278168D01*
X416140Y277361D01*
X416948Y276741D01*
X417343Y276577D01*
Y263857D01*
X416895Y263636D01*
X416387Y264025D01*
X415414Y264428D01*
X414870Y264500D01*
Y260531D01*
X414370D01*
Y260032D01*
X410401D01*
X410473Y259487D01*
X410876Y258514D01*
X411322Y257933D01*
X411018Y257537D01*
X410852Y257605D01*
X409842Y257738D01*
X408833Y257605D01*
X407893Y257216D01*
X407085Y256596D01*
X406465Y255788D01*
X406076Y254848D01*
X405943Y253839D01*
X406076Y252829D01*
X406465Y251889D01*
X407085Y251081D01*
X407893Y250462D01*
X408833Y250072D01*
X409842Y249939D01*
X410852Y250072D01*
X411792Y250462D01*
X412600Y251081D01*
X413220Y251889D01*
X413609Y252829D01*
X413742Y253839D01*
X413669Y254397D01*
X413998Y254772D01*
X416179D01*
X416712Y254878D01*
X417164Y255180D01*
X417164Y255180D01*
X417164Y255180D01*
X419721Y257738D01*
X419721Y257738D01*
X419721Y257738D01*
X420023Y258190D01*
X420129Y258723D01*
Y276444D01*
X420847Y276741D01*
X421655Y277361D01*
X422275Y278168D01*
X422664Y279109D01*
X422797Y280118D01*
X422664Y281127D01*
X422275Y282068D01*
X421655Y282875D01*
X420847Y283495D01*
X419907Y283885D01*
X418898Y284018D01*
X417888Y283885D01*
X417325Y283652D01*
X417048Y284067D01*
X431549Y298569D01*
X432004Y299161D01*
X432004Y299161D01*
X432004Y299161D01*
X432289Y299851D01*
X432387Y300590D01*
Y385920D01*
X552232D01*
X552338Y385839D01*
X553157Y385500D01*
X554035Y385384D01*
X554914Y385500D01*
X555733Y385839D01*
X555839Y385920D01*
X604326D01*
Y237503D01*
X600533Y233710D01*
X600401Y233693D01*
X599582Y233354D01*
X598879Y232814D01*
X598339Y232111D01*
X598000Y231292D01*
X597884Y230413D01*
X598000Y229535D01*
X598339Y228716D01*
X598879Y228013D01*
X599582Y227473D01*
X600401Y227134D01*
X601279Y227018D01*
X602158Y227134D01*
X602977Y227473D01*
X603680Y228013D01*
X604220Y228716D01*
X604559Y229535D01*
X604576Y229667D01*
X609187Y234278D01*
X609649Y234087D01*
Y224173D01*
Y147477D01*
X542704D01*
X542483Y147925D01*
X542999Y148598D01*
X543339Y149416D01*
X543454Y150295D01*
X543339Y151174D01*
X542999Y151993D01*
X542460Y152696D01*
X541757Y153236D01*
X540938Y153575D01*
X540059Y153691D01*
X539180Y153575D01*
X538362Y153236D01*
X537658Y152696D01*
X537119Y151993D01*
X536993Y151688D01*
X536313D01*
X536055Y152074D01*
X536171Y152953D01*
X536055Y153832D01*
X535716Y154650D01*
X535176Y155353D01*
X534473Y155893D01*
X533654Y156232D01*
X532776Y156348D01*
X531897Y156232D01*
X531078Y155893D01*
X530375Y155353D01*
X529835Y154650D01*
X529632Y154161D01*
X512204D01*
Y160046D01*
X512098Y160579D01*
X511796Y161030D01*
X511320Y161507D01*
X511446Y161811D01*
X511562Y162690D01*
X511446Y163569D01*
X511107Y164388D01*
X510567Y165091D01*
X509864Y165630D01*
X509045Y165970D01*
X508167Y166085D01*
X507288Y165970D01*
X506469Y165630D01*
X505766Y165091D01*
X505226Y164388D01*
X504887Y163569D01*
X504771Y162690D01*
X504887Y161811D01*
X505226Y160993D01*
X505766Y160290D01*
X506469Y159750D01*
X507288Y159411D01*
X508167Y159295D01*
X509042Y159410D01*
X509047Y159406D01*
X509418Y158510D01*
Y154145D01*
X508956Y153953D01*
X502676Y160233D01*
Y164415D01*
X502696Y164430D01*
X503236Y165133D01*
X503575Y165952D01*
X503690Y166831D01*
X503575Y167709D01*
X503236Y168528D01*
X502696Y169231D01*
X501993Y169771D01*
X501174Y170110D01*
X500882Y170149D01*
X500828Y170185D01*
X500295Y170291D01*
X499762Y170185D01*
X499709Y170149D01*
X499416Y170110D01*
X498598Y169771D01*
X497894Y169231D01*
X497355Y168528D01*
X497016Y167709D01*
X496900Y166831D01*
X497016Y165952D01*
X497355Y165133D01*
X497894Y164430D01*
X498598Y163890D01*
X499416Y163551D01*
X499891Y163489D01*
Y159656D01*
X499891Y159656D01*
X499891D01*
X499997Y159123D01*
X500299Y158671D01*
X510868Y148102D01*
X511088Y147955D01*
X510942Y147477D01*
X455231D01*
X455182Y147974D01*
X455433Y148024D01*
X455587Y148127D01*
X472444D01*
X472977Y148233D01*
X473429Y148535D01*
X475383Y150488D01*
X475418Y150542D01*
X475916Y150493D01*
X476077Y150105D01*
X476638Y149374D01*
X477369Y148813D01*
X478220Y148460D01*
X478634Y148406D01*
Y151870D01*
X479134D01*
Y152370D01*
X482598D01*
X482544Y152784D01*
X482191Y153635D01*
X481630Y154366D01*
X480899Y154927D01*
X480048Y155280D01*
X479723Y155323D01*
X479562Y155796D01*
X480316Y156550D01*
X480618Y157001D01*
X480724Y157535D01*
Y166257D01*
X481172Y166478D01*
X481594Y166154D01*
X482413Y165815D01*
X483291Y165699D01*
X484170Y165815D01*
X484989Y166154D01*
X485692Y166694D01*
X486175Y167323D01*
X486670Y167388D01*
X487184Y166994D01*
X487906Y166694D01*
X488181Y166658D01*
Y169587D01*
X488681D01*
Y170087D01*
X491609D01*
X491573Y170362D01*
X491274Y171084D01*
X490890Y171584D01*
X491111Y172032D01*
X493110D01*
X493643Y172138D01*
X494095Y172440D01*
X494305Y172650D01*
X500224D01*
X500757Y172756D01*
X501209Y173058D01*
X501209Y173058D01*
X501209Y173058D01*
X501868Y173717D01*
X502172Y173591D01*
X503051Y173475D01*
X503930Y173591D01*
X504749Y173930D01*
X505452Y174469D01*
X505992Y175172D01*
X506331Y175991D01*
X506446Y176870D01*
X506331Y177749D01*
X505992Y178568D01*
X505452Y179271D01*
X504749Y179810D01*
X503930Y180150D01*
X503051Y180265D01*
X502172Y180150D01*
X501354Y179810D01*
X500650Y179271D01*
X500111Y178568D01*
X499772Y177749D01*
X499656Y176870D01*
X499772Y175991D01*
X499829Y175852D01*
X499552Y175436D01*
X493728D01*
X493195Y175330D01*
X492743Y175028D01*
X492533Y174818D01*
X487622D01*
X487089Y174712D01*
X486637Y174410D01*
X484475Y172248D01*
X484170Y172374D01*
X483291Y172490D01*
X482413Y172374D01*
X482326Y172338D01*
X481973Y172692D01*
X482092Y172980D01*
X482190Y173721D01*
X482092Y174460D01*
X481807Y175150D01*
X481352Y175742D01*
X480760Y176197D01*
X480071Y176482D01*
X479331Y176580D01*
X478591Y176482D01*
X477901Y176197D01*
X477309Y175742D01*
X476855Y175150D01*
X476569Y174460D01*
X476472Y173721D01*
X476569Y172980D01*
X476855Y172291D01*
X477309Y171699D01*
X477901Y171244D01*
X477938Y171229D01*
Y158111D01*
X474016Y154189D01*
X473539Y154284D01*
X473085Y154876D01*
X472493Y155330D01*
X472470Y155340D01*
Y155840D01*
X472591Y155890D01*
X473183Y156344D01*
X473637Y156937D01*
X473923Y157626D01*
X474020Y158366D01*
X473923Y159106D01*
X473637Y159796D01*
X473183Y160388D01*
X472591Y160842D01*
X471901Y161128D01*
X471161Y161225D01*
X470421Y161128D01*
X469732Y160842D01*
X469140Y160388D01*
X468711Y159829D01*
X451631D01*
X440415Y171044D01*
X440576Y171518D01*
X441191Y171599D01*
X442042Y171951D01*
X442774Y172512D01*
X443335Y173243D01*
X443687Y174095D01*
X443742Y174509D01*
X440277D01*
Y175508D01*
X443742D01*
X443687Y175922D01*
X443335Y176774D01*
X442774Y177505D01*
X442042Y178066D01*
X441306Y178371D01*
X441403Y178861D01*
X457008D01*
X457008Y178465D01*
X457008D01*
Y178103D01*
X456874Y177969D01*
X456874D01*
Y175894D01*
X462417D01*
Y177969D01*
X462417D01*
Y178277D01*
X462732Y178432D01*
X462941Y178272D01*
X463630Y177986D01*
X464370Y177889D01*
X465110Y177986D01*
X465800Y178272D01*
X466392Y178726D01*
X466495Y178861D01*
X493432D01*
X493432Y178861D01*
X494034Y178981D01*
X494154Y179005D01*
X494766Y179414D01*
X503469Y188117D01*
X503470Y188117D01*
X503878Y188729D01*
X504022Y189451D01*
Y191964D01*
X506413Y194355D01*
X506413Y194355D01*
X506686Y194764D01*
X506822Y194967D01*
X506965Y195689D01*
X506965Y195689D01*
Y228146D01*
X517729D01*
X517729Y228146D01*
X518331Y228266D01*
X518451Y228289D01*
X519063Y228698D01*
X519063Y228698D01*
X519063Y228698D01*
X522003Y231638D01*
X522095Y231775D01*
X522124Y231787D01*
X522716Y232242D01*
X522968Y232570D01*
X523442Y232409D01*
Y206555D01*
X512606Y195718D01*
X512304Y195266D01*
X512198Y194734D01*
Y164189D01*
X512194Y164169D01*
Y163218D01*
X512194Y163218D01*
X512194D01*
X512300Y162685D01*
X512602Y162233D01*
X515348Y159487D01*
X515275Y159311D01*
X515178Y158571D01*
X515275Y157831D01*
X515561Y157141D01*
X516015Y156549D01*
X516608Y156095D01*
X517297Y155809D01*
X518037Y155712D01*
X518777Y155809D01*
X519467Y156095D01*
X520059Y156549D01*
X520457Y156585D01*
Y156585D01*
X520457Y156585D01*
X520911Y155992D01*
X521503Y155538D01*
X522193Y155252D01*
X522933Y155155D01*
X523673Y155252D01*
X524363Y155538D01*
X524955Y155992D01*
X525409Y156585D01*
X525695Y157274D01*
X525792Y158014D01*
X525695Y158754D01*
X525409Y159444D01*
X524955Y160036D01*
X524363Y160490D01*
X524227Y160546D01*
Y165668D01*
X524689Y165860D01*
X527360Y163188D01*
X527812Y162886D01*
X528345Y162780D01*
X530230D01*
X531197Y161813D01*
X531071Y161509D01*
X530955Y160630D01*
X531071Y159751D01*
X531410Y158932D01*
X531950Y158229D01*
X532653Y157690D01*
X533472Y157350D01*
X534350Y157235D01*
X535229Y157350D01*
X536048Y157690D01*
X536751Y158229D01*
X537291Y158932D01*
X537630Y159751D01*
X537746Y160630D01*
X537630Y161509D01*
X537291Y162328D01*
X536751Y163031D01*
X536048Y163570D01*
X535229Y163909D01*
X534350Y164025D01*
X533472Y163909D01*
X533167Y163783D01*
X531792Y165158D01*
X531340Y165460D01*
X530807Y165566D01*
X528922D01*
X526153Y168335D01*
X526374Y168784D01*
X526476Y168770D01*
X527355Y168886D01*
X528174Y169225D01*
X528877Y169765D01*
X529417Y170468D01*
X529756Y171287D01*
X529872Y172165D01*
X529756Y173044D01*
X529417Y173863D01*
X528877Y174566D01*
X528174Y175106D01*
X527355Y175445D01*
X526476Y175560D01*
X525598Y175445D01*
X525293Y175319D01*
X523658Y176954D01*
X523206Y177255D01*
X522673Y177362D01*
X520582D01*
Y191838D01*
X526560Y197816D01*
X526976Y197538D01*
X526931Y197429D01*
X526895Y197153D01*
X529323D01*
Y199582D01*
X529048Y199546D01*
X528938Y199500D01*
X528660Y199916D01*
X531418Y202674D01*
X531720Y203126D01*
X531826Y203659D01*
X531826Y203659D01*
X531826Y203659D01*
Y203659D01*
Y283227D01*
X532202Y283557D01*
X532677Y283495D01*
X533556Y283610D01*
X534375Y283949D01*
X535078Y284489D01*
X535617Y285192D01*
X535957Y286011D01*
X536072Y286890D01*
X535957Y287769D01*
X535617Y288587D01*
X535078Y289291D01*
X534375Y289830D01*
X533556Y290169D01*
X532677Y290285D01*
X531799Y290169D01*
X530980Y289830D01*
X530408Y289392D01*
X530009Y289589D01*
X529960Y290086D01*
X529960Y290086D01*
X530368Y290400D01*
X530823Y290992D01*
X531108Y291681D01*
X531206Y292421D01*
X531108Y293161D01*
X530823Y293851D01*
X530368Y294443D01*
X529776Y294897D01*
X529086Y295183D01*
X528346Y295280D01*
X527606Y295183D01*
X526917Y294897D01*
X526325Y294443D01*
X525870Y293851D01*
X525585Y293161D01*
X525487Y292421D01*
X525585Y291681D01*
X525870Y290992D01*
X526325Y290400D01*
X526917Y289945D01*
X527174Y289839D01*
Y288201D01*
X526726Y287980D01*
X526265Y288334D01*
X525446Y288673D01*
X524567Y288789D01*
X523688Y288673D01*
X522869Y288334D01*
X522166Y287795D01*
X521627Y287091D01*
X521287Y286273D01*
X521172Y285394D01*
X521287Y284515D01*
X521627Y283696D01*
X522166Y282993D01*
X522869Y282453D01*
X523688Y282114D01*
X524567Y281999D01*
X524932Y282047D01*
X525308Y281717D01*
Y237392D01*
X524846Y237200D01*
X523736Y238310D01*
X523752Y238347D01*
X523849Y239087D01*
X523752Y239826D01*
X523466Y240516D01*
X523012Y241108D01*
X522420Y241563D01*
X521730Y241848D01*
X520990Y241946D01*
X520643Y241900D01*
X520421Y241944D01*
X515920D01*
Y277856D01*
X516411Y277954D01*
X516502Y277735D01*
X516977Y277115D01*
X517597Y276639D01*
X518320Y276340D01*
X518595Y276304D01*
Y279232D01*
Y282161D01*
X518320Y282124D01*
X517597Y281825D01*
X516977Y281349D01*
X516502Y280729D01*
X516411Y280511D01*
X515920Y280608D01*
Y282130D01*
X516225Y282257D01*
X516928Y282796D01*
X517468Y283499D01*
X517807Y284318D01*
X517923Y285197D01*
X517807Y286075D01*
X517468Y286894D01*
X516928Y287598D01*
X516225Y288137D01*
X515406Y288476D01*
X514528Y288592D01*
X513649Y288476D01*
X512830Y288137D01*
X512127Y287598D01*
X511587Y286894D01*
X511248Y286075D01*
X511132Y285197D01*
X511248Y284318D01*
X511587Y283499D01*
X512127Y282796D01*
X512830Y282257D01*
X513135Y282130D01*
Y240551D01*
X513241Y240018D01*
X513543Y239566D01*
X513896Y239330D01*
X513947Y239023D01*
X513886Y238718D01*
X513647Y238406D01*
X513348Y237684D01*
X513312Y237409D01*
X516240D01*
Y236910D01*
X516740D01*
Y233981D01*
X517015Y234017D01*
X517445Y234195D01*
X517877Y233945D01*
X517933Y233523D01*
X518114Y233086D01*
X516948Y231919D01*
X506965D01*
Y257894D01*
X507854D01*
Y263169D01*
X506965D01*
Y274882D01*
X506822Y275604D01*
X506413Y276216D01*
X505801Y276625D01*
X505079Y276768D01*
X468497D01*
Y283834D01*
X468824Y283969D01*
X469527Y284509D01*
X470066Y285212D01*
X470405Y286031D01*
X470521Y286910D01*
X470405Y287788D01*
X470066Y288607D01*
X469527Y289310D01*
X468824Y289850D01*
X468005Y290189D01*
X467126Y290305D01*
X466247Y290189D01*
X465428Y289850D01*
X464725Y289310D01*
X464186Y288607D01*
X463846Y287788D01*
X463731Y286910D01*
X463846Y286031D01*
X464186Y285212D01*
X464723Y284511D01*
Y274882D01*
X464867Y274160D01*
X465276Y273548D01*
X465888Y273139D01*
X466610Y272995D01*
X503192D01*
Y263169D01*
X502973Y263169D01*
Y263169D01*
X502610D01*
X502477Y263303D01*
Y263303D01*
X500402D01*
Y260531D01*
Y257760D01*
X502477D01*
Y257894D01*
X502973D01*
Y257894D01*
X503192Y257894D01*
Y229232D01*
Y196470D01*
X500801Y194080D01*
X500392Y193468D01*
X500368Y193348D01*
X500249Y192746D01*
X500249Y192746D01*
Y190233D01*
X497544Y187528D01*
X497085Y187684D01*
X496786Y188407D01*
X496310Y189027D01*
X495690Y189502D01*
X494968Y189802D01*
X494693Y189838D01*
Y186909D01*
X494193D01*
Y186409D01*
X491265D01*
X491301Y186135D01*
X491600Y185412D01*
X492076Y184792D01*
X492696Y184317D01*
X493418Y184017D01*
X493574Y183558D01*
X492651Y182635D01*
X477758D01*
X477441Y183021D01*
X477476Y183197D01*
Y185009D01*
X477512Y185024D01*
X478104Y185478D01*
X478559Y186071D01*
X478844Y186760D01*
X478942Y187500D01*
X478844Y188240D01*
X478559Y188929D01*
X478104Y189522D01*
X477512Y189976D01*
X476823Y190262D01*
X476083Y190359D01*
X475343Y190262D01*
X474653Y189976D01*
X474061Y189522D01*
X473607Y188929D01*
X473321Y188240D01*
X473224Y187500D01*
X473321Y186760D01*
X473607Y186071D01*
X474061Y185478D01*
X474602Y185063D01*
X474441Y184590D01*
X467883D01*
X467406Y185068D01*
X466954Y185370D01*
X466421Y185476D01*
X457544D01*
X457011Y185370D01*
X456559Y185068D01*
X456081Y184590D01*
X433920D01*
X433679Y184638D01*
X428568D01*
X428327Y184590D01*
X422436D01*
X420921Y186105D01*
X420954Y186604D01*
X421411Y186955D01*
X421866Y187547D01*
X422151Y188236D01*
X422249Y188976D01*
X422151Y189716D01*
X421866Y190406D01*
X421411Y190998D01*
X420819Y191452D01*
X420130Y191738D01*
X419390Y191835D01*
X418650Y191738D01*
X417960Y191452D01*
X417368Y190998D01*
X417047Y190580D01*
X416572Y190735D01*
X416194Y207583D01*
X416708Y207977D01*
X417247Y208680D01*
X417587Y209499D01*
X417702Y210378D01*
X417587Y211257D01*
X417247Y212076D01*
X416708Y212779D01*
X416194Y213173D01*
Y222110D01*
X416693Y222143D01*
X416715Y221972D01*
X417014Y221250D01*
X417490Y220630D01*
X418110Y220154D01*
X418832Y219855D01*
X419107Y219819D01*
Y222747D01*
Y225675D01*
X418832Y225639D01*
X418110Y225340D01*
X417490Y224864D01*
X417014Y224244D01*
X416715Y223522D01*
X416693Y223352D01*
X416194Y223384D01*
Y232820D01*
X416329Y232923D01*
X416783Y233515D01*
X417069Y234205D01*
X417166Y234945D01*
X417069Y235685D01*
X416783Y236374D01*
X416329Y236966D01*
X415736Y237421D01*
X415047Y237706D01*
X414307Y237804D01*
X413567Y237706D01*
X412878Y237421D01*
X412285Y236966D01*
X411831Y236374D01*
X411545Y235685D01*
X411448Y234945D01*
X411545Y234205D01*
X411831Y233515D01*
X412285Y232923D01*
X412420Y232820D01*
Y213173D01*
X411906Y212779D01*
X411367Y212076D01*
X411027Y211257D01*
X410912Y210378D01*
X411027Y209499D01*
X411367Y208680D01*
X411906Y207977D01*
X412420Y207583D01*
Y197880D01*
X411958Y197689D01*
X408886Y200761D01*
X408480Y201032D01*
X408457Y201172D01*
X408572Y201752D01*
X408668Y201877D01*
X409020Y202728D01*
X409075Y203142D01*
X405610D01*
Y203642D01*
X405110D01*
Y207106D01*
X404697Y207052D01*
X403845Y206699D01*
X403114Y206138D01*
X402553Y205407D01*
X402200Y204555D01*
X402158Y204231D01*
X401684Y204070D01*
X399818Y205936D01*
Y210600D01*
X399945Y210653D01*
X400648Y211192D01*
X401188Y211895D01*
X401527Y212714D01*
X401643Y213593D01*
X401527Y214472D01*
X401188Y215291D01*
X400648Y215994D01*
X399945Y216533D01*
X399127Y216873D01*
X398275Y216985D01*
X398115Y217458D01*
X399134Y218478D01*
X399436Y218930D01*
X399542Y219463D01*
X399542Y219463D01*
X399542Y219463D01*
Y219463D01*
Y222028D01*
X399579Y222043D01*
X400171Y222497D01*
X400625Y223089D01*
X400911Y223779D01*
X401008Y224519D01*
X400911Y225259D01*
X400625Y225948D01*
X400171Y226540D01*
X399579Y226995D01*
X398889Y227280D01*
X398149Y227378D01*
X397409Y227280D01*
X396720Y226995D01*
X396588Y226894D01*
X396155Y227144D01*
X396185Y227373D01*
X396088Y228113D01*
X395802Y228803D01*
X395348Y229395D01*
X394756Y229849D01*
X394066Y230135D01*
X393326Y230232D01*
X392586Y230135D01*
X391897Y229849D01*
X391305Y229395D01*
X390850Y228803D01*
X390565Y228113D01*
X390467Y227373D01*
X390565Y226633D01*
X390792Y226084D01*
X388456Y223748D01*
X388154Y223296D01*
X388048Y222763D01*
Y203501D01*
X388048Y203501D01*
X388048D01*
X388154Y202968D01*
X388210Y202885D01*
X387824Y202567D01*
X375792Y214599D01*
Y256661D01*
X375873Y256767D01*
X376213Y257586D01*
X376328Y258465D01*
X376213Y259343D01*
X375873Y260162D01*
X375622Y260489D01*
X375844Y260938D01*
X389848D01*
X398213Y252573D01*
Y250901D01*
X397909Y250775D01*
X397205Y250235D01*
X396666Y249532D01*
X396327Y248713D01*
X396211Y247835D01*
X396327Y246956D01*
X396666Y246137D01*
X397205Y245434D01*
X397909Y244894D01*
X398728Y244555D01*
X399606Y244440D01*
X400485Y244555D01*
X401304Y244894D01*
X402007Y245434D01*
X402547Y246137D01*
X402886Y246956D01*
X403001Y247835D01*
X402886Y248713D01*
X402547Y249532D01*
X402007Y250235D01*
X401304Y250775D01*
X400999Y250901D01*
Y253150D01*
X400893Y253683D01*
X400591Y254134D01*
X391410Y263316D01*
X390958Y263618D01*
X390425Y263724D01*
X371332D01*
X370799Y263618D01*
X370347Y263316D01*
X368168Y261137D01*
X347342D01*
X346810Y261031D01*
X346358Y260729D01*
X346056Y260277D01*
X345950Y259744D01*
X346048Y259249D01*
Y206898D01*
X346048Y206898D01*
X346048D01*
X346154Y206365D01*
X346456Y205913D01*
X349012Y203358D01*
X349464Y203056D01*
X349997Y202950D01*
X371305D01*
X387526Y186729D01*
X387238Y186327D01*
X385175Y187027D01*
X383039Y187452D01*
X380866Y187595D01*
X380551D01*
X378378Y187452D01*
X376242Y187027D01*
X374180Y186327D01*
X372559Y185528D01*
X372540Y185542D01*
X371600Y185932D01*
X370590Y186065D01*
X369581Y185932D01*
X368641Y185542D01*
X367833Y184923D01*
X367214Y184115D01*
X366824Y183175D01*
X366691Y182165D01*
X366824Y181156D01*
X367041Y180631D01*
X366132Y179270D01*
X365169Y177316D01*
X364704Y175948D01*
X364581Y175932D01*
X363641Y175542D01*
X362833Y174923D01*
X362213Y174115D01*
X361824Y173175D01*
X361691Y172165D01*
X361824Y171156D01*
X362213Y170216D01*
X362833Y169408D01*
X363641Y168788D01*
X364076Y168608D01*
X364469Y166636D01*
X365169Y164573D01*
X366132Y162620D01*
X367342Y160809D01*
X368778Y159172D01*
X370415Y157736D01*
X370758Y157507D01*
X409211Y119054D01*
X410848Y117618D01*
X411730Y117029D01*
X411584Y116550D01*
X392240D01*
X392113Y116855D01*
X391574Y117558D01*
X390871Y118098D01*
X390052Y118437D01*
X389173Y118553D01*
X388295Y118437D01*
X387476Y118098D01*
X386772Y117558D01*
X386233Y116855D01*
X385894Y116036D01*
X385778Y115157D01*
X385894Y114279D01*
X386233Y113460D01*
X386772Y112757D01*
X387476Y112217D01*
X388295Y111878D01*
X389173Y111762D01*
X390052Y111878D01*
X390871Y112217D01*
X391574Y112757D01*
X392113Y113460D01*
X392240Y113765D01*
X411873D01*
X412910Y112728D01*
X413362Y112426D01*
X413895Y112320D01*
X436596D01*
X437688Y111228D01*
X437648Y110925D01*
X437764Y110047D01*
X438103Y109228D01*
X438643Y108524D01*
X439346Y107985D01*
X440165Y107646D01*
X441043Y107530D01*
X441922Y107646D01*
X442741Y107985D01*
X443444Y108524D01*
X443984Y109228D01*
X444323Y110047D01*
X444439Y110925D01*
X444323Y111804D01*
X443984Y112623D01*
X443444Y113326D01*
X442952Y113704D01*
X443113Y114177D01*
X583865D01*
X584025Y113704D01*
X583918Y113621D01*
X583379Y112918D01*
X583252Y112613D01*
X523867D01*
X523646Y112783D01*
X522828Y113122D01*
X521949Y113238D01*
X521070Y113122D01*
X520251Y112783D01*
X519548Y112243D01*
X519008Y111540D01*
X518669Y110721D01*
X518554Y109843D01*
X518669Y108964D01*
X519008Y108145D01*
X519548Y107442D01*
X520251Y106902D01*
X521070Y106563D01*
X521949Y106447D01*
X522828Y106563D01*
X523646Y106902D01*
X524350Y107442D01*
X524889Y108145D01*
X525228Y108964D01*
X525342Y109828D01*
X532282D01*
X532379Y109337D01*
X531669Y109043D01*
X530965Y108503D01*
X530426Y107800D01*
X530087Y106981D01*
X529971Y106102D01*
X530087Y105224D01*
X530426Y104405D01*
X530965Y103702D01*
X531669Y103162D01*
X532487Y102823D01*
X533366Y102707D01*
X534245Y102823D01*
X534550Y102949D01*
X539507Y97992D01*
X539507Y97992D01*
X539507D01*
X539507Y97992D01*
X539507D01*
X539507Y97991D01*
Y97992D01*
Y97991D01*
D01*
D01*
X539507D01*
Y97992D01*
X539959Y97689D01*
X540492Y97584D01*
X613847D01*
X613863Y97547D01*
X614317Y96955D01*
X614909Y96500D01*
X615599Y96215D01*
X616339Y96117D01*
X617079Y96215D01*
X617768Y96500D01*
X618360Y96955D01*
X618815Y97547D01*
X619100Y98236D01*
X619198Y98976D01*
X619100Y99716D01*
X618815Y100406D01*
X618360Y100998D01*
X617768Y101452D01*
X617079Y101738D01*
X616339Y101836D01*
X615599Y101738D01*
X614909Y101452D01*
X614317Y100998D01*
X613863Y100406D01*
X613847Y100369D01*
X541069D01*
X536519Y104919D01*
X536646Y105224D01*
X536761Y106102D01*
X536646Y106981D01*
X536306Y107800D01*
X535767Y108503D01*
X535064Y109043D01*
X534353Y109337D01*
X534450Y109828D01*
X583252D01*
X583379Y109523D01*
X583918Y108820D01*
X584621Y108280D01*
X585440Y107941D01*
X586319Y107825D01*
X587198Y107941D01*
X588017Y108280D01*
X588720Y108820D01*
X589259Y109523D01*
X589598Y110342D01*
X589714Y111221D01*
X589598Y112099D01*
X589259Y112918D01*
X588720Y113621D01*
X588612Y113704D01*
X588773Y114177D01*
X619245D01*
X655267Y78155D01*
X656904Y76719D01*
X658715Y75509D01*
X660668Y74546D01*
X662731Y73846D01*
X663335Y73726D01*
X663286Y73228D01*
X327165D01*
Y462992D01*
X373300D01*
X373349Y462495D01*
D02*
G37*
G36*
X716929Y73228D02*
X670794D01*
X670745Y73726D01*
X671349Y73846D01*
X673412Y74546D01*
X673461Y74571D01*
X673504Y74565D01*
X674513Y74698D01*
X675454Y75087D01*
X676261Y75707D01*
X676881Y76515D01*
X676885Y76525D01*
X677176Y76719D01*
X678813Y78155D01*
X679020Y78391D01*
X679498Y78246D01*
X679607Y77420D01*
X680010Y76447D01*
X680651Y75612D01*
X681487Y74971D01*
X682460Y74568D01*
X683004Y74496D01*
Y78465D01*
Y82433D01*
X682460Y82362D01*
X682328Y82307D01*
X681986Y82672D01*
X682422Y83557D01*
X683122Y85619D01*
X683547Y87755D01*
X683690Y89929D01*
X683547Y92102D01*
X683122Y94238D01*
X682422Y96300D01*
X681459Y98254D01*
X680249Y100064D01*
X678813Y101702D01*
X642949Y137566D01*
Y207523D01*
X664001D01*
X666174Y207666D01*
X668310Y208091D01*
X670373Y208791D01*
X672326Y209754D01*
X674137Y210964D01*
X675774Y212400D01*
X677210Y214037D01*
X678420Y215848D01*
X679384Y217802D01*
X680084Y219864D01*
X680509Y222000D01*
X680537Y222435D01*
X681261Y222991D01*
X681881Y223798D01*
X682271Y224739D01*
X682403Y225748D01*
X682271Y226757D01*
X681881Y227698D01*
X681261Y228505D01*
X680454Y229125D01*
X679769Y229409D01*
X679384Y230545D01*
X678420Y232498D01*
X677210Y234309D01*
X675774Y235946D01*
X674137Y237382D01*
X672326Y238592D01*
X670373Y239556D01*
X668310Y240256D01*
X666174Y240681D01*
X664001Y240823D01*
X642949D01*
Y267552D01*
X650007Y274610D01*
X694489D01*
X696662Y274752D01*
X698798Y275177D01*
X700860Y275877D01*
X702814Y276841D01*
X704625Y278051D01*
X706262Y279487D01*
X707698Y281124D01*
X708908Y282935D01*
X709871Y284888D01*
X710571Y286950D01*
X710996Y289087D01*
X711139Y291260D01*
X710996Y293433D01*
X710571Y295569D01*
X709871Y297631D01*
X708908Y299585D01*
X707698Y301396D01*
X706262Y303033D01*
X704625Y304469D01*
X702814Y305679D01*
X700860Y306642D01*
X698798Y307342D01*
X696662Y307767D01*
X694489Y307910D01*
X643110D01*
X642949Y308061D01*
Y346539D01*
X664552D01*
X666726Y346682D01*
X668862Y347107D01*
X670924Y347807D01*
X672877Y348770D01*
X674688Y349980D01*
X676326Y351416D01*
X678695Y353785D01*
X678902Y354021D01*
X679380Y353876D01*
X679489Y353050D01*
X679892Y352077D01*
X680533Y351242D01*
X681369Y350601D01*
X682342Y350197D01*
X682886Y350126D01*
Y354095D01*
Y358063D01*
X682342Y357992D01*
X682210Y357937D01*
X681868Y358302D01*
X682304Y359187D01*
X683004Y361249D01*
X683429Y363385D01*
X683572Y365558D01*
X683429Y367732D01*
X683004Y369868D01*
X682304Y371930D01*
X681341Y373883D01*
X680131Y375694D01*
X678695Y377332D01*
X677058Y378768D01*
X675247Y379978D01*
X673293Y380941D01*
X671231Y381641D01*
X669095Y382066D01*
X666922Y382208D01*
X664749Y382066D01*
X662612Y381641D01*
X660550Y380941D01*
X658597Y379978D01*
X658389Y379839D01*
X642949D01*
Y414449D01*
X642807Y416622D01*
X642382Y418758D01*
X641682Y420820D01*
X640718Y422774D01*
X639508Y424585D01*
X638072Y426222D01*
X636435Y427658D01*
X634624Y428868D01*
X632671Y429831D01*
X630609Y430531D01*
X628472Y430956D01*
X626299Y431099D01*
X393983D01*
X393704Y431377D01*
Y446292D01*
X393562Y448465D01*
X393137Y450601D01*
X392437Y452664D01*
X391474Y454617D01*
X390264Y456428D01*
X388828Y458065D01*
X387190Y459501D01*
X385380Y460711D01*
X383426Y461674D01*
X381364Y462374D01*
X380760Y462495D01*
X380809Y462992D01*
X716929D01*
Y73228D01*
D02*
G37*
%LPC*%
G36*
X360090Y181665D02*
X356622D01*
X356694Y181121D01*
X357097Y180148D01*
X357738Y179313D01*
X358573Y178671D01*
X359546Y178268D01*
X360090Y178197D01*
Y181665D01*
D02*
G37*
G36*
X354559D02*
X351091D01*
Y178197D01*
X351635Y178268D01*
X352608Y178671D01*
X353443Y179313D01*
X354084Y180148D01*
X354488Y181121D01*
X354559Y181665D01*
D02*
G37*
G36*
X350091D02*
X346622D01*
X346693Y181121D01*
X347096Y180148D01*
X347738Y179313D01*
X348573Y178671D01*
X349546Y178268D01*
X350091Y178197D01*
Y181665D01*
D02*
G37*
G36*
X540130Y180662D02*
X539586Y180590D01*
X538613Y180187D01*
X537777Y179546D01*
X537136Y178710D01*
X536733Y177737D01*
X536661Y177193D01*
X540130D01*
Y180662D01*
D02*
G37*
G36*
X462417Y174894D02*
X460146D01*
Y172819D01*
X462417D01*
Y174894D01*
D02*
G37*
G36*
X459146D02*
X456874D01*
Y172819D01*
X459146D01*
Y174894D01*
D02*
G37*
G36*
X344559Y181665D02*
X341090D01*
Y178197D01*
X341635Y178268D01*
X342608Y178671D01*
X343443Y179313D01*
X344085Y180148D01*
X344488Y181121D01*
X344559Y181665D01*
D02*
G37*
G36*
X340090D02*
X336622D01*
X336694Y181121D01*
X337097Y180148D01*
X337738Y179313D01*
X338573Y178671D01*
X339546Y178268D01*
X340090Y178197D01*
Y181665D01*
D02*
G37*
G36*
X541130Y180662D02*
Y177193D01*
X544599D01*
X544527Y177737D01*
X544124Y178710D01*
X543483Y179546D01*
X542647Y180187D01*
X541674Y180590D01*
X541130Y180662D01*
D02*
G37*
G36*
X364559Y181665D02*
X361090D01*
Y178197D01*
X361635Y178268D01*
X362608Y178671D01*
X363443Y179313D01*
X364085Y180148D01*
X364488Y181121D01*
X364559Y181665D01*
D02*
G37*
G36*
X493693Y189838D02*
X493418Y189802D01*
X492696Y189502D01*
X492076Y189027D01*
X491600Y188407D01*
X491301Y187684D01*
X491265Y187409D01*
X493693D01*
Y189838D01*
D02*
G37*
G36*
X361090Y186134D02*
Y182665D01*
X364559D01*
X364488Y183210D01*
X364085Y184183D01*
X363443Y185018D01*
X362608Y185659D01*
X361635Y186062D01*
X361090Y186134D01*
D02*
G37*
G36*
X426527Y194382D02*
X423562D01*
X423617Y193968D01*
X423969Y193117D01*
X424530Y192386D01*
X425261Y191825D01*
X426113Y191472D01*
X426527Y191418D01*
Y194382D01*
D02*
G37*
G36*
X529323Y196153D02*
X526895D01*
X526931Y195879D01*
X527230Y195157D01*
X527706Y194536D01*
X528326Y194061D01*
X529048Y193761D01*
X529323Y193725D01*
Y196153D01*
D02*
G37*
G36*
X430491Y194382D02*
X427527D01*
Y191418D01*
X427940Y191472D01*
X428792Y191825D01*
X429523Y192386D01*
X430084Y193117D01*
X430437Y193968D01*
X430491Y194382D01*
D02*
G37*
G36*
X341090Y186134D02*
Y182665D01*
X344559D01*
X344488Y183210D01*
X344085Y184183D01*
X343443Y185018D01*
X342608Y185659D01*
X341635Y186062D01*
X341090Y186134D01*
D02*
G37*
G36*
X340090D02*
X339546Y186062D01*
X338573Y185659D01*
X337738Y185018D01*
X337097Y184183D01*
X336694Y183210D01*
X336622Y182665D01*
X340090D01*
Y186134D01*
D02*
G37*
G36*
X350091D02*
X349546Y186062D01*
X348573Y185659D01*
X347738Y185018D01*
X347096Y184183D01*
X346693Y183210D01*
X346622Y182665D01*
X350091D01*
Y186134D01*
D02*
G37*
G36*
X360090D02*
X359546Y186062D01*
X358573Y185659D01*
X357738Y185018D01*
X357097Y184183D01*
X356694Y183210D01*
X356622Y182665D01*
X360090D01*
Y186134D01*
D02*
G37*
G36*
X351091D02*
Y182665D01*
X354559D01*
X354488Y183210D01*
X354084Y184183D01*
X353443Y185018D01*
X352608Y185659D01*
X351635Y186062D01*
X351091Y186134D01*
D02*
G37*
G36*
X590630Y180592D02*
X589621Y180459D01*
X588680Y180070D01*
X587873Y179450D01*
X587253Y178643D01*
X586863Y177702D01*
X586730Y176693D01*
X586863Y175684D01*
X587253Y174743D01*
X587873Y173935D01*
X588680Y173316D01*
X589621Y172926D01*
X590630Y172793D01*
X591639Y172926D01*
X592580Y173316D01*
X593387Y173935D01*
X594007Y174743D01*
X594397Y175684D01*
X594529Y176693D01*
X594397Y177702D01*
X594007Y178643D01*
X593387Y179450D01*
X592580Y180070D01*
X591639Y180459D01*
X590630Y180592D01*
D02*
G37*
G36*
X345091Y171665D02*
X341622D01*
X341693Y171121D01*
X342096Y170148D01*
X342738Y169313D01*
X343573Y168671D01*
X344546Y168268D01*
X345091Y168197D01*
Y171665D01*
D02*
G37*
G36*
X546130Y170662D02*
Y167193D01*
X549599D01*
X549527Y167737D01*
X549124Y168710D01*
X548483Y169546D01*
X547647Y170187D01*
X546674Y170590D01*
X546130Y170662D01*
D02*
G37*
G36*
X545130D02*
X544586Y170590D01*
X543613Y170187D01*
X542777Y169546D01*
X542136Y168710D01*
X541733Y167737D01*
X541661Y167193D01*
X545130D01*
Y170662D01*
D02*
G37*
G36*
X359559Y171665D02*
X356090D01*
Y168197D01*
X356635Y168268D01*
X357608Y168671D01*
X358443Y169313D01*
X359085Y170148D01*
X359488Y171121D01*
X359559Y171665D01*
D02*
G37*
G36*
X355090D02*
X351622D01*
X351694Y171121D01*
X352097Y170148D01*
X352738Y169313D01*
X353573Y168671D01*
X354546Y168268D01*
X355090Y168197D01*
Y171665D01*
D02*
G37*
G36*
X349559D02*
X346091D01*
Y168197D01*
X346635Y168268D01*
X347608Y168671D01*
X348443Y169313D01*
X349084Y170148D01*
X349488Y171121D01*
X349559Y171665D01*
D02*
G37*
G36*
X595630Y170592D02*
X594621Y170459D01*
X593680Y170070D01*
X592873Y169450D01*
X592253Y168643D01*
X591863Y167702D01*
X591730Y166693D01*
X591863Y165684D01*
X592253Y164743D01*
X592873Y163935D01*
X593680Y163316D01*
X594621Y162926D01*
X595630Y162793D01*
X596639Y162926D01*
X597580Y163316D01*
X598387Y163935D01*
X599007Y164743D01*
X599397Y165684D01*
X599529Y166693D01*
X599397Y167702D01*
X599007Y168643D01*
X598387Y169450D01*
X597580Y170070D01*
X596639Y170459D01*
X595630Y170592D01*
D02*
G37*
G36*
X585630D02*
X584621Y170459D01*
X583680Y170070D01*
X582873Y169450D01*
X582253Y168643D01*
X581863Y167702D01*
X581730Y166693D01*
X581863Y165684D01*
X582253Y164743D01*
X582873Y163935D01*
X583680Y163316D01*
X584621Y162926D01*
X585630Y162793D01*
X586639Y162926D01*
X587580Y163316D01*
X588387Y163935D01*
X589007Y164743D01*
X589397Y165684D01*
X589529Y166693D01*
X589397Y167702D01*
X589007Y168643D01*
X588387Y169450D01*
X587580Y170070D01*
X586639Y170459D01*
X585630Y170592D01*
D02*
G37*
G36*
X575630D02*
X574621Y170459D01*
X573680Y170070D01*
X572873Y169450D01*
X572253Y168643D01*
X571863Y167702D01*
X571730Y166693D01*
X571863Y165684D01*
X572253Y164743D01*
X572873Y163935D01*
X573680Y163316D01*
X574621Y162926D01*
X575630Y162793D01*
X576639Y162926D01*
X577580Y163316D01*
X578387Y163935D01*
X579007Y164743D01*
X579397Y165684D01*
X579529Y166693D01*
X579397Y167702D01*
X579007Y168643D01*
X578387Y169450D01*
X577580Y170070D01*
X576639Y170459D01*
X575630Y170592D01*
D02*
G37*
G36*
X491609Y169087D02*
X489181D01*
Y166658D01*
X489456Y166694D01*
X490178Y166994D01*
X490798Y167470D01*
X491274Y168090D01*
X491573Y168812D01*
X491609Y169087D01*
D02*
G37*
G36*
X535118Y173458D02*
X534121Y173327D01*
X533192Y172942D01*
X532395Y172330D01*
X531782Y171532D01*
X531397Y170603D01*
X531266Y169606D01*
X531397Y168609D01*
X531782Y167680D01*
X532395Y166883D01*
X533192Y166270D01*
X534121Y165886D01*
X535118Y165754D01*
X536115Y165886D01*
X537044Y166270D01*
X537842Y166883D01*
X538454Y167680D01*
X538839Y168609D01*
X538970Y169606D01*
X538839Y170603D01*
X538454Y171532D01*
X537842Y172330D01*
X537044Y172942D01*
X536115Y173327D01*
X535118Y173458D01*
D02*
G37*
G36*
X699213Y171183D02*
X698203Y171050D01*
X697263Y170660D01*
X696455Y170041D01*
X695835Y169233D01*
X695446Y168293D01*
X695313Y167283D01*
X695446Y166274D01*
X695835Y165334D01*
X696455Y164526D01*
X697263Y163906D01*
X698203Y163517D01*
X699213Y163384D01*
X700222Y163517D01*
X701162Y163906D01*
X701970Y164526D01*
X702590Y165334D01*
X702979Y166274D01*
X703112Y167283D01*
X702979Y168293D01*
X702590Y169233D01*
X701970Y170041D01*
X701162Y170660D01*
X700222Y171050D01*
X699213Y171183D01*
D02*
G37*
G36*
X550630Y180592D02*
X549621Y180459D01*
X548680Y180070D01*
X547873Y179450D01*
X547253Y178643D01*
X546863Y177702D01*
X546730Y176693D01*
X546863Y175684D01*
X547253Y174743D01*
X547873Y173935D01*
X548680Y173316D01*
X549621Y172926D01*
X550630Y172793D01*
X551639Y172926D01*
X552580Y173316D01*
X553387Y173935D01*
X554007Y174743D01*
X554397Y175684D01*
X554529Y176693D01*
X554397Y177702D01*
X554007Y178643D01*
X553387Y179450D01*
X552580Y180070D01*
X551639Y180459D01*
X550630Y180592D01*
D02*
G37*
G36*
X544599Y176193D02*
X541130D01*
Y172724D01*
X541674Y172796D01*
X542647Y173199D01*
X543483Y173840D01*
X544124Y174676D01*
X544527Y175649D01*
X544599Y176193D01*
D02*
G37*
G36*
X540130D02*
X536661D01*
X536733Y175649D01*
X537136Y174676D01*
X537777Y173840D01*
X538613Y173199D01*
X539586Y172796D01*
X540130Y172724D01*
Y176193D01*
D02*
G37*
G36*
X580630Y180592D02*
X579621Y180459D01*
X578680Y180070D01*
X577873Y179450D01*
X577253Y178643D01*
X576863Y177702D01*
X576730Y176693D01*
X576863Y175684D01*
X577253Y174743D01*
X577873Y173935D01*
X578680Y173316D01*
X579621Y172926D01*
X580630Y172793D01*
X581639Y172926D01*
X582580Y173316D01*
X583387Y173935D01*
X584007Y174743D01*
X584397Y175684D01*
X584529Y176693D01*
X584397Y177702D01*
X584007Y178643D01*
X583387Y179450D01*
X582580Y180070D01*
X581639Y180459D01*
X580630Y180592D01*
D02*
G37*
G36*
X570630D02*
X569621Y180459D01*
X568680Y180070D01*
X567873Y179450D01*
X567253Y178643D01*
X566863Y177702D01*
X566730Y176693D01*
X566863Y175684D01*
X567253Y174743D01*
X567873Y173935D01*
X568680Y173316D01*
X569621Y172926D01*
X570630Y172793D01*
X571639Y172926D01*
X572580Y173316D01*
X573387Y173935D01*
X574007Y174743D01*
X574397Y175684D01*
X574529Y176693D01*
X574397Y177702D01*
X574007Y178643D01*
X573387Y179450D01*
X572580Y180070D01*
X571639Y180459D01*
X570630Y180592D01*
D02*
G37*
G36*
X560630D02*
X559621Y180459D01*
X558680Y180070D01*
X557873Y179450D01*
X557253Y178643D01*
X556863Y177702D01*
X556730Y176693D01*
X556863Y175684D01*
X557253Y174743D01*
X557873Y173935D01*
X558680Y173316D01*
X559621Y172926D01*
X560630Y172793D01*
X561639Y172926D01*
X562580Y173316D01*
X563387Y173935D01*
X564007Y174743D01*
X564397Y175684D01*
X564529Y176693D01*
X564397Y177702D01*
X564007Y178643D01*
X563387Y179450D01*
X562580Y180070D01*
X561639Y180459D01*
X560630Y180592D01*
D02*
G37*
G36*
X345091Y176134D02*
X344546Y176062D01*
X343573Y175659D01*
X342738Y175018D01*
X342096Y174183D01*
X341693Y173210D01*
X341622Y172665D01*
X345091D01*
Y176134D01*
D02*
G37*
G36*
X335079Y178970D02*
X334082Y178839D01*
X333153Y178454D01*
X332355Y177842D01*
X331743Y177044D01*
X331358Y176115D01*
X331227Y175118D01*
X331358Y174121D01*
X331743Y173192D01*
X332355Y172395D01*
X333153Y171782D01*
X334082Y171397D01*
X335079Y171266D01*
X336076Y171397D01*
X337005Y171782D01*
X337802Y172395D01*
X338415Y173192D01*
X338799Y174121D01*
X338931Y175118D01*
X338799Y176115D01*
X338415Y177044D01*
X337802Y177842D01*
X337005Y178454D01*
X336076Y178839D01*
X335079Y178970D01*
D02*
G37*
G36*
X709213Y176183D02*
X708203Y176050D01*
X707263Y175661D01*
X706455Y175041D01*
X705835Y174233D01*
X705446Y173293D01*
X705313Y172283D01*
X705446Y171274D01*
X705835Y170334D01*
X706455Y169526D01*
X707263Y168906D01*
X708203Y168517D01*
X709213Y168384D01*
X710222Y168517D01*
X711162Y168906D01*
X711970Y169526D01*
X712590Y170334D01*
X712979Y171274D01*
X713112Y172283D01*
X712979Y173293D01*
X712590Y174233D01*
X711970Y175041D01*
X711162Y175661D01*
X710222Y176050D01*
X709213Y176183D01*
D02*
G37*
G36*
X356090Y176134D02*
Y172665D01*
X359559D01*
X359488Y173210D01*
X359085Y174183D01*
X358443Y175018D01*
X357608Y175659D01*
X356635Y176062D01*
X356090Y176134D01*
D02*
G37*
G36*
X355090D02*
X354546Y176062D01*
X353573Y175659D01*
X352738Y175018D01*
X352097Y174183D01*
X351694Y173210D01*
X351622Y172665D01*
X355090D01*
Y176134D01*
D02*
G37*
G36*
X346091D02*
Y172665D01*
X349559D01*
X349488Y173210D01*
X349084Y174183D01*
X348443Y175018D01*
X347608Y175659D01*
X346635Y176062D01*
X346091Y176134D01*
D02*
G37*
G36*
X702473Y225248D02*
X699004D01*
Y221779D01*
X699548Y221851D01*
X700521Y222254D01*
X701357Y222895D01*
X701998Y223731D01*
X702401Y224704D01*
X702473Y225248D01*
D02*
G37*
G36*
X698004D02*
X694535D01*
X694607Y224704D01*
X695010Y223731D01*
X695651Y222895D01*
X696487Y222254D01*
X697460Y221851D01*
X698004Y221779D01*
Y225248D01*
D02*
G37*
G36*
X692473D02*
X689004D01*
Y221779D01*
X689548Y221851D01*
X690521Y222254D01*
X691357Y222895D01*
X691998Y223731D01*
X692401Y224704D01*
X692473Y225248D01*
D02*
G37*
G36*
X689004Y229717D02*
Y226248D01*
X692473D01*
X692401Y226792D01*
X691998Y227765D01*
X691357Y228601D01*
X690521Y229242D01*
X689548Y229645D01*
X689004Y229717D01*
D02*
G37*
G36*
X688004D02*
X687460Y229645D01*
X686487Y229242D01*
X685651Y228601D01*
X685010Y227765D01*
X684607Y226792D01*
X684535Y226248D01*
X688004D01*
Y229717D01*
D02*
G37*
G36*
X420107Y225675D02*
Y223247D01*
X422535D01*
X422499Y223522D01*
X422200Y224244D01*
X421724Y224864D01*
X421104Y225340D01*
X420382Y225639D01*
X420107Y225675D01*
D02*
G37*
G36*
X422535Y222247D02*
X420107D01*
Y219819D01*
X420382Y219855D01*
X421104Y220154D01*
X421724Y220630D01*
X422200Y221250D01*
X422499Y221972D01*
X422535Y222247D01*
D02*
G37*
G36*
X709016Y226647D02*
X708019Y226516D01*
X707090Y226131D01*
X706292Y225519D01*
X705680Y224721D01*
X705295Y223792D01*
X705164Y222795D01*
X705295Y221798D01*
X705680Y220869D01*
X706292Y220072D01*
X707090Y219460D01*
X708019Y219075D01*
X709016Y218943D01*
X710013Y219075D01*
X710942Y219460D01*
X711739Y220072D01*
X712352Y220869D01*
X712736Y221798D01*
X712868Y222795D01*
X712736Y223792D01*
X712352Y224721D01*
X711739Y225519D01*
X710942Y226131D01*
X710013Y226516D01*
X709016Y226647D01*
D02*
G37*
G36*
X407272Y220940D02*
Y218512D01*
X409700D01*
X409664Y218787D01*
X409365Y219509D01*
X408889Y220129D01*
X408269Y220605D01*
X407547Y220904D01*
X407272Y220940D01*
D02*
G37*
G36*
X688004Y225248D02*
X684535D01*
X684607Y224704D01*
X685010Y223731D01*
X685651Y222895D01*
X686487Y222254D01*
X687460Y221851D01*
X688004Y221779D01*
Y225248D01*
D02*
G37*
G36*
X541248Y222854D02*
Y219890D01*
X544212D01*
X544158Y220303D01*
X543805Y221155D01*
X543244Y221886D01*
X542513Y222447D01*
X541662Y222800D01*
X541248Y222854D01*
D02*
G37*
G36*
X540248D02*
X539834Y222800D01*
X538983Y222447D01*
X538252Y221886D01*
X537691Y221155D01*
X537338Y220303D01*
X537284Y219890D01*
X540248D01*
Y222854D01*
D02*
G37*
G36*
X698004Y229717D02*
X697460Y229645D01*
X696487Y229242D01*
X695651Y228601D01*
X695010Y227765D01*
X694607Y226792D01*
X694535Y226248D01*
X698004D01*
Y229717D01*
D02*
G37*
G36*
X332520Y245376D02*
X331510Y245243D01*
X330570Y244853D01*
X329762Y244234D01*
X329143Y243426D01*
X328753Y242486D01*
X328620Y241476D01*
X328753Y240467D01*
X329143Y239527D01*
X329762Y238719D01*
X330570Y238099D01*
X331510Y237710D01*
X332520Y237577D01*
X333529Y237710D01*
X334469Y238099D01*
X335277Y238719D01*
X335897Y239527D01*
X336286Y240467D01*
X336419Y241476D01*
X336286Y242486D01*
X335897Y243426D01*
X335277Y244234D01*
X334469Y244853D01*
X333529Y245243D01*
X332520Y245376D01*
D02*
G37*
G36*
X515740Y236409D02*
X513312D01*
X513348Y236135D01*
X513647Y235412D01*
X514123Y234792D01*
X514743Y234316D01*
X515465Y234017D01*
X515740Y233981D01*
Y236409D01*
D02*
G37*
G36*
X540264Y235802D02*
Y233374D01*
X542692D01*
X542656Y233649D01*
X542357Y234371D01*
X541881Y234991D01*
X541261Y235467D01*
X540539Y235766D01*
X540264Y235802D01*
D02*
G37*
G36*
X663673Y248811D02*
X660709D01*
X660763Y248397D01*
X661116Y247546D01*
X661677Y246815D01*
X662408Y246254D01*
X663260Y245901D01*
X663673Y245847D01*
Y248811D01*
D02*
G37*
G36*
X523598Y247138D02*
X521169D01*
Y244709D01*
X521444Y244746D01*
X522166Y245045D01*
X522786Y245521D01*
X523262Y246141D01*
X523561Y246863D01*
X523598Y247138D01*
D02*
G37*
G36*
X520169D02*
X517741D01*
X517777Y246863D01*
X518076Y246141D01*
X518552Y245521D01*
X519172Y245045D01*
X519894Y244746D01*
X520169Y244709D01*
Y247138D01*
D02*
G37*
G36*
X556693Y235831D02*
X555953Y235734D01*
X555263Y235449D01*
X554671Y234994D01*
X554217Y234402D01*
X553931Y233712D01*
X553834Y232972D01*
X553931Y232232D01*
X554217Y231543D01*
X554671Y230951D01*
X555263Y230496D01*
X555953Y230211D01*
X556693Y230113D01*
X557433Y230211D01*
X557470Y230226D01*
X557954Y229742D01*
X557733Y229293D01*
X557382Y229339D01*
X556642Y229242D01*
X555952Y228956D01*
X555360Y228502D01*
X554906Y227910D01*
X554620Y227220D01*
X554523Y226480D01*
X554620Y225740D01*
X554906Y225051D01*
X555360Y224459D01*
X555952Y224004D01*
X556642Y223719D01*
X557382Y223621D01*
X558122Y223719D01*
X558811Y224004D01*
X559404Y224459D01*
X559858Y225051D01*
X559873Y225087D01*
X585738D01*
X602162Y208664D01*
X602036Y208359D01*
X601920Y207480D01*
X602036Y206602D01*
X602375Y205783D01*
X602914Y205080D01*
X603617Y204540D01*
X604436Y204201D01*
X605315Y204085D01*
X606194Y204201D01*
X607013Y204540D01*
X607716Y205080D01*
X608255Y205783D01*
X608595Y206602D01*
X608710Y207480D01*
X608595Y208359D01*
X608255Y209178D01*
X607716Y209881D01*
X607013Y210421D01*
X606194Y210760D01*
X605315Y210876D01*
X604436Y210760D01*
X604132Y210634D01*
X598608Y216157D01*
X598800Y216619D01*
X602248D01*
X602375Y216314D01*
X602914Y215611D01*
X603617Y215072D01*
X604436Y214732D01*
X605315Y214617D01*
X606194Y214732D01*
X607013Y215072D01*
X607716Y215611D01*
X608255Y216314D01*
X608595Y217133D01*
X608710Y218012D01*
X608595Y218891D01*
X608255Y219709D01*
X607716Y220413D01*
X607013Y220952D01*
X606194Y221291D01*
X605315Y221407D01*
X604436Y221291D01*
X603617Y220952D01*
X602914Y220413D01*
X602375Y219709D01*
X602248Y219405D01*
X597999D01*
X588073Y229331D01*
X587621Y229633D01*
X587088Y229739D01*
X561896D01*
X559439Y232196D01*
X559455Y232232D01*
X559552Y232972D01*
X559455Y233712D01*
X559169Y234402D01*
X558715Y234994D01*
X558122Y235449D01*
X557433Y235734D01*
X556693Y235831D01*
D02*
G37*
G36*
X332520Y235336D02*
X331510Y235204D01*
X330570Y234814D01*
X329762Y234194D01*
X329143Y233387D01*
X328753Y232446D01*
X328620Y231437D01*
X328753Y230428D01*
X329143Y229487D01*
X329762Y228680D01*
X330570Y228060D01*
X331510Y227670D01*
X332520Y227537D01*
X333529Y227670D01*
X334469Y228060D01*
X335277Y228680D01*
X335897Y229487D01*
X336286Y230428D01*
X336419Y231437D01*
X336286Y232446D01*
X335897Y233387D01*
X335277Y234194D01*
X334469Y234814D01*
X333529Y235204D01*
X332520Y235336D01*
D02*
G37*
G36*
X699004Y229717D02*
Y226248D01*
X702473D01*
X702401Y226792D01*
X701998Y227765D01*
X701357Y228601D01*
X700521Y229242D01*
X699548Y229645D01*
X699004Y229717D01*
D02*
G37*
G36*
X539264Y235802D02*
X538989Y235766D01*
X538267Y235467D01*
X537647Y234991D01*
X537171Y234371D01*
X536872Y233649D01*
X536835Y233374D01*
X539264D01*
Y235802D01*
D02*
G37*
G36*
X542692Y232374D02*
X540264D01*
Y229946D01*
X540539Y229982D01*
X541261Y230281D01*
X541881Y230757D01*
X542357Y231377D01*
X542656Y232099D01*
X542692Y232374D01*
D02*
G37*
G36*
X539264D02*
X536835D01*
X536872Y232099D01*
X537171Y231377D01*
X537647Y230757D01*
X538267Y230281D01*
X538989Y229982D01*
X539264Y229946D01*
Y232374D01*
D02*
G37*
G36*
X687473Y215248D02*
X684004D01*
Y211779D01*
X684548Y211851D01*
X685521Y212254D01*
X686357Y212895D01*
X686998Y213731D01*
X687401Y214704D01*
X687473Y215248D01*
D02*
G37*
G36*
X683004D02*
X679535D01*
X679607Y214704D01*
X680010Y213731D01*
X680651Y212895D01*
X681487Y212254D01*
X682460Y211851D01*
X683004Y211779D01*
Y215248D01*
D02*
G37*
G36*
X332520Y215061D02*
X331510Y214928D01*
X330570Y214539D01*
X329762Y213919D01*
X329143Y213111D01*
X328753Y212171D01*
X328620Y211161D01*
X328753Y210152D01*
X329143Y209212D01*
X329762Y208404D01*
X330570Y207784D01*
X331510Y207395D01*
X332520Y207262D01*
X333529Y207395D01*
X334469Y207784D01*
X335277Y208404D01*
X335897Y209212D01*
X336286Y210152D01*
X336419Y211161D01*
X336286Y212171D01*
X335897Y213111D01*
X335277Y213919D01*
X334469Y214539D01*
X333529Y214928D01*
X332520Y215061D01*
D02*
G37*
G36*
X703004Y215248D02*
X699535D01*
X699607Y214704D01*
X700010Y213731D01*
X700651Y212895D01*
X701487Y212254D01*
X702460Y211851D01*
X703004Y211779D01*
Y215248D01*
D02*
G37*
G36*
X697473D02*
X694004D01*
Y211779D01*
X694548Y211851D01*
X695521Y212254D01*
X696357Y212895D01*
X696998Y213731D01*
X697401Y214704D01*
X697473Y215248D01*
D02*
G37*
G36*
X693004D02*
X689535D01*
X689607Y214704D01*
X690010Y213731D01*
X690651Y212895D01*
X691487Y212254D01*
X692460Y211851D01*
X693004Y211779D01*
Y215248D01*
D02*
G37*
G36*
X427527Y198346D02*
Y195382D01*
X430491D01*
X430437Y195796D01*
X430084Y196647D01*
X429523Y197378D01*
X428792Y197939D01*
X427940Y198292D01*
X427527Y198346D01*
D02*
G37*
G36*
X426527D02*
X426113Y198292D01*
X425261Y197939D01*
X424530Y197378D01*
X423969Y196647D01*
X423617Y195796D01*
X423562Y195382D01*
X426527D01*
Y198346D01*
D02*
G37*
G36*
X532751Y196153D02*
X530323D01*
Y193725D01*
X530598Y193761D01*
X531320Y194061D01*
X531940Y194536D01*
X532416Y195157D01*
X532715Y195879D01*
X532751Y196153D01*
D02*
G37*
G36*
X406110Y207106D02*
Y204142D01*
X409075D01*
X409020Y204555D01*
X408668Y205407D01*
X408107Y206138D01*
X407375Y206699D01*
X406524Y207052D01*
X406110Y207106D01*
D02*
G37*
G36*
X332520Y205022D02*
X331510Y204889D01*
X330570Y204499D01*
X329762Y203879D01*
X329143Y203072D01*
X328753Y202131D01*
X328620Y201122D01*
X328753Y200113D01*
X329143Y199172D01*
X329762Y198365D01*
X330570Y197745D01*
X331510Y197355D01*
X332520Y197223D01*
X333529Y197355D01*
X334469Y197745D01*
X335277Y198365D01*
X335897Y199172D01*
X336286Y200113D01*
X336419Y201122D01*
X336286Y202131D01*
X335897Y203072D01*
X335277Y203879D01*
X334469Y204499D01*
X333529Y204889D01*
X332520Y205022D01*
D02*
G37*
G36*
X530323Y199582D02*
Y197153D01*
X532751D01*
X532715Y197429D01*
X532416Y198151D01*
X531940Y198771D01*
X531320Y199247D01*
X530598Y199546D01*
X530323Y199582D01*
D02*
G37*
G36*
X707473Y215248D02*
X704004D01*
Y211779D01*
X704548Y211851D01*
X705521Y212254D01*
X706357Y212895D01*
X706998Y213731D01*
X707401Y214704D01*
X707473Y215248D01*
D02*
G37*
G36*
X703004Y219717D02*
X702460Y219645D01*
X701487Y219242D01*
X700651Y218601D01*
X700010Y217765D01*
X699607Y216792D01*
X699535Y216248D01*
X703004D01*
Y219717D01*
D02*
G37*
G36*
X694004D02*
Y216248D01*
X697473D01*
X697401Y216792D01*
X696998Y217765D01*
X696357Y218601D01*
X695521Y219242D01*
X694548Y219645D01*
X694004Y219717D01*
D02*
G37*
G36*
X693004D02*
X692460Y219645D01*
X691487Y219242D01*
X690651Y218601D01*
X690010Y217765D01*
X689607Y216792D01*
X689535Y216248D01*
X693004D01*
Y219717D01*
D02*
G37*
G36*
X406272Y220940D02*
X405997Y220904D01*
X405275Y220605D01*
X404655Y220129D01*
X404179Y219509D01*
X403880Y218787D01*
X403843Y218512D01*
X406272D01*
Y220940D01*
D02*
G37*
G36*
X332520Y225199D02*
X331510Y225066D01*
X330570Y224676D01*
X329762Y224057D01*
X329143Y223249D01*
X328753Y222308D01*
X328620Y221299D01*
X328753Y220290D01*
X329143Y219350D01*
X329762Y218542D01*
X330570Y217922D01*
X331510Y217533D01*
X332520Y217400D01*
X333529Y217533D01*
X334469Y217922D01*
X335277Y218542D01*
X335897Y219350D01*
X336286Y220290D01*
X336419Y221299D01*
X336286Y222308D01*
X335897Y223249D01*
X335277Y224057D01*
X334469Y224676D01*
X333529Y225066D01*
X332520Y225199D01*
D02*
G37*
G36*
X704004Y219717D02*
Y216248D01*
X707473D01*
X707401Y216792D01*
X706998Y217765D01*
X706357Y218601D01*
X705521Y219242D01*
X704548Y219645D01*
X704004Y219717D01*
D02*
G37*
G36*
X540248Y218890D02*
X537284D01*
X537338Y218476D01*
X537691Y217625D01*
X538252Y216894D01*
X538983Y216333D01*
X539834Y215980D01*
X540248Y215925D01*
Y218890D01*
D02*
G37*
G36*
X409700Y217512D02*
X407272D01*
Y215084D01*
X407547Y215120D01*
X408269Y215419D01*
X408889Y215895D01*
X409365Y216515D01*
X409664Y217237D01*
X409700Y217512D01*
D02*
G37*
G36*
X406272D02*
X403843D01*
X403880Y217237D01*
X404179Y216515D01*
X404655Y215895D01*
X405275Y215419D01*
X405997Y215120D01*
X406272Y215084D01*
Y217512D01*
D02*
G37*
G36*
X684004Y219717D02*
Y216248D01*
X687473D01*
X687401Y216792D01*
X686998Y217765D01*
X686357Y218601D01*
X685521Y219242D01*
X684548Y219645D01*
X684004Y219717D01*
D02*
G37*
G36*
X683004D02*
X682460Y219645D01*
X681487Y219242D01*
X680651Y218601D01*
X680010Y217765D01*
X679607Y216792D01*
X679535Y216248D01*
X683004D01*
Y219717D01*
D02*
G37*
G36*
X544212Y218890D02*
X541248D01*
Y215925D01*
X541662Y215980D01*
X542513Y216333D01*
X543244Y216894D01*
X543805Y217625D01*
X544158Y218476D01*
X544212Y218890D01*
D02*
G37*
G36*
X565630Y170592D02*
X564621Y170459D01*
X563680Y170070D01*
X562873Y169450D01*
X562253Y168643D01*
X561863Y167702D01*
X561730Y166693D01*
X561863Y165684D01*
X562253Y164743D01*
X562873Y163935D01*
X563680Y163316D01*
X564621Y162926D01*
X565630Y162793D01*
X566639Y162926D01*
X567580Y163316D01*
X568387Y163935D01*
X569007Y164743D01*
X569397Y165684D01*
X569529Y166693D01*
X569397Y167702D01*
X569007Y168643D01*
X568387Y169450D01*
X567580Y170070D01*
X566639Y170459D01*
X565630Y170592D01*
D02*
G37*
G36*
X698004Y87965D02*
X694535D01*
X694607Y87420D01*
X695010Y86447D01*
X695651Y85612D01*
X696487Y84971D01*
X697460Y84567D01*
X698004Y84496D01*
Y87965D01*
D02*
G37*
G36*
X692473D02*
X689004D01*
Y84496D01*
X689548Y84567D01*
X690521Y84971D01*
X691357Y85612D01*
X691998Y86447D01*
X692401Y87420D01*
X692473Y87965D01*
D02*
G37*
G36*
X688004D02*
X684535D01*
X684607Y87420D01*
X685010Y86447D01*
X685651Y85612D01*
X686487Y84971D01*
X687460Y84567D01*
X688004Y84496D01*
Y87965D01*
D02*
G37*
G36*
X503925Y88063D02*
Y84595D01*
X507394D01*
X507322Y85139D01*
X506919Y86112D01*
X506278Y86947D01*
X505442Y87589D01*
X504469Y87991D01*
X503925Y88063D01*
D02*
G37*
G36*
X502925D02*
X502381Y87991D01*
X501408Y87589D01*
X500572Y86947D01*
X499931Y86112D01*
X499528Y85139D01*
X499457Y84595D01*
X502925D01*
Y88063D01*
D02*
G37*
G36*
X702473Y87965D02*
X699004D01*
Y84496D01*
X699548Y84567D01*
X700521Y84971D01*
X701357Y85612D01*
X701998Y86447D01*
X702401Y87420D01*
X702473Y87965D01*
D02*
G37*
G36*
X576417Y90387D02*
X575421Y90256D01*
X574492Y89871D01*
X573694Y89259D01*
X573082Y88461D01*
X572697Y87532D01*
X572566Y86535D01*
X572697Y85539D01*
X573082Y84610D01*
X573694Y83812D01*
X574492Y83200D01*
X575421Y82815D01*
X576417Y82684D01*
X577414Y82815D01*
X578343Y83200D01*
X579141Y83812D01*
X579753Y84610D01*
X580138Y85539D01*
X580269Y86535D01*
X580138Y87532D01*
X579753Y88461D01*
X579141Y89259D01*
X578343Y89871D01*
X577414Y90256D01*
X576417Y90387D01*
D02*
G37*
G36*
X566417D02*
X565420Y90256D01*
X564492Y89871D01*
X563694Y89259D01*
X563082Y88461D01*
X562697Y87532D01*
X562566Y86535D01*
X562697Y85539D01*
X563082Y84610D01*
X563694Y83812D01*
X564492Y83200D01*
X565420Y82815D01*
X566417Y82684D01*
X567414Y82815D01*
X568343Y83200D01*
X569141Y83812D01*
X569753Y84610D01*
X570138Y85539D01*
X570269Y86535D01*
X570138Y87532D01*
X569753Y88461D01*
X569141Y89259D01*
X568343Y89871D01*
X567414Y90256D01*
X566417Y90387D01*
D02*
G37*
G36*
X610338Y86035D02*
X606917D01*
Y82614D01*
X607449Y82684D01*
X608411Y83083D01*
X609236Y83716D01*
X609870Y84542D01*
X610268Y85504D01*
X610338Y86035D01*
D02*
G37*
G36*
X620236Y90354D02*
X612599D01*
Y82717D01*
X620236D01*
Y90354D01*
D02*
G37*
G36*
X596417Y90387D02*
X595421Y90256D01*
X594491Y89871D01*
X593694Y89259D01*
X593082Y88461D01*
X592697Y87532D01*
X592566Y86535D01*
X592697Y85539D01*
X593082Y84610D01*
X593694Y83812D01*
X594491Y83200D01*
X595421Y82815D01*
X596417Y82684D01*
X597414Y82815D01*
X598343Y83200D01*
X599141Y83812D01*
X599753Y84610D01*
X600138Y85539D01*
X600269Y86535D01*
X600138Y87532D01*
X599753Y88461D01*
X599141Y89259D01*
X598343Y89871D01*
X597414Y90256D01*
X596417Y90387D01*
D02*
G37*
G36*
X586417D02*
X585421Y90256D01*
X584491Y89871D01*
X583694Y89259D01*
X583082Y88461D01*
X582697Y87532D01*
X582566Y86535D01*
X582697Y85539D01*
X583082Y84610D01*
X583694Y83812D01*
X584491Y83200D01*
X585421Y82815D01*
X586417Y82684D01*
X587414Y82815D01*
X588343Y83200D01*
X589141Y83812D01*
X589753Y84610D01*
X590138Y85539D01*
X590269Y86535D01*
X590138Y87532D01*
X589753Y88461D01*
X589141Y89259D01*
X588343Y89871D01*
X587414Y90256D01*
X586417Y90387D01*
D02*
G37*
G36*
X348976Y92679D02*
X347967Y92546D01*
X347027Y92157D01*
X346219Y91537D01*
X345599Y90729D01*
X345210Y89789D01*
X345077Y88779D01*
X345210Y87770D01*
X345599Y86830D01*
X346219Y86022D01*
X347027Y85403D01*
X347967Y85013D01*
X348976Y84880D01*
X349986Y85013D01*
X350926Y85403D01*
X351734Y86022D01*
X352354Y86830D01*
X352743Y87770D01*
X352876Y88779D01*
X352743Y89789D01*
X352354Y90729D01*
X351734Y91537D01*
X350926Y92157D01*
X349986Y92546D01*
X348976Y92679D01*
D02*
G37*
G36*
X699004Y92433D02*
Y88965D01*
X702473D01*
X702401Y89509D01*
X701998Y90482D01*
X701357Y91317D01*
X700521Y91959D01*
X699548Y92362D01*
X699004Y92433D01*
D02*
G37*
G36*
X698004D02*
X697460Y92362D01*
X696487Y91959D01*
X695651Y91317D01*
X695010Y90482D01*
X694607Y89509D01*
X694535Y88965D01*
X698004D01*
Y92433D01*
D02*
G37*
G36*
X689004D02*
Y88965D01*
X692473D01*
X692401Y89509D01*
X691998Y90482D01*
X691357Y91317D01*
X690521Y91959D01*
X689548Y92362D01*
X689004Y92433D01*
D02*
G37*
G36*
X448425Y97994D02*
X447416Y97861D01*
X446476Y97472D01*
X445668Y96852D01*
X445048Y96044D01*
X444659Y95104D01*
X444526Y94095D01*
X444659Y93085D01*
X445048Y92145D01*
X445668Y91337D01*
X446476Y90717D01*
X447416Y90328D01*
X448425Y90195D01*
X449435Y90328D01*
X450375Y90717D01*
X451183Y91337D01*
X451802Y92145D01*
X452192Y93085D01*
X452325Y94095D01*
X452192Y95104D01*
X451802Y96044D01*
X451183Y96852D01*
X450375Y97472D01*
X449435Y97861D01*
X448425Y97994D01*
D02*
G37*
G36*
X502394Y93594D02*
X498925D01*
Y90126D01*
X499469Y90197D01*
X500443Y90601D01*
X501278Y91242D01*
X501919Y92077D01*
X502322Y93050D01*
X502394Y93594D01*
D02*
G37*
G36*
X497925D02*
X494456D01*
X494528Y93050D01*
X494931Y92077D01*
X495572Y91242D01*
X496408Y90601D01*
X497381Y90197D01*
X497925Y90126D01*
Y93594D01*
D02*
G37*
G36*
X402264Y92523D02*
X401576Y92432D01*
X400934Y92166D01*
X400383Y91743D01*
X399960Y91193D01*
X399694Y90551D01*
X399604Y89862D01*
X399694Y89174D01*
X399960Y88532D01*
X400383Y87981D01*
X400934Y87558D01*
X401576Y87292D01*
X402264Y87202D01*
X402953Y87292D01*
X403594Y87558D01*
X404145Y87981D01*
X404568Y88532D01*
X404834Y89174D01*
X404925Y89862D01*
X404834Y90551D01*
X404568Y91193D01*
X404145Y91743D01*
X403594Y92166D01*
X402953Y92432D01*
X402264Y92523D01*
D02*
G37*
G36*
X606917Y90456D02*
Y87035D01*
X610338D01*
X610268Y87567D01*
X609870Y88529D01*
X609236Y89354D01*
X608411Y89988D01*
X607449Y90386D01*
X606917Y90456D01*
D02*
G37*
G36*
X605917D02*
X605385Y90386D01*
X604424Y89988D01*
X603598Y89354D01*
X602965Y88529D01*
X602566Y87567D01*
X602496Y87035D01*
X605917D01*
Y90456D01*
D02*
G37*
G36*
X688004Y92433D02*
X687460Y92362D01*
X686487Y91959D01*
X685651Y91317D01*
X685010Y90482D01*
X684607Y89509D01*
X684535Y88965D01*
X688004D01*
Y92433D01*
D02*
G37*
G36*
X508937Y95033D02*
X507940Y94902D01*
X507011Y94517D01*
X506213Y93905D01*
X505601Y93107D01*
X505216Y92178D01*
X505085Y91181D01*
X505216Y90184D01*
X505601Y89255D01*
X506213Y88457D01*
X507011Y87845D01*
X507940Y87461D01*
X508937Y87329D01*
X509934Y87461D01*
X510863Y87845D01*
X511661Y88457D01*
X512273Y89255D01*
X512658Y90184D01*
X512789Y91181D01*
X512658Y92178D01*
X512273Y93107D01*
X511661Y93905D01*
X510863Y94517D01*
X509934Y94902D01*
X508937Y95033D01*
D02*
G37*
G36*
X418918Y98479D02*
X418039Y98363D01*
X417220Y98024D01*
X416517Y97484D01*
X415978Y96781D01*
X415852Y96476D01*
X345280D01*
X344747Y96370D01*
X344295Y96068D01*
X340543Y92316D01*
X339986Y92546D01*
X338976Y92679D01*
X337967Y92546D01*
X337027Y92157D01*
X336219Y91537D01*
X335599Y90729D01*
X335210Y89789D01*
X335077Y88779D01*
X335210Y87770D01*
X335599Y86830D01*
X336219Y86022D01*
X337027Y85403D01*
X337967Y85013D01*
X338976Y84880D01*
X339986Y85013D01*
X340926Y85403D01*
X341734Y86022D01*
X342354Y86830D01*
X342743Y87770D01*
X342876Y88779D01*
X342743Y89789D01*
X342512Y90346D01*
X345857Y93691D01*
X415852D01*
X415978Y93386D01*
X416517Y92683D01*
X417220Y92143D01*
X417442Y92052D01*
X417571Y91568D01*
X417282Y91193D01*
X417017Y90551D01*
X416926Y89862D01*
X417017Y89174D01*
X417282Y88532D01*
X417705Y87981D01*
X418256Y87558D01*
X418898Y87292D01*
X419587Y87202D01*
X420275Y87292D01*
X420917Y87558D01*
X421468Y87981D01*
X421891Y88532D01*
X422156Y89174D01*
X422247Y89862D01*
X422156Y90551D01*
X421891Y91193D01*
X421468Y91743D01*
X421107Y92020D01*
Y92520D01*
X421319Y92683D01*
X421858Y93386D01*
X422198Y94205D01*
X422313Y95083D01*
X422198Y95962D01*
X421858Y96781D01*
X421319Y97484D01*
X420616Y98024D01*
X419797Y98363D01*
X418918Y98479D01*
D02*
G37*
G36*
X333465Y85545D02*
X332468Y85413D01*
X331539Y85029D01*
X330741Y84417D01*
X330129Y83619D01*
X329744Y82690D01*
X329613Y81693D01*
X329744Y80696D01*
X330129Y79767D01*
X330741Y78969D01*
X331539Y78357D01*
X332468Y77972D01*
X333465Y77841D01*
X334461Y77972D01*
X335390Y78357D01*
X336188Y78969D01*
X336800Y79767D01*
X337185Y80696D01*
X337316Y81693D01*
X337185Y82690D01*
X336800Y83619D01*
X336188Y84417D01*
X335390Y85029D01*
X334461Y85413D01*
X333465Y85545D01*
D02*
G37*
G36*
X353976Y82679D02*
X352967Y82546D01*
X352027Y82157D01*
X351219Y81537D01*
X350599Y80729D01*
X350210Y79789D01*
X350077Y78780D01*
X350210Y77770D01*
X350599Y76830D01*
X351219Y76022D01*
X352027Y75402D01*
X352967Y75013D01*
X353976Y74880D01*
X354986Y75013D01*
X355926Y75402D01*
X356734Y76022D01*
X357353Y76830D01*
X357743Y77770D01*
X357876Y78780D01*
X357743Y79789D01*
X357353Y80729D01*
X356734Y81537D01*
X355926Y82157D01*
X354986Y82546D01*
X353976Y82679D01*
D02*
G37*
G36*
X347945Y78280D02*
X344476D01*
Y74811D01*
X345021Y74883D01*
X345994Y75286D01*
X346829Y75927D01*
X347470Y76762D01*
X347873Y77735D01*
X347945Y78280D01*
D02*
G37*
G36*
X694004Y82433D02*
Y78965D01*
X697473D01*
X697401Y79509D01*
X696998Y80482D01*
X696357Y81317D01*
X695521Y81959D01*
X694548Y82362D01*
X694004Y82433D01*
D02*
G37*
G36*
X693004D02*
X692460Y82362D01*
X691487Y81959D01*
X690651Y81317D01*
X690010Y80482D01*
X689607Y79509D01*
X689535Y78965D01*
X693004D01*
Y82433D01*
D02*
G37*
G36*
X684004D02*
Y78965D01*
X687473D01*
X687401Y79509D01*
X686998Y80482D01*
X686357Y81317D01*
X685521Y81959D01*
X684548Y82362D01*
X684004Y82433D01*
D02*
G37*
G36*
X697473Y77965D02*
X694004D01*
Y74496D01*
X694548Y74568D01*
X695521Y74971D01*
X696357Y75612D01*
X696998Y76447D01*
X697401Y77420D01*
X697473Y77965D01*
D02*
G37*
G36*
X693004D02*
X689535D01*
X689607Y77420D01*
X690010Y76447D01*
X690651Y75612D01*
X691487Y74971D01*
X692460Y74568D01*
X693004Y74496D01*
Y77965D01*
D02*
G37*
G36*
X687473D02*
X684004D01*
Y74496D01*
X684548Y74568D01*
X685521Y74971D01*
X686357Y75612D01*
X686998Y76447D01*
X687401Y77420D01*
X687473Y77965D01*
D02*
G37*
G36*
X343476Y78280D02*
X340008D01*
X340079Y77735D01*
X340482Y76762D01*
X341124Y75927D01*
X341959Y75286D01*
X342932Y74883D01*
X343476Y74811D01*
Y78280D01*
D02*
G37*
G36*
X707473Y77965D02*
X704004D01*
Y74496D01*
X704548Y74568D01*
X705521Y74971D01*
X706357Y75612D01*
X706998Y76447D01*
X707401Y77420D01*
X707473Y77965D01*
D02*
G37*
G36*
X703004D02*
X699535D01*
X699607Y77420D01*
X700010Y76447D01*
X700651Y75612D01*
X701487Y74971D01*
X702460Y74568D01*
X703004Y74496D01*
Y77965D01*
D02*
G37*
G36*
Y82433D02*
X702460Y82362D01*
X701487Y81959D01*
X700651Y81317D01*
X700010Y80482D01*
X699607Y79509D01*
X699535Y78965D01*
X703004D01*
Y82433D01*
D02*
G37*
G36*
X483425Y87994D02*
X482416Y87861D01*
X481475Y87472D01*
X480668Y86852D01*
X480048Y86044D01*
X479659Y85104D01*
X479526Y84095D01*
X479659Y83085D01*
X480048Y82145D01*
X480668Y81337D01*
X481475Y80717D01*
X482416Y80328D01*
X483425Y80195D01*
X484435Y80328D01*
X485375Y80717D01*
X486183Y81337D01*
X486802Y82145D01*
X487192Y83085D01*
X487325Y84095D01*
X487192Y85104D01*
X486802Y86044D01*
X486183Y86852D01*
X485375Y87472D01*
X484435Y87861D01*
X483425Y87994D01*
D02*
G37*
G36*
X473425D02*
X472416Y87861D01*
X471476Y87472D01*
X470668Y86852D01*
X470048Y86044D01*
X469659Y85104D01*
X469526Y84095D01*
X469659Y83085D01*
X470048Y82145D01*
X470668Y81337D01*
X471476Y80717D01*
X472416Y80328D01*
X473425Y80195D01*
X474435Y80328D01*
X475375Y80717D01*
X476183Y81337D01*
X476802Y82145D01*
X477192Y83085D01*
X477325Y84095D01*
X477192Y85104D01*
X476802Y86044D01*
X476183Y86852D01*
X475375Y87472D01*
X474435Y87861D01*
X473425Y87994D01*
D02*
G37*
G36*
X463425D02*
X462416Y87861D01*
X461476Y87472D01*
X460668Y86852D01*
X460048Y86044D01*
X459659Y85104D01*
X459526Y84095D01*
X459659Y83085D01*
X460048Y82145D01*
X460668Y81337D01*
X461476Y80717D01*
X462416Y80328D01*
X463425Y80195D01*
X464434Y80328D01*
X465375Y80717D01*
X466183Y81337D01*
X466802Y82145D01*
X467192Y83085D01*
X467325Y84095D01*
X467192Y85104D01*
X466802Y86044D01*
X466183Y86852D01*
X465375Y87472D01*
X464434Y87861D01*
X463425Y87994D01*
D02*
G37*
G36*
X605917Y86035D02*
X602496D01*
X602566Y85504D01*
X602965Y84542D01*
X603598Y83716D01*
X604424Y83083D01*
X605385Y82684D01*
X605917Y82614D01*
Y86035D01*
D02*
G37*
G36*
X709016Y89364D02*
X708019Y89232D01*
X707090Y88848D01*
X706292Y88235D01*
X705680Y87438D01*
X705295Y86509D01*
X705164Y85512D01*
X705295Y84515D01*
X705680Y83586D01*
X706292Y82788D01*
X707090Y82176D01*
X708019Y81791D01*
X709016Y81660D01*
X710013Y81791D01*
X710942Y82176D01*
X711739Y82788D01*
X712352Y83586D01*
X712736Y84515D01*
X712868Y85512D01*
X712736Y86509D01*
X712352Y87438D01*
X711739Y88235D01*
X710942Y88848D01*
X710013Y89232D01*
X709016Y89364D01*
D02*
G37*
G36*
X493425Y87994D02*
X492416Y87861D01*
X491475Y87472D01*
X490668Y86852D01*
X490048Y86044D01*
X489659Y85104D01*
X489526Y84095D01*
X489659Y83085D01*
X490048Y82145D01*
X490668Y81337D01*
X491475Y80717D01*
X492416Y80328D01*
X493425Y80195D01*
X494434Y80328D01*
X495375Y80717D01*
X496183Y81337D01*
X496802Y82145D01*
X497192Y83085D01*
X497325Y84095D01*
X497192Y85104D01*
X496802Y86044D01*
X496183Y86852D01*
X495375Y87472D01*
X494434Y87861D01*
X493425Y87994D01*
D02*
G37*
G36*
X344476Y82748D02*
Y79280D01*
X347945D01*
X347873Y79824D01*
X347470Y80797D01*
X346829Y81632D01*
X345994Y82274D01*
X345021Y82677D01*
X344476Y82748D01*
D02*
G37*
G36*
X343476D02*
X342932Y82677D01*
X341959Y82274D01*
X341124Y81632D01*
X340482Y80797D01*
X340079Y79824D01*
X340008Y79280D01*
X343476D01*
Y82748D01*
D02*
G37*
G36*
X704004Y82433D02*
Y78965D01*
X707473D01*
X707401Y79509D01*
X706998Y80482D01*
X706357Y81317D01*
X705521Y81959D01*
X704548Y82362D01*
X704004Y82433D01*
D02*
G37*
G36*
X453425Y87994D02*
X452416Y87861D01*
X451475Y87472D01*
X450668Y86852D01*
X450048Y86044D01*
X449659Y85104D01*
X449526Y84095D01*
X449659Y83085D01*
X450048Y82145D01*
X450668Y81337D01*
X451475Y80717D01*
X452416Y80328D01*
X453425Y80195D01*
X454434Y80328D01*
X455375Y80717D01*
X456183Y81337D01*
X456802Y82145D01*
X457192Y83085D01*
X457325Y84095D01*
X457192Y85104D01*
X456802Y86044D01*
X456183Y86852D01*
X455375Y87472D01*
X454434Y87861D01*
X453425Y87994D01*
D02*
G37*
G36*
X507394Y83595D02*
X503925D01*
Y80126D01*
X504469Y80197D01*
X505442Y80601D01*
X506278Y81242D01*
X506919Y82077D01*
X507322Y83050D01*
X507394Y83595D01*
D02*
G37*
G36*
X502925D02*
X499457D01*
X499528Y83050D01*
X499931Y82077D01*
X500572Y81242D01*
X501408Y80601D01*
X502381Y80197D01*
X502925Y80126D01*
Y83595D01*
D02*
G37*
G36*
X482598Y151370D02*
X479634D01*
Y148406D01*
X480048Y148460D01*
X480899Y148813D01*
X481630Y149374D01*
X482191Y150105D01*
X482544Y150956D01*
X482598Y151370D01*
D02*
G37*
G36*
X706299Y155623D02*
X705302Y155492D01*
X704373Y155107D01*
X703576Y154495D01*
X702963Y153698D01*
X702579Y152769D01*
X702447Y151772D01*
X702579Y150775D01*
X702963Y149846D01*
X703576Y149048D01*
X704373Y148436D01*
X705302Y148051D01*
X706299Y147920D01*
X707296Y148051D01*
X708225Y148436D01*
X709023Y149048D01*
X709635Y149846D01*
X710020Y150775D01*
X710151Y151772D01*
X710020Y152769D01*
X709635Y153698D01*
X709023Y154495D01*
X708225Y155107D01*
X707296Y155492D01*
X706299Y155623D01*
D02*
G37*
G36*
X346563Y143622D02*
Y140657D01*
X349527D01*
X349473Y141071D01*
X349120Y141923D01*
X348559Y142654D01*
X347828Y143215D01*
X346977Y143567D01*
X346563Y143622D01*
D02*
G37*
G36*
X440740Y156319D02*
X440326Y156264D01*
X439475Y155912D01*
X438744Y155351D01*
X438183Y154619D01*
X437830Y153768D01*
X437776Y153354D01*
X440740D01*
Y156319D01*
D02*
G37*
G36*
X444704Y152354D02*
X441740D01*
Y149390D01*
X442154Y149444D01*
X443005Y149797D01*
X443736Y150358D01*
X444297Y151089D01*
X444650Y151941D01*
X444704Y152354D01*
D02*
G37*
G36*
X440740D02*
X437776D01*
X437830Y151941D01*
X438183Y151089D01*
X438744Y150358D01*
X439475Y149797D01*
X440326Y149444D01*
X440740Y149390D01*
Y152354D01*
D02*
G37*
G36*
X349527Y139657D02*
X346563D01*
Y136693D01*
X346977Y136748D01*
X347828Y137100D01*
X348559Y137661D01*
X349120Y138392D01*
X349473Y139244D01*
X349527Y139657D01*
D02*
G37*
G36*
X345563D02*
X342599D01*
X342653Y139244D01*
X343006Y138392D01*
X343567Y137661D01*
X344298Y137100D01*
X345149Y136748D01*
X345563Y136693D01*
Y139657D01*
D02*
G37*
G36*
X673838Y137984D02*
X670874D01*
Y135020D01*
X671288Y135074D01*
X672139Y135427D01*
X672870Y135988D01*
X673431Y136719D01*
X673784Y137571D01*
X673838Y137984D01*
D02*
G37*
G36*
X345563Y143622D02*
X345149Y143567D01*
X344298Y143215D01*
X343567Y142654D01*
X343006Y141923D01*
X342653Y141071D01*
X342599Y140657D01*
X345563D01*
Y143622D01*
D02*
G37*
G36*
X670874Y141949D02*
Y138984D01*
X673838D01*
X673784Y139398D01*
X673431Y140249D01*
X672870Y140981D01*
X672139Y141542D01*
X671288Y141894D01*
X670874Y141949D01*
D02*
G37*
G36*
X669874D02*
X669460Y141894D01*
X668609Y141542D01*
X667878Y140981D01*
X667317Y140249D01*
X666964Y139398D01*
X666910Y138984D01*
X669874D01*
Y141949D01*
D02*
G37*
G36*
X441740Y156319D02*
Y153354D01*
X444704D01*
X444650Y153768D01*
X444297Y154619D01*
X443736Y155351D01*
X443005Y155912D01*
X442154Y156264D01*
X441740Y156319D01*
D02*
G37*
G36*
X549599Y166193D02*
X546130D01*
Y162724D01*
X546674Y162796D01*
X547647Y163199D01*
X548483Y163840D01*
X549124Y164676D01*
X549527Y165649D01*
X549599Y166193D01*
D02*
G37*
G36*
X545130D02*
X541661D01*
X541733Y165649D01*
X542136Y164676D01*
X542777Y163840D01*
X543613Y163199D01*
X544586Y162796D01*
X545130Y162724D01*
Y166193D01*
D02*
G37*
G36*
X713181Y161784D02*
X709713D01*
Y158315D01*
X710257Y158386D01*
X711230Y158790D01*
X712065Y159431D01*
X712707Y160266D01*
X713110Y161239D01*
X713181Y161784D01*
D02*
G37*
G36*
X555630Y170592D02*
X554621Y170459D01*
X553680Y170070D01*
X552873Y169450D01*
X552253Y168643D01*
X551863Y167702D01*
X551730Y166693D01*
X551863Y165684D01*
X552253Y164743D01*
X552873Y163935D01*
X553680Y163316D01*
X554621Y162926D01*
X555630Y162793D01*
X556639Y162926D01*
X557580Y163316D01*
X558387Y163935D01*
X559007Y164743D01*
X559397Y165684D01*
X559529Y166693D01*
X559397Y167702D01*
X559007Y168643D01*
X558387Y169450D01*
X557580Y170070D01*
X556639Y170459D01*
X555630Y170592D01*
D02*
G37*
G36*
X709713Y166252D02*
Y162784D01*
X713181D01*
X713110Y163328D01*
X712707Y164301D01*
X712065Y165136D01*
X711230Y165778D01*
X710257Y166181D01*
X709713Y166252D01*
D02*
G37*
G36*
X708713D02*
X708168Y166181D01*
X707195Y165778D01*
X706360Y165136D01*
X705719Y164301D01*
X705315Y163328D01*
X705244Y162784D01*
X708713D01*
Y166252D01*
D02*
G37*
G36*
X564488Y156980D02*
X561524D01*
Y154016D01*
X561937Y154070D01*
X562789Y154423D01*
X563520Y154984D01*
X564081Y155715D01*
X564433Y156567D01*
X564488Y156980D01*
D02*
G37*
G36*
X560524D02*
X557559D01*
X557614Y156567D01*
X557966Y155715D01*
X558527Y154984D01*
X559259Y154423D01*
X560110Y154070D01*
X560524Y154016D01*
Y156980D01*
D02*
G37*
G36*
X699213Y161183D02*
X698203Y161050D01*
X697263Y160661D01*
X696455Y160041D01*
X695835Y159233D01*
X695446Y158293D01*
X695313Y157283D01*
X695446Y156274D01*
X695835Y155334D01*
X696455Y154526D01*
X697263Y153906D01*
X698203Y153517D01*
X699213Y153384D01*
X700222Y153517D01*
X701162Y153906D01*
X701970Y154526D01*
X702590Y155334D01*
X702979Y156274D01*
X703112Y157283D01*
X702979Y158293D01*
X702590Y159233D01*
X701970Y160041D01*
X701162Y160661D01*
X700222Y161050D01*
X699213Y161183D01*
D02*
G37*
G36*
X708713Y161784D02*
X705244D01*
X705315Y161239D01*
X705719Y160266D01*
X706360Y159431D01*
X707195Y158790D01*
X708168Y158386D01*
X708713Y158315D01*
Y161784D01*
D02*
G37*
G36*
X561524Y160945D02*
Y157980D01*
X564488D01*
X564433Y158394D01*
X564081Y159245D01*
X563520Y159976D01*
X562789Y160538D01*
X561937Y160890D01*
X561524Y160945D01*
D02*
G37*
G36*
X560524D02*
X560110Y160890D01*
X559259Y160538D01*
X558527Y159976D01*
X557966Y159245D01*
X557614Y158394D01*
X557559Y157980D01*
X560524D01*
Y160945D01*
D02*
G37*
G36*
X372925Y107992D02*
X372512Y107938D01*
X371660Y107585D01*
X370929Y107024D01*
X370368Y106293D01*
X370015Y105441D01*
X369961Y105028D01*
X372925D01*
Y107992D01*
D02*
G37*
G36*
X376890Y104028D02*
X373925D01*
Y101063D01*
X374339Y101118D01*
X375190Y101470D01*
X375921Y102031D01*
X376482Y102762D01*
X376835Y103614D01*
X376890Y104028D01*
D02*
G37*
G36*
X372925D02*
X369961D01*
X370015Y103614D01*
X370368Y102762D01*
X370929Y102031D01*
X371660Y101470D01*
X372512Y101118D01*
X372925Y101063D01*
Y104028D01*
D02*
G37*
G36*
X475763Y107866D02*
X473335D01*
Y105438D01*
X473610Y105474D01*
X474332Y105773D01*
X474952Y106249D01*
X475428Y106869D01*
X475727Y107591D01*
X475763Y107866D01*
D02*
G37*
G36*
X472335D02*
X469906D01*
X469943Y107591D01*
X470242Y106869D01*
X470717Y106249D01*
X471338Y105773D01*
X472060Y105474D01*
X472335Y105438D01*
Y107866D01*
D02*
G37*
G36*
X373925Y107992D02*
Y105028D01*
X376890D01*
X376835Y105441D01*
X376482Y106293D01*
X375921Y107024D01*
X375190Y107585D01*
X374339Y107938D01*
X373925Y107992D01*
D02*
G37*
G36*
X478425Y97994D02*
X477416Y97861D01*
X476475Y97472D01*
X475668Y96852D01*
X475048Y96044D01*
X474659Y95104D01*
X474526Y94095D01*
X474659Y93085D01*
X475048Y92145D01*
X475668Y91337D01*
X476475Y90717D01*
X477416Y90328D01*
X478425Y90195D01*
X479434Y90328D01*
X480375Y90717D01*
X481183Y91337D01*
X481802Y92145D01*
X482192Y93085D01*
X482325Y94095D01*
X482192Y95104D01*
X481802Y96044D01*
X481183Y96852D01*
X480375Y97472D01*
X479434Y97861D01*
X478425Y97994D01*
D02*
G37*
G36*
X468425D02*
X467416Y97861D01*
X466475Y97472D01*
X465668Y96852D01*
X465048Y96044D01*
X464659Y95104D01*
X464526Y94095D01*
X464659Y93085D01*
X465048Y92145D01*
X465668Y91337D01*
X466475Y90717D01*
X467416Y90328D01*
X468425Y90195D01*
X469434Y90328D01*
X470375Y90717D01*
X471183Y91337D01*
X471802Y92145D01*
X472192Y93085D01*
X472325Y94095D01*
X472192Y95104D01*
X471802Y96044D01*
X471183Y96852D01*
X470375Y97472D01*
X469434Y97861D01*
X468425Y97994D01*
D02*
G37*
G36*
X458425D02*
X457416Y97861D01*
X456475Y97472D01*
X455668Y96852D01*
X455048Y96044D01*
X454659Y95104D01*
X454526Y94095D01*
X454659Y93085D01*
X455048Y92145D01*
X455668Y91337D01*
X456475Y90717D01*
X457416Y90328D01*
X458425Y90195D01*
X459435Y90328D01*
X460375Y90717D01*
X461183Y91337D01*
X461802Y92145D01*
X462192Y93085D01*
X462325Y94095D01*
X462192Y95104D01*
X461802Y96044D01*
X461183Y96852D01*
X460375Y97472D01*
X459435Y97861D01*
X458425Y97994D01*
D02*
G37*
G36*
X498925Y98063D02*
Y94595D01*
X502394D01*
X502322Y95139D01*
X501919Y96112D01*
X501278Y96947D01*
X500443Y97588D01*
X499469Y97992D01*
X498925Y98063D01*
D02*
G37*
G36*
X497925D02*
X497381Y97992D01*
X496408Y97588D01*
X495572Y96947D01*
X494931Y96112D01*
X494528Y95139D01*
X494456Y94595D01*
X497925D01*
Y98063D01*
D02*
G37*
G36*
X488425Y97994D02*
X487416Y97861D01*
X486476Y97472D01*
X485668Y96852D01*
X485048Y96044D01*
X484659Y95104D01*
X484526Y94095D01*
X484659Y93085D01*
X485048Y92145D01*
X485668Y91337D01*
X486476Y90717D01*
X487416Y90328D01*
X488425Y90195D01*
X489434Y90328D01*
X490375Y90717D01*
X491183Y91337D01*
X491802Y92145D01*
X492192Y93085D01*
X492325Y94095D01*
X492192Y95104D01*
X491802Y96044D01*
X491183Y96852D01*
X490375Y97472D01*
X489434Y97861D01*
X488425Y97994D01*
D02*
G37*
G36*
X348909Y114854D02*
X342520D01*
X342604Y114001D01*
X342999Y112699D01*
X343640Y111499D01*
X344503Y110448D01*
X345554Y109585D01*
X346754Y108944D01*
X348056Y108549D01*
X348909Y108465D01*
Y114854D01*
D02*
G37*
G36*
X394480Y126255D02*
X394205Y126219D01*
X393483Y125920D01*
X392863Y125444D01*
X392387Y124824D01*
X392088Y124102D01*
X392052Y123827D01*
X394480D01*
Y126255D01*
D02*
G37*
G36*
X397909Y122827D02*
X395480D01*
Y120398D01*
X395755Y120435D01*
X396477Y120734D01*
X397097Y121210D01*
X397573Y121830D01*
X397872Y122552D01*
X397909Y122827D01*
D02*
G37*
G36*
X394480D02*
X392052D01*
X392088Y122552D01*
X392387Y121830D01*
X392863Y121210D01*
X393483Y120734D01*
X394205Y120435D01*
X394480Y120398D01*
Y122827D01*
D02*
G37*
G36*
X669874Y137984D02*
X666910D01*
X666964Y137571D01*
X667317Y136719D01*
X667878Y135988D01*
X668609Y135427D01*
X669460Y135074D01*
X669874Y135020D01*
Y137984D01*
D02*
G37*
G36*
X363502Y158127D02*
X362623Y158011D01*
X361804Y157672D01*
X361101Y157133D01*
X360562Y156430D01*
X360223Y155611D01*
X360107Y154732D01*
X360223Y153853D01*
X360349Y153549D01*
X358830Y152030D01*
X358528Y151578D01*
X358422Y151045D01*
Y147218D01*
X358528Y146685D01*
X358830Y146233D01*
X361095Y143968D01*
X361095Y143968D01*
X361095D01*
X361095Y143968D01*
X361095D01*
X361095Y143968D01*
Y143968D01*
Y143968D01*
D01*
D01*
X361095D01*
Y143968D01*
X361547Y143666D01*
X362080Y143560D01*
X362130D01*
X380094Y125595D01*
Y123846D01*
X380014Y123812D01*
X379311Y123273D01*
X378771Y122570D01*
X378432Y121751D01*
X378316Y120872D01*
X378432Y119993D01*
X378771Y119174D01*
X379311Y118471D01*
X380014Y117932D01*
X380833Y117593D01*
X381712Y117477D01*
X382590Y117593D01*
X383409Y117932D01*
X384112Y118471D01*
X384652Y119174D01*
X384991Y119993D01*
X385107Y120872D01*
X384991Y121751D01*
X384921Y121920D01*
X385225Y122317D01*
X385353Y122300D01*
X386232Y122416D01*
X387051Y122755D01*
X387754Y123294D01*
X388294Y123997D01*
X388633Y124816D01*
X388749Y125695D01*
X388700Y126065D01*
X389054Y126419D01*
X389684Y126336D01*
X390563Y126451D01*
X391382Y126790D01*
X392085Y127330D01*
X392625Y128033D01*
X392964Y128852D01*
X393080Y129731D01*
X392964Y130610D01*
X392625Y131428D01*
X392085Y132132D01*
X391382Y132671D01*
X390563Y133010D01*
X389684Y133126D01*
X388806Y133010D01*
X388708Y132970D01*
X388311Y133274D01*
X388336Y133465D01*
X388220Y134343D01*
X387881Y135162D01*
X387342Y135865D01*
X386638Y136405D01*
X385820Y136744D01*
X384941Y136860D01*
X384062Y136744D01*
X383757Y136618D01*
X377950Y142425D01*
X378199Y143026D01*
X378315Y143905D01*
X378199Y144783D01*
X377860Y145602D01*
X377321Y146305D01*
X376618Y146845D01*
X375799Y147184D01*
X374920Y147300D01*
X374359Y147226D01*
X374055Y147623D01*
X374146Y147842D01*
X374261Y148721D01*
X374146Y149599D01*
X373807Y150418D01*
X373267Y151121D01*
X372564Y151661D01*
X371745Y152000D01*
X370866Y152116D01*
X369987Y152000D01*
X369168Y151661D01*
X368465Y151121D01*
X367926Y150418D01*
X367587Y149599D01*
X367530Y149170D01*
X367030D01*
X366961Y149698D01*
X366621Y150516D01*
X366082Y151220D01*
X365594Y151594D01*
X365594Y152094D01*
X365903Y152331D01*
X366442Y153034D01*
X366781Y153853D01*
X366897Y154732D01*
X366781Y155611D01*
X366442Y156430D01*
X365903Y157133D01*
X365200Y157672D01*
X364381Y158011D01*
X363502Y158127D01*
D02*
G37*
G36*
X395480Y126255D02*
Y123827D01*
X397909D01*
X397872Y124102D01*
X397573Y124824D01*
X397097Y125444D01*
X396477Y125920D01*
X395755Y126219D01*
X395480Y126255D01*
D02*
G37*
G36*
X472335Y111294D02*
X472060Y111258D01*
X471338Y110959D01*
X470717Y110483D01*
X470242Y109863D01*
X469943Y109141D01*
X469906Y108866D01*
X472335D01*
Y111294D01*
D02*
G37*
G36*
X694685Y122159D02*
X693358Y122028D01*
X692081Y121641D01*
X690905Y121012D01*
X689874Y120166D01*
X689027Y119135D01*
X688399Y117958D01*
X688011Y116682D01*
X687881Y115354D01*
X688011Y114027D01*
X688399Y112750D01*
X689027Y111574D01*
X689874Y110543D01*
X690905Y109697D01*
X692081Y109068D01*
X693358Y108681D01*
X694685Y108550D01*
X696012Y108681D01*
X697289Y109068D01*
X698465Y109697D01*
X699497Y110543D01*
X700343Y111574D01*
X700972Y112750D01*
X701359Y114027D01*
X701489Y115354D01*
X701359Y116682D01*
X700972Y117958D01*
X700343Y119135D01*
X699497Y120166D01*
X698465Y121012D01*
X697289Y121641D01*
X696012Y122028D01*
X694685Y122159D01*
D02*
G37*
G36*
X356299Y114854D02*
X349909D01*
Y108465D01*
X350763Y108549D01*
X352065Y108944D01*
X353264Y109585D01*
X354316Y110448D01*
X355179Y111499D01*
X355820Y112699D01*
X356215Y114001D01*
X356299Y114854D01*
D02*
G37*
G36*
X349909Y122244D02*
Y115854D01*
X356299D01*
X356215Y116708D01*
X355820Y118010D01*
X355179Y119209D01*
X354316Y120261D01*
X353264Y121124D01*
X352065Y121765D01*
X350763Y122160D01*
X349909Y122244D01*
D02*
G37*
G36*
X348909D02*
X348056Y122160D01*
X346754Y121765D01*
X345554Y121124D01*
X344503Y120261D01*
X343640Y119209D01*
X342999Y118010D01*
X342604Y116708D01*
X342520Y115854D01*
X348909D01*
Y122244D01*
D02*
G37*
G36*
X473335Y111294D02*
Y108866D01*
X475763D01*
X475727Y109141D01*
X475428Y109863D01*
X474952Y110483D01*
X474332Y110959D01*
X473610Y111258D01*
X473335Y111294D01*
D02*
G37*
G36*
X667638Y248811D02*
X664673D01*
Y245847D01*
X665087Y245901D01*
X665938Y246254D01*
X666670Y246815D01*
X667231Y247546D01*
X667583Y248397D01*
X667638Y248811D01*
D02*
G37*
G36*
X335524Y412913D02*
X335110Y412859D01*
X334259Y412506D01*
X333527Y411945D01*
X332966Y411214D01*
X332614Y410362D01*
X332559Y409949D01*
X335524D01*
Y412913D01*
D02*
G37*
G36*
X339488Y408949D02*
X336524D01*
Y405984D01*
X336937Y406039D01*
X337789Y406392D01*
X338520Y406953D01*
X339081Y407684D01*
X339434Y408535D01*
X339488Y408949D01*
D02*
G37*
G36*
X335524D02*
X332559D01*
X332614Y408535D01*
X332966Y407684D01*
X333527Y406953D01*
X334259Y406392D01*
X335110Y406039D01*
X335524Y405984D01*
Y408949D01*
D02*
G37*
G36*
X356299Y420366D02*
X349909D01*
Y413976D01*
X350763Y414060D01*
X352065Y414455D01*
X353264Y415097D01*
X354316Y415960D01*
X355179Y417011D01*
X355820Y418211D01*
X356215Y419512D01*
X356299Y420366D01*
D02*
G37*
G36*
X348909D02*
X342520D01*
X342604Y419512D01*
X342999Y418211D01*
X343640Y417011D01*
X344503Y415960D01*
X345554Y415097D01*
X346754Y414455D01*
X348056Y414060D01*
X348909Y413976D01*
Y420366D01*
D02*
G37*
G36*
X336524Y412913D02*
Y409949D01*
X339488D01*
X339434Y410362D01*
X339081Y411214D01*
X338520Y411945D01*
X337789Y412506D01*
X336937Y412859D01*
X336524Y412913D01*
D02*
G37*
G36*
X701764Y401961D02*
X698799D01*
X698854Y401547D01*
X699206Y400696D01*
X699768Y399964D01*
X700499Y399403D01*
X701350Y399051D01*
X701764Y398996D01*
Y401961D01*
D02*
G37*
G36*
X498925Y373536D02*
Y370067D01*
X502394D01*
X502322Y370611D01*
X501919Y371584D01*
X501278Y372420D01*
X500443Y373061D01*
X499469Y373464D01*
X498925Y373536D01*
D02*
G37*
G36*
X497925D02*
X497381Y373464D01*
X496408Y373061D01*
X495572Y372420D01*
X494931Y371584D01*
X494528Y370611D01*
X494456Y370067D01*
X497925D01*
Y373536D01*
D02*
G37*
G36*
X702764Y405925D02*
Y402961D01*
X705728D01*
X705674Y403374D01*
X705321Y404226D01*
X704760Y404957D01*
X704029Y405518D01*
X703177Y405870D01*
X702764Y405925D01*
D02*
G37*
G36*
X701764D02*
X701350Y405870D01*
X700499Y405518D01*
X699768Y404957D01*
X699206Y404226D01*
X698854Y403374D01*
X698799Y402961D01*
X701764D01*
Y405925D01*
D02*
G37*
G36*
X705728Y401961D02*
X702764D01*
Y398996D01*
X703177Y399051D01*
X704029Y399403D01*
X704760Y399964D01*
X705321Y400696D01*
X705674Y401547D01*
X705728Y401961D01*
D02*
G37*
G36*
X694185Y420366D02*
X687795D01*
X687879Y419512D01*
X688274Y418211D01*
X688915Y417011D01*
X689779Y415960D01*
X690830Y415097D01*
X692030Y414455D01*
X693331Y414060D01*
X694185Y413976D01*
Y420366D01*
D02*
G37*
G36*
X520689Y443398D02*
X517724D01*
Y440433D01*
X518138Y440488D01*
X518990Y440840D01*
X519721Y441401D01*
X520282Y442133D01*
X520634Y442984D01*
X520689Y443398D01*
D02*
G37*
G36*
X516724D02*
X513760D01*
X513814Y442984D01*
X514167Y442133D01*
X514728Y441401D01*
X515459Y440840D01*
X516311Y440488D01*
X516724Y440433D01*
Y443398D01*
D02*
G37*
G36*
X696457Y445041D02*
X695447Y444908D01*
X694507Y444519D01*
X693699Y443899D01*
X693080Y443091D01*
X692690Y442151D01*
X692557Y441142D01*
X692690Y440133D01*
X693080Y439192D01*
X693699Y438384D01*
X694507Y437765D01*
X695447Y437375D01*
X696457Y437242D01*
X697466Y437375D01*
X698406Y437765D01*
X699214Y438384D01*
X699834Y439192D01*
X700223Y440133D01*
X700356Y441142D01*
X700223Y442151D01*
X699834Y443091D01*
X699214Y443899D01*
X698406Y444519D01*
X697466Y444908D01*
X696457Y445041D01*
D02*
G37*
G36*
X345091Y447256D02*
X341622D01*
X341694Y446712D01*
X342097Y445739D01*
X342738Y444903D01*
X343573Y444262D01*
X344546Y443859D01*
X345091Y443787D01*
Y447256D01*
D02*
G37*
G36*
X710425Y445642D02*
X706957D01*
Y442173D01*
X707501Y442245D01*
X708474Y442648D01*
X709309Y443289D01*
X709951Y444125D01*
X710354Y445097D01*
X710425Y445642D01*
D02*
G37*
G36*
X705957D02*
X702488D01*
X702560Y445097D01*
X702963Y444125D01*
X703604Y443289D01*
X704439Y442648D01*
X705412Y442245D01*
X705957Y442173D01*
Y445642D01*
D02*
G37*
G36*
X349909Y427756D02*
Y421366D01*
X356299D01*
X356215Y422220D01*
X355820Y423522D01*
X355179Y424721D01*
X354316Y425773D01*
X353264Y426636D01*
X352065Y427277D01*
X350763Y427672D01*
X349909Y427756D01*
D02*
G37*
G36*
X348909D02*
X348056Y427672D01*
X346754Y427277D01*
X345554Y426636D01*
X344503Y425773D01*
X343640Y424721D01*
X342999Y423522D01*
X342604Y422220D01*
X342520Y421366D01*
X348909D01*
Y427756D01*
D02*
G37*
G36*
X701575Y420366D02*
X695185D01*
Y413976D01*
X696039Y414060D01*
X697340Y414455D01*
X698540Y415097D01*
X699592Y415960D01*
X700455Y417011D01*
X701096Y418211D01*
X701491Y419512D01*
X701575Y420366D01*
D02*
G37*
G36*
X703543Y439482D02*
X702546Y439351D01*
X701617Y438966D01*
X700820Y438354D01*
X700208Y437556D01*
X699823Y436627D01*
X699691Y435630D01*
X699823Y434633D01*
X700208Y433704D01*
X700820Y432906D01*
X701617Y432294D01*
X702546Y431909D01*
X703543Y431778D01*
X704540Y431909D01*
X705469Y432294D01*
X706267Y432906D01*
X706879Y433704D01*
X707264Y434633D01*
X707395Y435630D01*
X707264Y436627D01*
X706879Y437556D01*
X706267Y438354D01*
X705469Y438966D01*
X704540Y439351D01*
X703543Y439482D01*
D02*
G37*
G36*
X695185Y427756D02*
Y421366D01*
X701575D01*
X701491Y422220D01*
X701096Y423522D01*
X700455Y424721D01*
X699592Y425773D01*
X698540Y426636D01*
X697340Y427277D01*
X696039Y427672D01*
X695185Y427756D01*
D02*
G37*
G36*
X694185D02*
X693331Y427672D01*
X692030Y427277D01*
X690830Y426636D01*
X689779Y425773D01*
X688915Y424721D01*
X688274Y423522D01*
X687879Y422220D01*
X687795Y421366D01*
X694185D01*
Y427756D01*
D02*
G37*
G36*
X503925Y363536D02*
Y360067D01*
X507394D01*
X507322Y360611D01*
X506919Y361584D01*
X506278Y362420D01*
X505442Y363061D01*
X504469Y363464D01*
X503925Y363536D01*
D02*
G37*
G36*
X502925D02*
X502381Y363464D01*
X501408Y363061D01*
X500572Y362420D01*
X499931Y361584D01*
X499528Y360611D01*
X499457Y360067D01*
X502925D01*
Y363536D01*
D02*
G37*
G36*
X708898Y364994D02*
X707901Y364862D01*
X706972Y364477D01*
X706174Y363865D01*
X705562Y363068D01*
X705177Y362139D01*
X705046Y361142D01*
X705177Y360145D01*
X705562Y359216D01*
X706174Y358418D01*
X706972Y357806D01*
X707901Y357421D01*
X708898Y357290D01*
X709895Y357421D01*
X710824Y357806D01*
X711621Y358418D01*
X712233Y359216D01*
X712618Y360145D01*
X712749Y361142D01*
X712618Y362139D01*
X712233Y363068D01*
X711621Y363865D01*
X710824Y364477D01*
X709895Y364862D01*
X708898Y364994D01*
D02*
G37*
G36*
X697886Y363595D02*
X694417D01*
X694489Y363050D01*
X694892Y362077D01*
X695533Y361242D01*
X696369Y360600D01*
X697342Y360197D01*
X697886Y360126D01*
Y363595D01*
D02*
G37*
G36*
X692354D02*
X688886D01*
Y360126D01*
X689430Y360197D01*
X690403Y360600D01*
X691239Y361242D01*
X691880Y362077D01*
X692283Y363050D01*
X692354Y363595D01*
D02*
G37*
G36*
X687886D02*
X684417D01*
X684489Y363050D01*
X684892Y362077D01*
X685533Y361242D01*
X686369Y360600D01*
X687342Y360197D01*
X687886Y360126D01*
Y363595D01*
D02*
G37*
G36*
X483425Y363467D02*
X482416Y363334D01*
X481475Y362944D01*
X480668Y362324D01*
X480048Y361517D01*
X479659Y360576D01*
X479526Y359567D01*
X479659Y358558D01*
X480048Y357617D01*
X480668Y356810D01*
X481475Y356190D01*
X482416Y355800D01*
X483425Y355667D01*
X484435Y355800D01*
X485375Y356190D01*
X486183Y356810D01*
X486802Y357617D01*
X487192Y358558D01*
X487325Y359567D01*
X487192Y360576D01*
X486802Y361517D01*
X486183Y362324D01*
X485375Y362944D01*
X484435Y363334D01*
X483425Y363467D01*
D02*
G37*
G36*
X473425D02*
X472416Y363334D01*
X471476Y362944D01*
X470668Y362324D01*
X470048Y361517D01*
X469659Y360576D01*
X469526Y359567D01*
X469659Y358558D01*
X470048Y357617D01*
X470668Y356810D01*
X471476Y356190D01*
X472416Y355800D01*
X473425Y355667D01*
X474435Y355800D01*
X475375Y356190D01*
X476183Y356810D01*
X476802Y357617D01*
X477192Y358558D01*
X477325Y359567D01*
X477192Y360576D01*
X476802Y361517D01*
X476183Y362324D01*
X475375Y362944D01*
X474435Y363334D01*
X473425Y363467D01*
D02*
G37*
G36*
X463425D02*
X462416Y363334D01*
X461476Y362944D01*
X460668Y362324D01*
X460048Y361517D01*
X459659Y360576D01*
X459526Y359567D01*
X459659Y358558D01*
X460048Y357617D01*
X460668Y356810D01*
X461476Y356190D01*
X462416Y355800D01*
X463425Y355667D01*
X464434Y355800D01*
X465375Y356190D01*
X466183Y356810D01*
X466802Y357617D01*
X467192Y358558D01*
X467325Y359567D01*
X467192Y360576D01*
X466802Y361517D01*
X466183Y362324D01*
X465375Y362944D01*
X464434Y363334D01*
X463425Y363467D01*
D02*
G37*
G36*
X414378Y359776D02*
Y356307D01*
X417847D01*
X417775Y356851D01*
X417372Y357824D01*
X416731Y358660D01*
X415895Y359301D01*
X414922Y359704D01*
X414378Y359776D01*
D02*
G37*
G36*
X413378D02*
X412834Y359704D01*
X411861Y359301D01*
X411025Y358660D01*
X410384Y357824D01*
X409981Y356851D01*
X409909Y356307D01*
X413378D01*
Y359776D01*
D02*
G37*
G36*
X493425Y363467D02*
X492416Y363334D01*
X491475Y362944D01*
X490668Y362324D01*
X490048Y361517D01*
X489659Y360576D01*
X489526Y359567D01*
X489659Y358558D01*
X490048Y357617D01*
X490668Y356810D01*
X491475Y356190D01*
X492416Y355800D01*
X493425Y355667D01*
X494434Y355800D01*
X495375Y356190D01*
X496183Y356810D01*
X496802Y357617D01*
X497192Y358558D01*
X497325Y359567D01*
X497192Y360576D01*
X496802Y361517D01*
X496183Y362324D01*
X495375Y362944D01*
X494434Y363334D01*
X493425Y363467D01*
D02*
G37*
G36*
X702354Y363595D02*
X698886D01*
Y360126D01*
X699430Y360197D01*
X700403Y360600D01*
X701239Y361242D01*
X701880Y362077D01*
X702283Y363050D01*
X702354Y363595D01*
D02*
G37*
G36*
X458425Y373466D02*
X457416Y373334D01*
X456475Y372944D01*
X455668Y372324D01*
X455048Y371517D01*
X454659Y370576D01*
X454526Y369567D01*
X454659Y368558D01*
X455048Y367617D01*
X455668Y366810D01*
X456475Y366190D01*
X457416Y365800D01*
X458425Y365668D01*
X459435Y365800D01*
X460375Y366190D01*
X461183Y366810D01*
X461802Y367617D01*
X462192Y368558D01*
X462325Y369567D01*
X462192Y370576D01*
X461802Y371517D01*
X461183Y372324D01*
X460375Y372944D01*
X459435Y373334D01*
X458425Y373466D01*
D02*
G37*
G36*
X448425D02*
X447416Y373334D01*
X446476Y372944D01*
X445668Y372324D01*
X445048Y371517D01*
X444659Y370576D01*
X444526Y369567D01*
X444659Y368558D01*
X445048Y367617D01*
X445668Y366810D01*
X446476Y366190D01*
X447416Y365800D01*
X448425Y365668D01*
X449435Y365800D01*
X450375Y366190D01*
X451183Y366810D01*
X451802Y367617D01*
X452192Y368558D01*
X452325Y369567D01*
X452192Y370576D01*
X451802Y371517D01*
X451183Y372324D01*
X450375Y372944D01*
X449435Y373334D01*
X448425Y373466D01*
D02*
G37*
G36*
X502394Y369067D02*
X498925D01*
Y365598D01*
X499469Y365670D01*
X500443Y366073D01*
X501278Y366714D01*
X501919Y367550D01*
X502322Y368523D01*
X502394Y369067D01*
D02*
G37*
G36*
X488425Y373466D02*
X487416Y373334D01*
X486476Y372944D01*
X485668Y372324D01*
X485048Y371517D01*
X484659Y370576D01*
X484526Y369567D01*
X484659Y368558D01*
X485048Y367617D01*
X485668Y366810D01*
X486476Y366190D01*
X487416Y365800D01*
X488425Y365668D01*
X489434Y365800D01*
X490375Y366190D01*
X491183Y366810D01*
X491802Y367617D01*
X492192Y368558D01*
X492325Y369567D01*
X492192Y370576D01*
X491802Y371517D01*
X491183Y372324D01*
X490375Y372944D01*
X489434Y373334D01*
X488425Y373466D01*
D02*
G37*
G36*
X478425D02*
X477416Y373334D01*
X476475Y372944D01*
X475668Y372324D01*
X475048Y371517D01*
X474659Y370576D01*
X474526Y369567D01*
X474659Y368558D01*
X475048Y367617D01*
X475668Y366810D01*
X476475Y366190D01*
X477416Y365800D01*
X478425Y365668D01*
X479434Y365800D01*
X480375Y366190D01*
X481183Y366810D01*
X481802Y367617D01*
X482192Y368558D01*
X482325Y369567D01*
X482192Y370576D01*
X481802Y371517D01*
X481183Y372324D01*
X480375Y372944D01*
X479434Y373334D01*
X478425Y373466D01*
D02*
G37*
G36*
X468425D02*
X467416Y373334D01*
X466475Y372944D01*
X465668Y372324D01*
X465048Y371517D01*
X464659Y370576D01*
X464526Y369567D01*
X464659Y368558D01*
X465048Y367617D01*
X465668Y366810D01*
X466475Y366190D01*
X467416Y365800D01*
X468425Y365668D01*
X469434Y365800D01*
X470375Y366190D01*
X471183Y366810D01*
X471802Y367617D01*
X472192Y368558D01*
X472325Y369567D01*
X472192Y370576D01*
X471802Y371517D01*
X471183Y372324D01*
X470375Y372944D01*
X469434Y373334D01*
X468425Y373466D01*
D02*
G37*
G36*
X688886Y368063D02*
Y364595D01*
X692354D01*
X692283Y365139D01*
X691880Y366112D01*
X691239Y366947D01*
X690403Y367588D01*
X689430Y367991D01*
X688886Y368063D01*
D02*
G37*
G36*
X687886D02*
X687342Y367991D01*
X686369Y367588D01*
X685533Y366947D01*
X684892Y366112D01*
X684489Y365139D01*
X684417Y364595D01*
X687886D01*
Y368063D01*
D02*
G37*
G36*
X508937Y370505D02*
X507940Y370374D01*
X507011Y369989D01*
X506213Y369377D01*
X505601Y368580D01*
X505216Y367651D01*
X505085Y366654D01*
X505216Y365657D01*
X505601Y364728D01*
X506213Y363930D01*
X507011Y363318D01*
X507940Y362933D01*
X508937Y362802D01*
X509934Y362933D01*
X510863Y363318D01*
X511661Y363930D01*
X512273Y364728D01*
X512658Y365657D01*
X512789Y366654D01*
X512658Y367651D01*
X512273Y368580D01*
X511661Y369377D01*
X510863Y369989D01*
X509934Y370374D01*
X508937Y370505D01*
D02*
G37*
G36*
X497925Y369067D02*
X494456D01*
X494528Y368523D01*
X494931Y367550D01*
X495572Y366714D01*
X496408Y366073D01*
X497381Y365670D01*
X497925Y365598D01*
Y369067D01*
D02*
G37*
G36*
X698886Y368063D02*
Y364595D01*
X702354D01*
X702283Y365139D01*
X701880Y366112D01*
X701239Y366947D01*
X700403Y367588D01*
X699430Y367991D01*
X698886Y368063D01*
D02*
G37*
G36*
X697886D02*
X697342Y367991D01*
X696369Y367588D01*
X695533Y366947D01*
X694892Y366112D01*
X694489Y365139D01*
X694417Y364595D01*
X697886D01*
Y368063D01*
D02*
G37*
G36*
X349559Y447256D02*
X346091D01*
Y443787D01*
X346635Y443859D01*
X347608Y444262D01*
X348443Y444903D01*
X349085Y445739D01*
X349488Y446712D01*
X349559Y447256D01*
D02*
G37*
G36*
X360091Y457256D02*
X356622D01*
X356694Y456712D01*
X357097Y455739D01*
X357738Y454903D01*
X358573Y454262D01*
X359546Y453859D01*
X360091Y453787D01*
Y457256D01*
D02*
G37*
G36*
X354559D02*
X351091D01*
Y453787D01*
X351635Y453859D01*
X352608Y454262D01*
X353443Y454903D01*
X354085Y455739D01*
X354488Y456712D01*
X354559Y457256D01*
D02*
G37*
G36*
X350091D02*
X346622D01*
X346694Y456712D01*
X347097Y455739D01*
X347738Y454903D01*
X348573Y454262D01*
X349546Y453859D01*
X350091Y453787D01*
Y457256D01*
D02*
G37*
G36*
X540169Y457650D02*
X536700D01*
X536772Y457105D01*
X537175Y456132D01*
X537816Y455297D01*
X538652Y454656D01*
X539625Y454252D01*
X540169Y454181D01*
Y457650D01*
D02*
G37*
G36*
X479193Y461773D02*
X478184Y461641D01*
X477243Y461251D01*
X476436Y460631D01*
X475816Y459824D01*
X475426Y458883D01*
X475293Y457874D01*
X475426Y456865D01*
X475816Y455924D01*
X476436Y455117D01*
X477243Y454497D01*
X478184Y454107D01*
X479193Y453974D01*
X480202Y454107D01*
X481143Y454497D01*
X481950Y455117D01*
X482570Y455924D01*
X482960Y456865D01*
X483092Y457874D01*
X482960Y458883D01*
X482570Y459824D01*
X481950Y460631D01*
X481143Y461251D01*
X480202Y461641D01*
X479193Y461773D01*
D02*
G37*
G36*
X469193D02*
X468184Y461641D01*
X467243Y461251D01*
X466435Y460631D01*
X465816Y459824D01*
X465426Y458883D01*
X465293Y457874D01*
X465426Y456865D01*
X465816Y455924D01*
X466435Y455117D01*
X467243Y454497D01*
X468184Y454107D01*
X469193Y453974D01*
X470202Y454107D01*
X471143Y454497D01*
X471950Y455117D01*
X472570Y455924D01*
X472960Y456865D01*
X473092Y457874D01*
X472960Y458883D01*
X472570Y459824D01*
X471950Y460631D01*
X471143Y461251D01*
X470202Y461641D01*
X469193Y461773D01*
D02*
G37*
G36*
X546169Y452118D02*
Y448650D01*
X549638D01*
X549566Y449194D01*
X549163Y450167D01*
X548522Y451002D01*
X547686Y451644D01*
X546713Y452047D01*
X546169Y452118D01*
D02*
G37*
G36*
X545169D02*
X544625Y452047D01*
X543652Y451644D01*
X542816Y451002D01*
X542175Y450167D01*
X541772Y449194D01*
X541701Y448650D01*
X545169D01*
Y452118D01*
D02*
G37*
G36*
X474693Y451843D02*
Y448374D01*
X478162D01*
X478090Y448918D01*
X477687Y449891D01*
X477046Y450727D01*
X476210Y451368D01*
X475237Y451771D01*
X474693Y451843D01*
D02*
G37*
G36*
X344559Y457256D02*
X341091D01*
Y453787D01*
X341635Y453859D01*
X342608Y454262D01*
X343443Y454903D01*
X344085Y455739D01*
X344488Y456712D01*
X344559Y457256D01*
D02*
G37*
G36*
X340091D02*
X336622D01*
X336694Y456712D01*
X337097Y455739D01*
X337738Y454903D01*
X338573Y454262D01*
X339546Y453859D01*
X340091Y453787D01*
Y457256D01*
D02*
G37*
G36*
X706457Y460041D02*
X705447Y459908D01*
X704507Y459519D01*
X703699Y458899D01*
X703080Y458091D01*
X702690Y457151D01*
X702557Y456142D01*
X702690Y455132D01*
X703080Y454192D01*
X703699Y453384D01*
X704507Y452765D01*
X705447Y452375D01*
X706457Y452242D01*
X707466Y452375D01*
X708406Y452765D01*
X709214Y453384D01*
X709834Y454192D01*
X710223Y455132D01*
X710356Y456142D01*
X710223Y457151D01*
X709834Y458091D01*
X709214Y458899D01*
X708406Y459519D01*
X707466Y459908D01*
X706457Y460041D01*
D02*
G37*
G36*
X544638Y457650D02*
X541169D01*
Y454181D01*
X541713Y454252D01*
X542687Y454656D01*
X543522Y455297D01*
X544163Y456132D01*
X544566Y457105D01*
X544638Y457650D01*
D02*
G37*
G36*
X351091Y461725D02*
Y458256D01*
X354559D01*
X354488Y458800D01*
X354085Y459773D01*
X353443Y460609D01*
X352608Y461250D01*
X351635Y461653D01*
X351091Y461725D01*
D02*
G37*
G36*
X350091D02*
X349546Y461653D01*
X348573Y461250D01*
X347738Y460609D01*
X347097Y459773D01*
X346694Y458800D01*
X346622Y458256D01*
X350091D01*
Y461725D01*
D02*
G37*
G36*
X341091D02*
Y458256D01*
X344559D01*
X344488Y458800D01*
X344085Y459773D01*
X343443Y460609D01*
X342608Y461250D01*
X341635Y461653D01*
X341091Y461725D01*
D02*
G37*
G36*
X541169Y462118D02*
Y458650D01*
X544638D01*
X544566Y459194D01*
X544163Y460167D01*
X543522Y461002D01*
X542687Y461644D01*
X541713Y462047D01*
X541169Y462118D01*
D02*
G37*
G36*
X540169D02*
X539625Y462047D01*
X538652Y461644D01*
X537816Y461002D01*
X537175Y460167D01*
X536772Y459194D01*
X536700Y458650D01*
X540169D01*
Y462118D01*
D02*
G37*
G36*
X360091Y461725D02*
X359546Y461653D01*
X358573Y461250D01*
X357738Y460609D01*
X357097Y459773D01*
X356694Y458800D01*
X356622Y458256D01*
X360091D01*
Y461725D01*
D02*
G37*
G36*
X570669Y462049D02*
X569660Y461916D01*
X568719Y461527D01*
X567912Y460907D01*
X567292Y460099D01*
X566903Y459159D01*
X566770Y458150D01*
X566903Y457140D01*
X567292Y456200D01*
X567912Y455392D01*
X568719Y454773D01*
X569660Y454383D01*
X570669Y454250D01*
X571678Y454383D01*
X572619Y454773D01*
X573427Y455392D01*
X574046Y456200D01*
X574436Y457140D01*
X574569Y458150D01*
X574436Y459159D01*
X574046Y460099D01*
X573427Y460907D01*
X572619Y461527D01*
X571678Y461916D01*
X570669Y462049D01*
D02*
G37*
G36*
X560669D02*
X559660Y461916D01*
X558719Y461527D01*
X557912Y460907D01*
X557292Y460099D01*
X556903Y459159D01*
X556770Y458150D01*
X556903Y457140D01*
X557292Y456200D01*
X557912Y455392D01*
X558719Y454773D01*
X559660Y454383D01*
X560669Y454250D01*
X561679Y454383D01*
X562619Y454773D01*
X563427Y455392D01*
X564046Y456200D01*
X564436Y457140D01*
X564569Y458150D01*
X564436Y459159D01*
X564046Y460099D01*
X563427Y460907D01*
X562619Y461527D01*
X561679Y461916D01*
X560669Y462049D01*
D02*
G37*
G36*
X550669D02*
X549660Y461916D01*
X548719Y461527D01*
X547912Y460907D01*
X547292Y460099D01*
X546903Y459159D01*
X546770Y458150D01*
X546903Y457140D01*
X547292Y456200D01*
X547912Y455392D01*
X548719Y454773D01*
X549660Y454383D01*
X550669Y454250D01*
X551679Y454383D01*
X552619Y454773D01*
X553427Y455392D01*
X554046Y456200D01*
X554436Y457140D01*
X554569Y458150D01*
X554436Y459159D01*
X554046Y460099D01*
X553427Y460907D01*
X552619Y461527D01*
X551679Y461916D01*
X550669Y462049D01*
D02*
G37*
G36*
X340091Y461725D02*
X339546Y461653D01*
X338573Y461250D01*
X337738Y460609D01*
X337097Y459773D01*
X336694Y458800D01*
X336622Y458256D01*
X340091D01*
Y461725D01*
D02*
G37*
G36*
X590669Y462049D02*
X589660Y461916D01*
X588719Y461527D01*
X587912Y460907D01*
X587292Y460099D01*
X586903Y459159D01*
X586770Y458150D01*
X586903Y457140D01*
X587292Y456200D01*
X587912Y455392D01*
X588719Y454773D01*
X589660Y454383D01*
X590669Y454250D01*
X591678Y454383D01*
X592619Y454773D01*
X593427Y455392D01*
X594046Y456200D01*
X594436Y457140D01*
X594569Y458150D01*
X594436Y459159D01*
X594046Y460099D01*
X593427Y460907D01*
X592619Y461527D01*
X591678Y461916D01*
X590669Y462049D01*
D02*
G37*
G36*
X580669D02*
X579660Y461916D01*
X578719Y461527D01*
X577912Y460907D01*
X577292Y460099D01*
X576903Y459159D01*
X576770Y458150D01*
X576903Y457140D01*
X577292Y456200D01*
X577912Y455392D01*
X578719Y454773D01*
X579660Y454383D01*
X580669Y454250D01*
X581678Y454383D01*
X582619Y454773D01*
X583427Y455392D01*
X584046Y456200D01*
X584436Y457140D01*
X584569Y458150D01*
X584436Y459159D01*
X584046Y460099D01*
X583427Y460907D01*
X582619Y461527D01*
X581678Y461916D01*
X580669Y462049D01*
D02*
G37*
G36*
X565669Y452049D02*
X564660Y451916D01*
X563719Y451527D01*
X562912Y450907D01*
X562292Y450099D01*
X561903Y449159D01*
X561770Y448150D01*
X561903Y447140D01*
X562292Y446200D01*
X562912Y445392D01*
X563719Y444772D01*
X564660Y444383D01*
X565669Y444250D01*
X566678Y444383D01*
X567619Y444772D01*
X568427Y445392D01*
X569046Y446200D01*
X569436Y447140D01*
X569569Y448150D01*
X569436Y449159D01*
X569046Y450099D01*
X568427Y450907D01*
X567619Y451527D01*
X566678Y451916D01*
X565669Y452049D01*
D02*
G37*
G36*
X555669D02*
X554660Y451916D01*
X553719Y451527D01*
X552912Y450907D01*
X552292Y450099D01*
X551903Y449159D01*
X551770Y448150D01*
X551903Y447140D01*
X552292Y446200D01*
X552912Y445392D01*
X553719Y444772D01*
X554660Y444383D01*
X555669Y444250D01*
X556678Y444383D01*
X557619Y444772D01*
X558427Y445392D01*
X559046Y446200D01*
X559436Y447140D01*
X559569Y448150D01*
X559436Y449159D01*
X559046Y450099D01*
X558427Y450907D01*
X557619Y451527D01*
X556678Y451916D01*
X555669Y452049D01*
D02*
G37*
G36*
X549638Y447650D02*
X546169D01*
Y444181D01*
X546713Y444252D01*
X547686Y444656D01*
X548522Y445297D01*
X549163Y446132D01*
X549566Y447105D01*
X549638Y447650D01*
D02*
G37*
G36*
X595669Y452049D02*
X594660Y451916D01*
X593719Y451527D01*
X592912Y450907D01*
X592292Y450099D01*
X591903Y449159D01*
X591770Y448150D01*
X591903Y447140D01*
X592292Y446200D01*
X592912Y445392D01*
X593719Y444772D01*
X594660Y444383D01*
X595669Y444250D01*
X596678Y444383D01*
X597619Y444772D01*
X598427Y445392D01*
X599046Y446200D01*
X599436Y447140D01*
X599569Y448150D01*
X599436Y449159D01*
X599046Y450099D01*
X598427Y450907D01*
X597619Y451527D01*
X596678Y451916D01*
X595669Y452049D01*
D02*
G37*
G36*
X585669D02*
X584660Y451916D01*
X583719Y451527D01*
X582912Y450907D01*
X582292Y450099D01*
X581903Y449159D01*
X581770Y448150D01*
X581903Y447140D01*
X582292Y446200D01*
X582912Y445392D01*
X583719Y444772D01*
X584660Y444383D01*
X585669Y444250D01*
X586679Y444383D01*
X587619Y444772D01*
X588427Y445392D01*
X589046Y446200D01*
X589436Y447140D01*
X589569Y448150D01*
X589436Y449159D01*
X589046Y450099D01*
X588427Y450907D01*
X587619Y451527D01*
X586679Y451916D01*
X585669Y452049D01*
D02*
G37*
G36*
X575669D02*
X574660Y451916D01*
X573719Y451527D01*
X572912Y450907D01*
X572292Y450099D01*
X571903Y449159D01*
X571770Y448150D01*
X571903Y447140D01*
X572292Y446200D01*
X572912Y445392D01*
X573719Y444772D01*
X574660Y444383D01*
X575669Y444250D01*
X576679Y444383D01*
X577619Y444772D01*
X578427Y445392D01*
X579046Y446200D01*
X579436Y447140D01*
X579569Y448150D01*
X579436Y449159D01*
X579046Y450099D01*
X578427Y450907D01*
X577619Y451527D01*
X576679Y451916D01*
X575669Y452049D01*
D02*
G37*
G36*
X473693Y447374D02*
X470224D01*
X470296Y446830D01*
X470699Y445857D01*
X471340Y445021D01*
X472176Y444380D01*
X473149Y443977D01*
X473693Y443905D01*
Y447374D01*
D02*
G37*
G36*
X359559Y447256D02*
X356091D01*
Y443787D01*
X356635Y443859D01*
X357608Y444262D01*
X358443Y444903D01*
X359085Y445739D01*
X359488Y446712D01*
X359559Y447256D01*
D02*
G37*
G36*
X355091D02*
X351622D01*
X351694Y446712D01*
X352097Y445739D01*
X352738Y444903D01*
X353573Y444262D01*
X354546Y443859D01*
X355091Y443787D01*
Y447256D01*
D02*
G37*
G36*
X545169Y447650D02*
X541701D01*
X541772Y447105D01*
X542175Y446132D01*
X542816Y445297D01*
X543652Y444656D01*
X544625Y444252D01*
X545169Y444181D01*
Y447650D01*
D02*
G37*
G36*
X484193Y451774D02*
X483184Y451641D01*
X482243Y451251D01*
X481435Y450631D01*
X480816Y449824D01*
X480426Y448883D01*
X480293Y447874D01*
X480426Y446865D01*
X480816Y445924D01*
X481435Y445117D01*
X482243Y444497D01*
X483184Y444107D01*
X484193Y443974D01*
X485202Y444107D01*
X486143Y444497D01*
X486950Y445117D01*
X487570Y445924D01*
X487959Y446865D01*
X488092Y447874D01*
X487959Y448883D01*
X487570Y449824D01*
X486950Y450631D01*
X486143Y451251D01*
X485202Y451641D01*
X484193Y451774D01*
D02*
G37*
G36*
X478162Y447374D02*
X474693D01*
Y443905D01*
X475237Y443977D01*
X476210Y444380D01*
X477046Y445021D01*
X477687Y445857D01*
X478090Y446830D01*
X478162Y447374D01*
D02*
G37*
G36*
X516724Y447362D02*
X516311Y447307D01*
X515459Y446955D01*
X514728Y446394D01*
X514167Y445663D01*
X513814Y444811D01*
X513760Y444398D01*
X516724D01*
Y447362D01*
D02*
G37*
G36*
X346091Y451725D02*
Y448256D01*
X349559D01*
X349488Y448800D01*
X349085Y449773D01*
X348443Y450609D01*
X347608Y451250D01*
X346635Y451653D01*
X346091Y451725D01*
D02*
G37*
G36*
X345091D02*
X344546Y451653D01*
X343573Y451250D01*
X342738Y450609D01*
X342097Y449773D01*
X341694Y448800D01*
X341622Y448256D01*
X345091D01*
Y451725D01*
D02*
G37*
G36*
X696457Y455041D02*
X695447Y454908D01*
X694507Y454519D01*
X693699Y453899D01*
X693080Y453091D01*
X692690Y452151D01*
X692557Y451142D01*
X692690Y450133D01*
X693080Y449192D01*
X693699Y448384D01*
X694507Y447765D01*
X695447Y447375D01*
X696457Y447242D01*
X697466Y447375D01*
X698406Y447765D01*
X699214Y448384D01*
X699834Y449192D01*
X700223Y450133D01*
X700356Y451142D01*
X700223Y452151D01*
X699834Y453091D01*
X699214Y453899D01*
X698406Y454519D01*
X697466Y454908D01*
X696457Y455041D01*
D02*
G37*
G36*
X473693Y451843D02*
X473149Y451771D01*
X472176Y451368D01*
X471340Y450727D01*
X470699Y449891D01*
X470296Y448918D01*
X470224Y448374D01*
X473693D01*
Y451843D01*
D02*
G37*
G36*
X356091Y451725D02*
Y448256D01*
X359559D01*
X359488Y448800D01*
X359085Y449773D01*
X358443Y450609D01*
X357608Y451250D01*
X356635Y451653D01*
X356091Y451725D01*
D02*
G37*
G36*
X355091D02*
X354546Y451653D01*
X353573Y451250D01*
X352738Y450609D01*
X352097Y449773D01*
X351694Y448800D01*
X351622Y448256D01*
X355091D01*
Y451725D01*
D02*
G37*
G36*
X706957Y450110D02*
Y446642D01*
X710425D01*
X710354Y447186D01*
X709951Y448159D01*
X709309Y448995D01*
X708474Y449636D01*
X707501Y450039D01*
X706957Y450110D01*
D02*
G37*
G36*
X705957D02*
X705412Y450039D01*
X704439Y449636D01*
X703604Y448995D01*
X702963Y448159D01*
X702560Y447186D01*
X702488Y446642D01*
X705957D01*
Y450110D01*
D02*
G37*
G36*
X517724Y447362D02*
Y444398D01*
X520689D01*
X520634Y444811D01*
X520282Y445663D01*
X519721Y446394D01*
X518990Y446955D01*
X518138Y447307D01*
X517724Y447362D01*
D02*
G37*
G36*
X535157Y454915D02*
X534161Y454784D01*
X533231Y454399D01*
X532434Y453787D01*
X531822Y452989D01*
X531437Y452060D01*
X531306Y451063D01*
X531437Y450066D01*
X531822Y449137D01*
X532434Y448339D01*
X533231Y447727D01*
X534161Y447342D01*
X535157Y447211D01*
X536154Y447342D01*
X537083Y447727D01*
X537881Y448339D01*
X538493Y449137D01*
X538878Y450066D01*
X539009Y451063D01*
X538878Y452060D01*
X538493Y452989D01*
X537881Y453787D01*
X537083Y454399D01*
X536154Y454784D01*
X535157Y454915D01*
D02*
G37*
G36*
X463681Y454639D02*
X462684Y454508D01*
X461755Y454123D01*
X460957Y453511D01*
X460345Y452713D01*
X459961Y451784D01*
X459829Y450787D01*
X459961Y449790D01*
X460345Y448862D01*
X460957Y448064D01*
X461755Y447452D01*
X462684Y447067D01*
X463681Y446936D01*
X464678Y447067D01*
X465607Y447452D01*
X466405Y448064D01*
X467017Y448862D01*
X467402Y449790D01*
X467533Y450787D01*
X467402Y451784D01*
X467017Y452713D01*
X466405Y453511D01*
X465607Y454123D01*
X464678Y454508D01*
X463681Y454639D01*
D02*
G37*
G36*
X335079Y454561D02*
X334082Y454429D01*
X333153Y454044D01*
X332355Y453432D01*
X331743Y452635D01*
X331358Y451706D01*
X331227Y450709D01*
X331358Y449712D01*
X331743Y448783D01*
X332355Y447985D01*
X333153Y447373D01*
X334082Y446988D01*
X335079Y446857D01*
X336076Y446988D01*
X337005Y447373D01*
X337802Y447985D01*
X338415Y448783D01*
X338799Y449712D01*
X338931Y450709D01*
X338799Y451706D01*
X338415Y452635D01*
X337802Y453432D01*
X337005Y454044D01*
X336076Y454429D01*
X335079Y454561D01*
D02*
G37*
G36*
X450976Y291314D02*
X450701Y291278D01*
X449979Y290979D01*
X449359Y290503D01*
X448883Y289883D01*
X448584Y289161D01*
X448548Y288886D01*
X450976D01*
Y291314D01*
D02*
G37*
G36*
X454405Y287886D02*
X451976D01*
Y285457D01*
X452251Y285494D01*
X452973Y285793D01*
X453593Y286269D01*
X454069Y286889D01*
X454368Y287611D01*
X454405Y287886D01*
D02*
G37*
G36*
X450976D02*
X448548D01*
X448584Y287611D01*
X448883Y286889D01*
X449359Y286269D01*
X449979Y285793D01*
X450701Y285494D01*
X450976Y285457D01*
Y287886D01*
D02*
G37*
G36*
X508243Y295760D02*
X505815D01*
Y293332D01*
X506090Y293368D01*
X506812Y293667D01*
X507432Y294143D01*
X507908Y294763D01*
X508207Y295485D01*
X508243Y295760D01*
D02*
G37*
G36*
X504815D02*
X502387D01*
X502423Y295485D01*
X502722Y294763D01*
X503198Y294143D01*
X503818Y293667D01*
X504540Y293368D01*
X504815Y293332D01*
Y295760D01*
D02*
G37*
G36*
X451976Y291314D02*
Y288886D01*
X454405D01*
X454368Y289161D01*
X454069Y289883D01*
X453593Y290503D01*
X452973Y290979D01*
X452251Y291278D01*
X451976Y291314D01*
D02*
G37*
G36*
X393595Y278027D02*
X393320Y277991D01*
X392597Y277691D01*
X391977Y277216D01*
X391501Y276595D01*
X391202Y275873D01*
X391166Y275598D01*
X393595D01*
Y278027D01*
D02*
G37*
G36*
X333020Y275957D02*
Y272488D01*
X336488D01*
X336417Y273032D01*
X336014Y274006D01*
X335372Y274841D01*
X334537Y275482D01*
X333564Y275885D01*
X333020Y275957D01*
D02*
G37*
G36*
X332020D02*
X331475Y275885D01*
X330502Y275482D01*
X329667Y274841D01*
X329026Y274006D01*
X328623Y273032D01*
X328551Y272488D01*
X332020D01*
Y275957D01*
D02*
G37*
G36*
X519594Y282161D02*
Y279732D01*
X522023D01*
X521987Y280007D01*
X521688Y280729D01*
X521212Y281349D01*
X520592Y281825D01*
X519869Y282124D01*
X519594Y282161D01*
D02*
G37*
G36*
X522023Y278732D02*
X519594D01*
Y276304D01*
X519869Y276340D01*
X520592Y276639D01*
X521212Y277115D01*
X521688Y277735D01*
X521987Y278457D01*
X522023Y278732D01*
D02*
G37*
G36*
X394595Y278027D02*
Y275598D01*
X397023D01*
X396987Y275873D01*
X396688Y276595D01*
X396212Y277216D01*
X395592Y277691D01*
X394869Y277991D01*
X394595Y278027D01*
D02*
G37*
G36*
X504815Y299188D02*
X504540Y299152D01*
X503818Y298853D01*
X503198Y298377D01*
X502722Y297757D01*
X502423Y297035D01*
X502387Y296760D01*
X504815D01*
Y299188D01*
D02*
G37*
G36*
X464362Y304716D02*
X461398D01*
X461452Y304303D01*
X461805Y303451D01*
X462366Y302720D01*
X463097Y302159D01*
X463948Y301807D01*
X464362Y301752D01*
Y304716D01*
D02*
G37*
G36*
X595630Y307837D02*
X594621Y307704D01*
X593680Y307314D01*
X592873Y306694D01*
X592253Y305887D01*
X591863Y304946D01*
X591730Y303937D01*
X591863Y302928D01*
X592253Y301987D01*
X592873Y301180D01*
X593680Y300560D01*
X594621Y300170D01*
X595630Y300038D01*
X596639Y300170D01*
X597580Y300560D01*
X598387Y301180D01*
X599007Y301987D01*
X599397Y302928D01*
X599529Y303937D01*
X599397Y304946D01*
X599007Y305887D01*
X598387Y306694D01*
X597580Y307314D01*
X596639Y307704D01*
X595630Y307837D01*
D02*
G37*
G36*
X585630D02*
X584621Y307704D01*
X583680Y307314D01*
X582873Y306694D01*
X582253Y305887D01*
X581863Y304946D01*
X581730Y303937D01*
X581863Y302928D01*
X582253Y301987D01*
X582873Y301180D01*
X583680Y300560D01*
X584621Y300170D01*
X585630Y300038D01*
X586639Y300170D01*
X587580Y300560D01*
X588387Y301180D01*
X589007Y301987D01*
X589397Y302928D01*
X589529Y303937D01*
X589397Y304946D01*
X589007Y305887D01*
X588387Y306694D01*
X587580Y307314D01*
X586639Y307704D01*
X585630Y307837D01*
D02*
G37*
G36*
X355217Y334116D02*
X354207Y333983D01*
X353267Y333594D01*
X352459Y332974D01*
X351839Y332166D01*
X351450Y331226D01*
X351317Y330217D01*
X351450Y329207D01*
X351839Y328267D01*
X352459Y327459D01*
X353267Y326839D01*
X354207Y326450D01*
X355217Y326317D01*
X356226Y326450D01*
X357166Y326839D01*
X357416Y327031D01*
X362583Y321864D01*
Y307776D01*
X362689Y307242D01*
X362991Y306791D01*
X363443Y306489D01*
X363976Y306383D01*
X388617D01*
X388847Y305826D01*
X389467Y305018D01*
X390275Y304398D01*
X391215Y304009D01*
X392224Y303876D01*
X393234Y304009D01*
X394174Y304398D01*
X394982Y305018D01*
X395602Y305826D01*
X395991Y306766D01*
X396124Y307776D01*
X395991Y308785D01*
X395602Y309725D01*
X394982Y310533D01*
X394174Y311153D01*
X393234Y311542D01*
X392224Y311675D01*
X391215Y311542D01*
X390275Y311153D01*
X389467Y310533D01*
X388847Y309725D01*
X388617Y309169D01*
X371069D01*
X370895Y309588D01*
X370877Y309642D01*
X371604Y310201D01*
X372165Y310932D01*
X372518Y311783D01*
X372573Y312197D01*
X369108D01*
Y312697D01*
X368608D01*
Y316161D01*
X368195Y316107D01*
X367343Y315754D01*
X366612Y315193D01*
X366051Y314462D01*
X365860Y314000D01*
X365369Y314097D01*
Y322441D01*
X365263Y322974D01*
X364961Y323426D01*
X359006Y329381D01*
X359116Y330217D01*
X358983Y331226D01*
X358594Y332166D01*
X357974Y332974D01*
X357166Y333594D01*
X356226Y333983D01*
X355217Y334116D01*
D02*
G37*
G36*
X535118Y310702D02*
X534121Y310571D01*
X533192Y310186D01*
X532394Y309574D01*
X531782Y308776D01*
X531397Y307847D01*
X531266Y306850D01*
X531397Y305854D01*
X531782Y304925D01*
X532394Y304127D01*
X533192Y303515D01*
X534121Y303130D01*
X535118Y302999D01*
X536115Y303130D01*
X537044Y303515D01*
X537842Y304127D01*
X538454Y304925D01*
X538839Y305854D01*
X538970Y306850D01*
X538839Y307847D01*
X538454Y308776D01*
X537842Y309574D01*
X537044Y310186D01*
X536115Y310571D01*
X535118Y310702D01*
D02*
G37*
G36*
X468327Y304716D02*
X465362D01*
Y301752D01*
X465776Y301807D01*
X466627Y302159D01*
X467358Y302720D01*
X467919Y303451D01*
X468272Y304303D01*
X468327Y304716D01*
D02*
G37*
G36*
X549599Y303437D02*
X546130D01*
Y299968D01*
X546674Y300040D01*
X547647Y300443D01*
X548483Y301084D01*
X549124Y301920D01*
X549527Y302893D01*
X549599Y303437D01*
D02*
G37*
G36*
X545130D02*
X541661D01*
X541733Y302893D01*
X542136Y301920D01*
X542777Y301084D01*
X543613Y300443D01*
X544586Y300040D01*
X545130Y299968D01*
Y303437D01*
D02*
G37*
G36*
X505815Y299188D02*
Y296760D01*
X508243D01*
X508207Y297035D01*
X507908Y297757D01*
X507432Y298377D01*
X506812Y298853D01*
X506090Y299152D01*
X505815Y299188D01*
D02*
G37*
G36*
X575630Y307837D02*
X574621Y307704D01*
X573680Y307314D01*
X572873Y306694D01*
X572253Y305887D01*
X571863Y304946D01*
X571730Y303937D01*
X571863Y302928D01*
X572253Y301987D01*
X572873Y301180D01*
X573680Y300560D01*
X574621Y300170D01*
X575630Y300038D01*
X576639Y300170D01*
X577580Y300560D01*
X578387Y301180D01*
X579007Y301987D01*
X579397Y302928D01*
X579529Y303937D01*
X579397Y304946D01*
X579007Y305887D01*
X578387Y306694D01*
X577580Y307314D01*
X576639Y307704D01*
X575630Y307837D01*
D02*
G37*
G36*
X565630D02*
X564621Y307704D01*
X563680Y307314D01*
X562873Y306694D01*
X562253Y305887D01*
X561863Y304946D01*
X561730Y303937D01*
X561863Y302928D01*
X562253Y301987D01*
X562873Y301180D01*
X563680Y300560D01*
X564621Y300170D01*
X565630Y300038D01*
X566639Y300170D01*
X567580Y300560D01*
X568387Y301180D01*
X569007Y301987D01*
X569397Y302928D01*
X569529Y303937D01*
X569397Y304946D01*
X569007Y305887D01*
X568387Y306694D01*
X567580Y307314D01*
X566639Y307704D01*
X565630Y307837D01*
D02*
G37*
G36*
X555630D02*
X554621Y307704D01*
X553680Y307314D01*
X552873Y306694D01*
X552253Y305887D01*
X551863Y304946D01*
X551730Y303937D01*
X551863Y302928D01*
X552253Y301987D01*
X552873Y301180D01*
X553680Y300560D01*
X554621Y300170D01*
X555630Y300038D01*
X556639Y300170D01*
X557580Y300560D01*
X558387Y301180D01*
X559007Y301987D01*
X559397Y302928D01*
X559529Y303937D01*
X559397Y304946D01*
X559007Y305887D01*
X558387Y306694D01*
X557580Y307314D01*
X556639Y307704D01*
X555630Y307837D01*
D02*
G37*
G36*
X664673Y252775D02*
Y249811D01*
X667638D01*
X667583Y250225D01*
X667231Y251076D01*
X666670Y251807D01*
X665938Y252368D01*
X665087Y252721D01*
X664673Y252775D01*
D02*
G37*
G36*
X663673D02*
X663260Y252721D01*
X662408Y252368D01*
X661677Y251807D01*
X661116Y251076D01*
X660763Y250225D01*
X660709Y249811D01*
X663673D01*
Y252775D01*
D02*
G37*
G36*
X521169Y250566D02*
Y248138D01*
X523598D01*
X523561Y248413D01*
X523262Y249135D01*
X522786Y249755D01*
X522166Y250231D01*
X521444Y250530D01*
X521169Y250566D01*
D02*
G37*
G36*
X579028Y254153D02*
X578614Y254099D01*
X577763Y253746D01*
X577031Y253185D01*
X576470Y252454D01*
X576118Y251603D01*
X576063Y251189D01*
X579028D01*
Y254153D01*
D02*
G37*
G36*
X417501Y252691D02*
Y250263D01*
X419930D01*
X419893Y250538D01*
X419594Y251260D01*
X419118Y251880D01*
X418498Y252356D01*
X417776Y252655D01*
X417501Y252691D01*
D02*
G37*
G36*
X416501D02*
X416226Y252655D01*
X415504Y252356D01*
X414884Y251880D01*
X414408Y251260D01*
X414109Y250538D01*
X414073Y250263D01*
X416501D01*
Y252691D01*
D02*
G37*
G36*
X579028Y250189D02*
X576063D01*
X576118Y249775D01*
X576470Y248924D01*
X577031Y248193D01*
X577763Y247632D01*
X578614Y247279D01*
X579028Y247225D01*
Y250189D01*
D02*
G37*
G36*
X419930Y249263D02*
X417501D01*
Y246834D01*
X417776Y246871D01*
X418498Y247170D01*
X419118Y247646D01*
X419594Y248266D01*
X419893Y248988D01*
X419930Y249263D01*
D02*
G37*
G36*
X416501D02*
X414073D01*
X414109Y248988D01*
X414408Y248266D01*
X414884Y247646D01*
X415504Y247170D01*
X416226Y246871D01*
X416501Y246834D01*
Y249263D01*
D02*
G37*
G36*
X520169Y250566D02*
X519894Y250530D01*
X519172Y250231D01*
X518552Y249755D01*
X518076Y249135D01*
X517777Y248413D01*
X517741Y248138D01*
X520169D01*
Y250566D01*
D02*
G37*
G36*
X332520Y255612D02*
X331510Y255479D01*
X330570Y255090D01*
X329762Y254470D01*
X329143Y253662D01*
X328753Y252722D01*
X328620Y251713D01*
X328753Y250703D01*
X329143Y249763D01*
X329762Y248955D01*
X330570Y248336D01*
X331510Y247946D01*
X332520Y247813D01*
X333529Y247946D01*
X334469Y248336D01*
X335277Y248955D01*
X335897Y249763D01*
X336286Y250703D01*
X336419Y251713D01*
X336286Y252722D01*
X335897Y253662D01*
X335277Y254470D01*
X334469Y255090D01*
X333529Y255479D01*
X332520Y255612D01*
D02*
G37*
G36*
X582992Y250189D02*
X580028D01*
Y247225D01*
X580441Y247279D01*
X581293Y247632D01*
X582024Y248193D01*
X582585Y248924D01*
X582937Y249775D01*
X582992Y250189D01*
D02*
G37*
G36*
X580028Y254153D02*
Y251189D01*
X582992D01*
X582937Y251603D01*
X582585Y252454D01*
X582024Y253185D01*
X581293Y253746D01*
X580441Y254099D01*
X580028Y254153D01*
D02*
G37*
G36*
X432612Y274287D02*
X432337Y274250D01*
X431615Y273951D01*
X430995Y273475D01*
X430519Y272855D01*
X430220Y272133D01*
X430184Y271858D01*
X432612D01*
Y274287D01*
D02*
G37*
G36*
X436040Y270858D02*
X433612D01*
Y268430D01*
X433887Y268466D01*
X434609Y268765D01*
X435229Y269241D01*
X435705Y269861D01*
X436004Y270583D01*
X436040Y270858D01*
D02*
G37*
G36*
X432612D02*
X430184D01*
X430220Y270583D01*
X430519Y269861D01*
X430995Y269241D01*
X431615Y268765D01*
X432337Y268466D01*
X432612Y268430D01*
Y270858D01*
D02*
G37*
G36*
X397023Y274598D02*
X394595D01*
Y272170D01*
X394869Y272206D01*
X395592Y272505D01*
X396212Y272981D01*
X396688Y273601D01*
X396987Y274324D01*
X397023Y274598D01*
D02*
G37*
G36*
X393595D02*
X391166D01*
X391202Y274324D01*
X391501Y273601D01*
X391977Y272981D01*
X392597Y272505D01*
X393320Y272206D01*
X393595Y272170D01*
Y274598D01*
D02*
G37*
G36*
X433612Y274287D02*
Y271858D01*
X436040D01*
X436004Y272133D01*
X435705Y272855D01*
X435229Y273475D01*
X434609Y273951D01*
X433887Y274250D01*
X433612Y274287D01*
D02*
G37*
G36*
X499402Y263303D02*
X497327D01*
Y261031D01*
X499402D01*
Y263303D01*
D02*
G37*
G36*
X332520Y265750D02*
X331510Y265617D01*
X330570Y265228D01*
X329762Y264608D01*
X329143Y263800D01*
X328753Y262860D01*
X328620Y261850D01*
X328753Y260841D01*
X329143Y259901D01*
X329762Y259093D01*
X330570Y258473D01*
X331510Y258084D01*
X332520Y257951D01*
X333529Y258084D01*
X334469Y258473D01*
X335277Y259093D01*
X335897Y259901D01*
X336286Y260841D01*
X336419Y261850D01*
X336286Y262860D01*
X335897Y263800D01*
X335277Y264608D01*
X334469Y265228D01*
X333529Y265617D01*
X332520Y265750D01*
D02*
G37*
G36*
X499402Y260031D02*
X497327D01*
Y257760D01*
X499402D01*
Y260031D01*
D02*
G37*
G36*
X336488Y271488D02*
X333020D01*
Y268020D01*
X333564Y268091D01*
X334537Y268494D01*
X335372Y269135D01*
X336014Y269971D01*
X336417Y270944D01*
X336488Y271488D01*
D02*
G37*
G36*
X332020D02*
X328551D01*
X328623Y270944D01*
X329026Y269971D01*
X329667Y269135D01*
X330502Y268494D01*
X331475Y268091D01*
X332020Y268020D01*
Y271488D01*
D02*
G37*
G36*
X413870Y264500D02*
X413326Y264428D01*
X412353Y264025D01*
X411517Y263384D01*
X410876Y262549D01*
X410473Y261576D01*
X410401Y261032D01*
X413870D01*
Y264500D01*
D02*
G37*
G36*
X545130Y307906D02*
X544586Y307834D01*
X543613Y307431D01*
X542777Y306790D01*
X542136Y305954D01*
X541733Y304981D01*
X541661Y304437D01*
X545130D01*
Y307906D01*
D02*
G37*
G36*
X697355Y353594D02*
X693886D01*
Y350126D01*
X694430Y350197D01*
X695403Y350601D01*
X696239Y351242D01*
X696880Y352077D01*
X697283Y353050D01*
X697355Y353594D01*
D02*
G37*
G36*
X692886D02*
X689417D01*
X689489Y353050D01*
X689892Y352077D01*
X690533Y351242D01*
X691369Y350601D01*
X692342Y350197D01*
X692886Y350126D01*
Y353594D01*
D02*
G37*
G36*
X687355D02*
X683886D01*
Y350126D01*
X684430Y350197D01*
X685403Y350601D01*
X686239Y351242D01*
X686880Y352077D01*
X687283Y353050D01*
X687355Y353594D01*
D02*
G37*
G36*
X577650Y353732D02*
X574685D01*
X574740Y353319D01*
X575092Y352467D01*
X575653Y351736D01*
X576384Y351175D01*
X577236Y350822D01*
X577650Y350768D01*
Y353732D01*
D02*
G37*
G36*
X707354Y353594D02*
X703886D01*
Y350126D01*
X704430Y350197D01*
X705403Y350601D01*
X706239Y351242D01*
X706880Y352077D01*
X707283Y353050D01*
X707354Y353594D01*
D02*
G37*
G36*
X702886D02*
X699417D01*
X699489Y353050D01*
X699892Y352077D01*
X700533Y351242D01*
X701369Y350601D01*
X702342Y350197D01*
X702886Y350126D01*
Y353594D01*
D02*
G37*
G36*
X398319Y344212D02*
X397905Y344158D01*
X397054Y343805D01*
X396323Y343244D01*
X395762Y342513D01*
X395409Y341662D01*
X395355Y341248D01*
X398319D01*
Y344212D01*
D02*
G37*
G36*
X409764Y340248D02*
X406799D01*
Y337284D01*
X407213Y337338D01*
X408064Y337691D01*
X408795Y338252D01*
X409356Y338983D01*
X409709Y339834D01*
X409764Y340248D01*
D02*
G37*
G36*
X405799D02*
X402835D01*
X402889Y339834D01*
X403242Y338983D01*
X403803Y338252D01*
X404534Y337691D01*
X405385Y337338D01*
X405799Y337284D01*
Y340248D01*
D02*
G37*
G36*
X406799Y344212D02*
Y341248D01*
X409764D01*
X409709Y341662D01*
X409356Y342513D01*
X408795Y343244D01*
X408064Y343805D01*
X407213Y344158D01*
X406799Y344212D01*
D02*
G37*
G36*
X405799D02*
X405385Y344158D01*
X404534Y343805D01*
X403803Y343244D01*
X403242Y342513D01*
X402889Y341662D01*
X402835Y341248D01*
X405799D01*
Y344212D01*
D02*
G37*
G36*
X399319D02*
Y341248D01*
X402283D01*
X402229Y341662D01*
X401876Y342513D01*
X401315Y343244D01*
X400584Y343805D01*
X399733Y344158D01*
X399319Y344212D01*
D02*
G37*
G36*
X581614Y353732D02*
X578650D01*
Y350768D01*
X579063Y350822D01*
X579915Y351175D01*
X580646Y351736D01*
X581207Y352467D01*
X581560Y353319D01*
X581614Y353732D01*
D02*
G37*
G36*
X578650Y357697D02*
Y354732D01*
X581614D01*
X581560Y355146D01*
X581207Y355997D01*
X580646Y356729D01*
X579915Y357290D01*
X579063Y357642D01*
X578650Y357697D01*
D02*
G37*
G36*
X577650D02*
X577236Y357642D01*
X576384Y357290D01*
X575653Y356729D01*
X575092Y355997D01*
X574740Y355146D01*
X574685Y354732D01*
X577650D01*
Y357697D01*
D02*
G37*
G36*
X703886Y358063D02*
Y354594D01*
X707354D01*
X707283Y355139D01*
X706880Y356112D01*
X706239Y356947D01*
X705403Y357589D01*
X704430Y357992D01*
X703886Y358063D01*
D02*
G37*
G36*
X453425Y363467D02*
X452416Y363334D01*
X451475Y362944D01*
X450668Y362324D01*
X450048Y361517D01*
X449659Y360576D01*
X449526Y359567D01*
X449659Y358558D01*
X450048Y357617D01*
X450668Y356810D01*
X451475Y356190D01*
X452416Y355800D01*
X453425Y355667D01*
X454434Y355800D01*
X455375Y356190D01*
X456183Y356810D01*
X456802Y357617D01*
X457192Y358558D01*
X457325Y359567D01*
X457192Y360576D01*
X456802Y361517D01*
X456183Y362324D01*
X455375Y362944D01*
X454434Y363334D01*
X453425Y363467D01*
D02*
G37*
G36*
X507394Y359067D02*
X503925D01*
Y355598D01*
X504469Y355670D01*
X505442Y356073D01*
X506278Y356714D01*
X506919Y357550D01*
X507322Y358523D01*
X507394Y359067D01*
D02*
G37*
G36*
X502925D02*
X499457D01*
X499528Y358523D01*
X499931Y357550D01*
X500572Y356714D01*
X501408Y356073D01*
X502381Y355670D01*
X502925Y355598D01*
Y359067D01*
D02*
G37*
G36*
X683886Y358063D02*
Y354594D01*
X687355D01*
X687283Y355139D01*
X686880Y356112D01*
X686239Y356947D01*
X685403Y357589D01*
X684430Y357992D01*
X683886Y358063D01*
D02*
G37*
G36*
X417847Y355307D02*
X414378D01*
Y351838D01*
X414922Y351910D01*
X415895Y352313D01*
X416731Y352954D01*
X417372Y353790D01*
X417775Y354763D01*
X417847Y355307D01*
D02*
G37*
G36*
X413378D02*
X409909D01*
X409981Y354763D01*
X410384Y353790D01*
X411025Y352954D01*
X411861Y352313D01*
X412834Y351910D01*
X413378Y351838D01*
Y355307D01*
D02*
G37*
G36*
X702886Y358063D02*
X702342Y357992D01*
X701369Y357589D01*
X700533Y356947D01*
X699892Y356112D01*
X699489Y355139D01*
X699417Y354594D01*
X702886D01*
Y358063D01*
D02*
G37*
G36*
X693886D02*
Y354594D01*
X697355D01*
X697283Y355139D01*
X696880Y356112D01*
X696239Y356947D01*
X695403Y357589D01*
X694430Y357992D01*
X693886Y358063D01*
D02*
G37*
G36*
X692886D02*
X692342Y357992D01*
X691369Y357589D01*
X690533Y356947D01*
X689892Y356112D01*
X689489Y355139D01*
X689417Y354594D01*
X692886D01*
Y358063D01*
D02*
G37*
G36*
X590630Y317836D02*
X589621Y317704D01*
X588680Y317314D01*
X587873Y316694D01*
X587253Y315887D01*
X586863Y314946D01*
X586730Y313937D01*
X586863Y312928D01*
X587253Y311987D01*
X587873Y311180D01*
X588680Y310560D01*
X589621Y310170D01*
X590630Y310037D01*
X591639Y310170D01*
X592580Y310560D01*
X593387Y311180D01*
X594007Y311987D01*
X594397Y312928D01*
X594529Y313937D01*
X594397Y314946D01*
X594007Y315887D01*
X593387Y316694D01*
X592580Y317314D01*
X591639Y317704D01*
X590630Y317836D01*
D02*
G37*
G36*
X580630D02*
X579621Y317704D01*
X578680Y317314D01*
X577873Y316694D01*
X577253Y315887D01*
X576863Y314946D01*
X576730Y313937D01*
X576863Y312928D01*
X577253Y311987D01*
X577873Y311180D01*
X578680Y310560D01*
X579621Y310170D01*
X580630Y310037D01*
X581639Y310170D01*
X582580Y310560D01*
X583387Y311180D01*
X584007Y311987D01*
X584397Y312928D01*
X584529Y313937D01*
X584397Y314946D01*
X584007Y315887D01*
X583387Y316694D01*
X582580Y317314D01*
X581639Y317704D01*
X580630Y317836D01*
D02*
G37*
G36*
X570630D02*
X569621Y317704D01*
X568680Y317314D01*
X567873Y316694D01*
X567253Y315887D01*
X566863Y314946D01*
X566730Y313937D01*
X566863Y312928D01*
X567253Y311987D01*
X567873Y311180D01*
X568680Y310560D01*
X569621Y310170D01*
X570630Y310037D01*
X571639Y310170D01*
X572580Y310560D01*
X573387Y311180D01*
X574007Y311987D01*
X574397Y312928D01*
X574529Y313937D01*
X574397Y314946D01*
X574007Y315887D01*
X573387Y316694D01*
X572580Y317314D01*
X571639Y317704D01*
X570630Y317836D01*
D02*
G37*
G36*
X540130Y317906D02*
X539586Y317834D01*
X538613Y317431D01*
X537777Y316790D01*
X537136Y315954D01*
X536733Y314981D01*
X536661Y314437D01*
X540130D01*
Y317906D01*
D02*
G37*
G36*
X369608Y316161D02*
Y313197D01*
X372573D01*
X372518Y313611D01*
X372165Y314462D01*
X371604Y315193D01*
X370873Y315754D01*
X370022Y316107D01*
X369608Y316161D01*
D02*
G37*
G36*
X524409Y318749D02*
X523531Y318634D01*
X522712Y318295D01*
X522009Y317755D01*
X521469Y317052D01*
X521130Y316233D01*
X521111Y316086D01*
X477040D01*
X476507Y315980D01*
X476055Y315678D01*
X473306Y312929D01*
X472330Y312524D01*
X471791Y313228D01*
X471087Y313767D01*
X470268Y314106D01*
X469390Y314222D01*
X468511Y314106D01*
X467692Y313767D01*
X466989Y313228D01*
X466449Y312524D01*
X466110Y311705D01*
X465995Y310827D01*
X466110Y309948D01*
X466449Y309129D01*
X466741Y308750D01*
X466436Y308353D01*
X465776Y308627D01*
X465362Y308681D01*
Y305716D01*
X468327D01*
X468272Y306130D01*
X467919Y306982D01*
X467596Y307404D01*
X467900Y307800D01*
X468511Y307547D01*
X469390Y307432D01*
X470268Y307547D01*
X471087Y307887D01*
X471791Y308426D01*
X472330Y309129D01*
X472456Y309434D01*
X473174D01*
X473707Y309540D01*
X474159Y309842D01*
X474835Y310518D01*
X475308Y310357D01*
X475362Y309948D01*
X475701Y309129D01*
X476241Y308426D01*
X476944Y307887D01*
X477763Y307547D01*
X478642Y307432D01*
X479521Y307547D01*
X480339Y307887D01*
X481042Y308426D01*
X481582Y309129D01*
X481708Y309434D01*
X512189D01*
X512316Y309129D01*
X512855Y308426D01*
X513558Y307887D01*
X514377Y307547D01*
X515256Y307432D01*
X516135Y307547D01*
X516954Y307887D01*
X517657Y308426D01*
X518196Y309129D01*
X518535Y309948D01*
X518651Y310827D01*
X518535Y311705D01*
X518196Y312524D01*
X517945Y312852D01*
X518166Y313300D01*
X521743D01*
X522009Y312954D01*
X522712Y312414D01*
X523531Y312075D01*
X524409Y311959D01*
X525288Y312075D01*
X526107Y312414D01*
X526810Y312954D01*
X527350Y313657D01*
X527689Y314476D01*
X527805Y315354D01*
X527689Y316233D01*
X527350Y317052D01*
X526810Y317755D01*
X526107Y318295D01*
X525288Y318634D01*
X524409Y318749D01*
D02*
G37*
G36*
X540130Y313437D02*
X536661D01*
X536733Y312893D01*
X537136Y311920D01*
X537777Y311084D01*
X538613Y310443D01*
X539586Y310040D01*
X540130Y309968D01*
Y313437D01*
D02*
G37*
G36*
X464362Y308681D02*
X463948Y308627D01*
X463097Y308274D01*
X462366Y307713D01*
X461805Y306982D01*
X461452Y306130D01*
X461398Y305716D01*
X464362D01*
Y308681D01*
D02*
G37*
G36*
X546130Y307906D02*
Y304437D01*
X549599D01*
X549527Y304981D01*
X549124Y305954D01*
X548483Y306790D01*
X547647Y307431D01*
X546674Y307834D01*
X546130Y307906D01*
D02*
G37*
G36*
X560630Y317836D02*
X559621Y317704D01*
X558680Y317314D01*
X557873Y316694D01*
X557253Y315887D01*
X556863Y314946D01*
X556730Y313937D01*
X556863Y312928D01*
X557253Y311987D01*
X557873Y311180D01*
X558680Y310560D01*
X559621Y310170D01*
X560630Y310037D01*
X561639Y310170D01*
X562580Y310560D01*
X563387Y311180D01*
X564007Y311987D01*
X564397Y312928D01*
X564529Y313937D01*
X564397Y314946D01*
X564007Y315887D01*
X563387Y316694D01*
X562580Y317314D01*
X561639Y317704D01*
X560630Y317836D01*
D02*
G37*
G36*
X550630D02*
X549621Y317704D01*
X548680Y317314D01*
X547873Y316694D01*
X547253Y315887D01*
X546863Y314946D01*
X546730Y313937D01*
X546863Y312928D01*
X547253Y311987D01*
X547873Y311180D01*
X548680Y310560D01*
X549621Y310170D01*
X550630Y310037D01*
X551639Y310170D01*
X552580Y310560D01*
X553387Y311180D01*
X554007Y311987D01*
X554397Y312928D01*
X554529Y313937D01*
X554397Y314946D01*
X554007Y315887D01*
X553387Y316694D01*
X552580Y317314D01*
X551639Y317704D01*
X550630Y317836D01*
D02*
G37*
G36*
X544599Y313437D02*
X541130D01*
Y309968D01*
X541674Y310040D01*
X542647Y310443D01*
X543483Y311084D01*
X544124Y311920D01*
X544527Y312893D01*
X544599Y313437D01*
D02*
G37*
G36*
X406701Y336240D02*
Y333276D01*
X409665D01*
X409611Y333689D01*
X409258Y334541D01*
X408697Y335272D01*
X407966Y335833D01*
X407115Y336186D01*
X406701Y336240D01*
D02*
G37*
G36*
X484752Y330039D02*
Y327075D01*
X487716D01*
X487662Y327488D01*
X487309Y328340D01*
X486748Y329071D01*
X486017Y329632D01*
X485166Y329985D01*
X484752Y330039D01*
D02*
G37*
G36*
X483752D02*
X483338Y329985D01*
X482487Y329632D01*
X481756Y329071D01*
X481195Y328340D01*
X480842Y327488D01*
X480788Y327075D01*
X483752D01*
Y330039D01*
D02*
G37*
G36*
X402283Y340248D02*
X399319D01*
Y337284D01*
X399733Y337338D01*
X400584Y337691D01*
X401315Y338252D01*
X401876Y338983D01*
X402229Y339834D01*
X402283Y340248D01*
D02*
G37*
G36*
X398319D02*
X395355D01*
X395409Y339834D01*
X395762Y338983D01*
X396323Y338252D01*
X397054Y337691D01*
X397905Y337338D01*
X398319Y337284D01*
Y340248D01*
D02*
G37*
G36*
X398516Y336338D02*
X398102Y336284D01*
X397251Y335931D01*
X396519Y335370D01*
X395958Y334639D01*
X395606Y333788D01*
X395551Y333374D01*
X398516D01*
Y336338D01*
D02*
G37*
G36*
X487716Y326075D02*
X484752D01*
Y323110D01*
X485166Y323165D01*
X486017Y323518D01*
X486748Y324079D01*
X487309Y324810D01*
X487662Y325661D01*
X487716Y326075D01*
D02*
G37*
G36*
X399516Y336338D02*
Y332874D01*
X399016D01*
Y332374D01*
X395551D01*
X395606Y331960D01*
X395958Y331109D01*
X396519Y330378D01*
X397109Y329925D01*
Y329425D01*
X396519Y328973D01*
X395958Y328241D01*
X395606Y327390D01*
X395551Y326976D01*
X399016D01*
Y325976D01*
X395551D01*
X395606Y325563D01*
X395958Y324711D01*
X396519Y323980D01*
X397251Y323419D01*
X398058Y323085D01*
Y322585D01*
X397251Y322250D01*
X396519Y321689D01*
X395958Y320958D01*
X395606Y320107D01*
X395551Y319693D01*
X399016D01*
Y319193D01*
X399516D01*
Y315728D01*
X399929Y315783D01*
X400781Y316136D01*
X401512Y316697D01*
X402073Y317428D01*
X402329Y318047D01*
X402829D01*
X403045Y317526D01*
X403606Y316795D01*
X404337Y316234D01*
X405189Y315881D01*
X405602Y315827D01*
Y319291D01*
X406102D01*
Y319791D01*
X409567D01*
X409512Y320205D01*
X409160Y321056D01*
X408599Y321788D01*
X407867Y322349D01*
X407228Y322614D01*
Y323113D01*
X407966Y323419D01*
X408697Y323980D01*
X409258Y324711D01*
X409611Y325563D01*
X409665Y325976D01*
X406201D01*
Y326976D01*
X409665D01*
X409611Y327390D01*
X409258Y328241D01*
X408697Y328973D01*
X408171Y329376D01*
Y329876D01*
X408697Y330279D01*
X409258Y331011D01*
X409611Y331862D01*
X409665Y332276D01*
X406201D01*
Y332776D01*
X405701D01*
Y336240D01*
X405287Y336186D01*
X404436Y335833D01*
X403705Y335272D01*
X403144Y334541D01*
X402879Y333901D01*
X402379D01*
X402073Y334639D01*
X401512Y335370D01*
X400781Y335931D01*
X399929Y336284D01*
X399516Y336338D01*
D02*
G37*
G36*
X398516Y318693D02*
X395551D01*
X395606Y318279D01*
X395958Y317428D01*
X396519Y316697D01*
X397251Y316136D01*
X398102Y315783D01*
X398516Y315728D01*
Y318693D01*
D02*
G37*
G36*
X541130Y317906D02*
Y314437D01*
X544599D01*
X544527Y314981D01*
X544124Y315954D01*
X543483Y316790D01*
X542647Y317431D01*
X541674Y317834D01*
X541130Y317906D01*
D02*
G37*
G36*
X483752Y326075D02*
X480788D01*
X480842Y325661D01*
X481195Y324810D01*
X481756Y324079D01*
X482487Y323518D01*
X483338Y323165D01*
X483752Y323110D01*
Y326075D01*
D02*
G37*
G36*
X409567Y318791D02*
X406602D01*
Y315827D01*
X407016Y315881D01*
X407867Y316234D01*
X408599Y316795D01*
X409160Y317526D01*
X409512Y318378D01*
X409567Y318791D01*
D02*
G37*
%LPD*%
G36*
X512567Y312852D02*
X512316Y312524D01*
X512189Y312220D01*
X481708D01*
X481582Y312524D01*
X481331Y312852D01*
X481552Y313300D01*
X512346D01*
X512567Y312852D01*
D02*
G37*
D21*
X499902Y260531D02*
D03*
X505413D02*
D03*
D23*
X459646Y175394D02*
D03*
Y180906D02*
D03*
D26*
X684646Y291260D02*
D03*
D31*
X626299Y363189D02*
Y414449D01*
Y130669D02*
Y130827D01*
Y224173D02*
Y274449D01*
Y130827D02*
Y224173D01*
X377638Y423898D02*
X387087Y414449D01*
X377055Y424481D02*
X377638Y423898D01*
Y370118D02*
Y423898D01*
X387087Y414449D02*
X626299D01*
Y363189D02*
X664552D01*
X666922Y365558D01*
X626299Y130669D02*
X667040Y89929D01*
X377055Y424481D02*
Y446292D01*
X626299Y224173D02*
X664001D01*
X420984Y130827D02*
X626299D01*
X380551Y170945D02*
X380866D01*
X420984Y130827D01*
X626299Y274449D02*
Y363189D01*
Y274449D02*
X643110Y291260D01*
X694489D01*
D32*
X513587Y163218D02*
X518037Y158768D01*
X522494Y158014D02*
X522933D01*
X522134Y158374D02*
X522494Y158014D01*
X522134Y158374D02*
X522834Y159074D01*
X433727Y183197D02*
X456658D01*
X433679Y183245D02*
X433727Y183197D01*
X428568Y183245D02*
X433679D01*
X428520Y183197D02*
X428568Y183245D01*
X421859Y183197D02*
X428520D01*
X430405Y177076D02*
X431123D01*
X429913Y176583D02*
X430405Y177076D01*
X429913Y176583D02*
X431606D01*
X425375Y173249D02*
X433602D01*
X479331Y157535D02*
Y173721D01*
X474398Y152601D02*
X479331Y157535D01*
X483291Y169095D02*
X487622Y173425D01*
X493110D01*
X467307Y183197D02*
X476083D01*
X466421Y184083D02*
X467307Y183197D01*
X500295Y168898D02*
X501284Y167909D01*
X500295Y166831D02*
Y168898D01*
X424341Y151673D02*
X429035D01*
X419654Y156360D02*
X424341Y151673D01*
X419654Y156360D02*
Y156571D01*
X371882Y204343D02*
X419654Y156571D01*
X349997Y204343D02*
X371882D01*
X500224Y174043D02*
X503051Y176870D01*
X493728Y174043D02*
X500224D01*
X493110Y173425D02*
X493728Y174043D01*
X451054Y158436D02*
X471092D01*
X434375Y175115D02*
X451054Y158436D01*
X476083Y183197D02*
Y187500D01*
X508167Y162690D02*
X510811Y160046D01*
Y152768D02*
Y160046D01*
X501284Y159656D02*
X511853Y149087D01*
X501284Y159656D02*
Y167909D01*
X511853Y149087D02*
X534377D01*
X426378Y158465D02*
X436319D01*
X435510Y168701D02*
X454900Y149311D01*
X433602Y173249D02*
X453996Y152854D01*
X418799Y168701D02*
X435510D01*
X433074Y175115D02*
X434375D01*
X455109Y149520D02*
X472444D01*
X474398Y151473D02*
Y152601D01*
X472444Y149520D02*
X474398Y151473D01*
X409842Y253839D02*
X412169Y256165D01*
X416179D01*
X418736Y258723D01*
Y279957D02*
X418898Y280118D01*
X363976Y307776D02*
Y322441D01*
Y307776D02*
X392224D01*
X526701Y205205D02*
Y283260D01*
X528567Y204432D02*
Y292201D01*
X530433Y203659D02*
Y284646D01*
X419390Y185666D02*
Y188976D01*
Y185666D02*
X421859Y183197D01*
X456658D02*
X457544Y184083D01*
X466421D01*
X597423Y218012D02*
X605315D01*
X586315Y226480D02*
X605315Y207480D01*
X587088Y228346D02*
X597423Y218012D01*
X561319Y228346D02*
X587088D01*
X556693Y232972D02*
X561319Y228346D01*
X557382Y226480D02*
X586315D01*
X520421Y240551D02*
X520988Y239984D01*
X514528Y240551D02*
X520421D01*
X514528D02*
Y285197D01*
X520990Y239087D02*
X524835Y235242D01*
Y205978D02*
Y235242D01*
X530433Y284646D02*
X532677Y286890D01*
X477040Y314693D02*
X523748D01*
X524409Y315354D01*
X473174Y310827D02*
X477040Y314693D01*
X469390Y310827D02*
X473174D01*
X478642D02*
X515256D01*
X375591Y447756D02*
X385591D01*
X661654Y217598D02*
X663504Y215748D01*
X375591Y447756D02*
X377283Y446063D01*
X528346Y292421D02*
X528567Y292201D01*
X351378Y207677D02*
Y254528D01*
X351673Y254823D01*
X505079Y229232D02*
X505879Y230032D01*
X431606Y176583D02*
X433074Y175115D01*
X524567Y285394D02*
X526701Y283260D01*
X400079Y355827D02*
X400098Y355807D01*
X354724Y331693D02*
X363976Y322441D01*
X513590Y194734D02*
X524835Y205978D01*
X513587Y164169D02*
X513590Y164173D01*
Y194734D01*
X519189Y192414D02*
X530433Y203659D01*
X519189Y175969D02*
Y192414D01*
Y175969D02*
X522673D01*
X526476Y172165D01*
X532590Y152768D02*
X532776Y152953D01*
X534377Y149087D02*
X535586Y150295D01*
X510811Y152768D02*
X532590D01*
X533366Y106102D02*
X540492Y98976D01*
X616339D01*
X522835Y111221D02*
X586319D01*
X522441Y110827D02*
X522835Y111221D01*
X535586Y150295D02*
X540059D01*
X530807Y164173D02*
X534350Y160630D01*
X453996Y152854D02*
X471063D01*
X517323Y175196D02*
Y193187D01*
X528567Y204432D01*
X528345Y164173D02*
X530807D01*
X517323Y175196D02*
X528345Y164173D01*
X515457Y174423D02*
X522834Y167045D01*
X515457Y174423D02*
Y193960D01*
X526701Y205205D01*
X522834Y159074D02*
Y167045D01*
X513587Y163218D02*
Y164169D01*
X375472Y144367D02*
Y145492D01*
X375010Y143905D02*
X375472Y144367D01*
X374920Y143905D02*
X375010D01*
X374016Y144390D02*
X384941Y133465D01*
X389552Y129598D02*
X389684Y129731D01*
X421966Y165366D02*
X422560Y164772D01*
X383340Y129598D02*
X389552D01*
X370866Y142072D02*
Y148721D01*
Y142072D02*
X383340Y129598D01*
X384604Y125695D02*
X385353D01*
X363681Y146618D02*
X384604Y125695D01*
X363681Y146618D02*
Y148819D01*
X411957Y183390D02*
X412402Y182945D01*
X411957Y183390D02*
Y195721D01*
X407902Y199776D02*
X411957Y195721D01*
X407460Y186437D02*
X407511D01*
X407697Y186623D02*
Y193448D01*
X403366Y190659D02*
Y195140D01*
X407511Y186437D02*
X407697Y186623D01*
X404009Y199776D02*
X407902D01*
X398425Y205359D02*
X404009Y199776D01*
X381487Y121096D02*
X381712Y120872D01*
X381487Y121096D02*
Y126172D01*
X362707Y144953D02*
X381487Y126172D01*
X362080Y144953D02*
X362707D01*
X359815Y147218D02*
X362080Y144953D01*
X359815Y147218D02*
Y151045D01*
X363502Y154732D01*
X393326Y226648D02*
Y227373D01*
X392496Y211700D02*
Y217433D01*
X394362Y212473D02*
Y216660D01*
X398248Y213593D02*
Y214055D01*
X394382Y211992D02*
Y212454D01*
X394362Y212473D02*
X394382Y212454D01*
X392496Y211700D02*
X392515Y211681D01*
Y211219D02*
Y211681D01*
X393579Y204927D02*
X403366Y195140D01*
X393579Y204927D02*
Y210156D01*
X392515Y211219D02*
X393579Y210156D01*
X394382Y211992D02*
X395445Y210929D01*
Y205700D02*
Y210929D01*
Y205700D02*
X407697Y193448D01*
X392496Y217433D02*
X393579Y218516D01*
Y220890D01*
X398425Y205359D02*
Y213878D01*
X398248Y214055D02*
X398425Y213878D01*
X394362Y216660D02*
X395347D01*
X389441Y203501D02*
X398248Y194694D01*
X389441Y203501D02*
Y222763D01*
X393326Y226648D01*
X393307Y221161D02*
X393579Y220890D01*
X395347Y216660D02*
X398149Y219463D01*
Y224519D01*
X345280Y95083D02*
X418918D01*
X338976Y88779D02*
X345280Y95083D01*
X425039Y172913D02*
X425375Y173249D01*
X373203Y207677D02*
X389579Y191302D01*
Y191104D02*
Y191302D01*
Y191104D02*
X394657Y186025D01*
X394855D01*
X415514Y165366D01*
X421966D01*
X351378Y207677D02*
X373203D01*
X418736Y258723D02*
Y279957D01*
X347441Y206898D02*
X349997Y204343D01*
X347441Y206898D02*
Y259646D01*
X347342Y259744D02*
X347441Y259646D01*
X347342Y259744D02*
X368745D01*
X371332Y262331D01*
X390425D01*
X399606Y253150D01*
Y247835D02*
Y253150D01*
X413895Y113713D02*
X437173D01*
X440453Y110433D01*
X440945Y110925D01*
X441043D01*
X389173Y115157D02*
X412450D01*
X413895Y113713D01*
D33*
X432852Y180748D02*
X493432D01*
X432705Y180894D02*
X432852Y180748D01*
X429542Y180894D02*
X432705D01*
X429395Y180748D02*
X429542Y180894D01*
X420984Y180748D02*
X429395D01*
X493432D02*
X502135Y189451D01*
X414307Y210378D02*
Y234945D01*
X505079Y229232D02*
Y274882D01*
X466610Y286393D02*
X467126Y286910D01*
X466610Y274882D02*
Y286393D01*
Y274882D02*
X505079D01*
X520669Y232972D02*
Y234238D01*
X520695Y234263D01*
X517729Y230032D02*
X520669Y232972D01*
X505879Y230032D02*
X517729D01*
X502135Y192746D02*
X505079Y195689D01*
X414307Y187425D02*
X420984Y180748D01*
X505079Y195689D02*
Y229232D01*
X414307Y187425D02*
Y210378D01*
X502135Y189451D02*
Y192746D01*
D34*
X601279Y230413D02*
X607185Y236319D01*
Y388779D01*
X554035D02*
X607185D01*
X429528D02*
X554035D01*
X429528Y300590D02*
Y388779D01*
X400591Y271654D02*
X429528Y300590D01*
X400591Y260531D02*
Y271654D01*
X400079Y355827D02*
Y367205D01*
X411741Y174606D02*
X412444D01*
X372933Y213414D02*
Y258465D01*
X392913Y192485D02*
Y193434D01*
Y192485D02*
X396038Y189360D01*
X396988D01*
X411741Y174606D01*
X372933Y213414D02*
X392913Y193434D01*
D35*
X409842Y253839D02*
D03*
X418898Y280118D02*
D03*
X355217Y330217D02*
D03*
X392224Y307776D02*
D03*
X332520Y271988D02*
D03*
Y261850D02*
D03*
Y251713D02*
D03*
Y241476D02*
D03*
Y231437D02*
D03*
Y221299D02*
D03*
Y211161D02*
D03*
Y201122D02*
D03*
X453425Y84095D02*
D03*
X463425D02*
D03*
X473425D02*
D03*
X483425D02*
D03*
X493425D02*
D03*
X503425D02*
D03*
X498425Y94095D02*
D03*
X488425D02*
D03*
X478425D02*
D03*
X468425D02*
D03*
X458425D02*
D03*
X448425D02*
D03*
X595630Y303937D02*
D03*
X585630D02*
D03*
X575630D02*
D03*
X565630D02*
D03*
X555630D02*
D03*
X545630D02*
D03*
X540630Y313937D02*
D03*
X550630D02*
D03*
X560630D02*
D03*
X570630D02*
D03*
X580630D02*
D03*
X590630D02*
D03*
X590630Y176693D02*
D03*
X580630D02*
D03*
X570630D02*
D03*
X560630D02*
D03*
X550630D02*
D03*
X540630D02*
D03*
X545630Y166693D02*
D03*
X555630D02*
D03*
X565630D02*
D03*
X575630D02*
D03*
X585630D02*
D03*
X595630D02*
D03*
X453425Y359567D02*
D03*
X463425D02*
D03*
X473425D02*
D03*
X483425D02*
D03*
X493425D02*
D03*
X503425D02*
D03*
X498425Y369567D02*
D03*
X488425D02*
D03*
X478425D02*
D03*
X468425D02*
D03*
X458425D02*
D03*
X448425D02*
D03*
X658386Y364094D02*
D03*
X668386D02*
D03*
X678386D02*
D03*
X688386D02*
D03*
X698386D02*
D03*
X703386Y354095D02*
D03*
X693386D02*
D03*
X683386D02*
D03*
X673386D02*
D03*
X663386D02*
D03*
X658504Y225748D02*
D03*
X668504D02*
D03*
X678504D02*
D03*
X688504D02*
D03*
X698504D02*
D03*
X703504Y215748D02*
D03*
X693504D02*
D03*
X683504D02*
D03*
X673504D02*
D03*
X663504D02*
D03*
X658504Y88465D02*
D03*
X668504D02*
D03*
X678504D02*
D03*
X688504D02*
D03*
X698504D02*
D03*
X703504Y78465D02*
D03*
X693504D02*
D03*
X683504D02*
D03*
X673504D02*
D03*
X663504D02*
D03*
X385591Y172165D02*
D03*
X375590D02*
D03*
X365591D02*
D03*
X355591D02*
D03*
X345590D02*
D03*
X340591Y182165D02*
D03*
X350590D02*
D03*
X360591D02*
D03*
X370590D02*
D03*
X380591D02*
D03*
X400591Y260531D02*
D03*
X414370D02*
D03*
X400098Y355807D02*
D03*
X413878D02*
D03*
X595669Y448150D02*
D03*
X585669D02*
D03*
X575669D02*
D03*
X565669D02*
D03*
X555669D02*
D03*
X545669D02*
D03*
X540669Y458150D02*
D03*
X550669D02*
D03*
X560669D02*
D03*
X570669D02*
D03*
X580669D02*
D03*
X590669D02*
D03*
X696457Y451142D02*
D03*
Y441142D02*
D03*
X706457Y446142D02*
D03*
Y456142D02*
D03*
X479193Y457874D02*
D03*
X469193D02*
D03*
X474193Y447874D02*
D03*
X484193D02*
D03*
X385591Y447756D02*
D03*
X375591D02*
D03*
X365591D02*
D03*
X355591D02*
D03*
X345591D02*
D03*
X340591Y457756D02*
D03*
X350591D02*
D03*
X360591D02*
D03*
X370591D02*
D03*
X380591D02*
D03*
X348976Y88779D02*
D03*
X338976D02*
D03*
X343976Y78780D02*
D03*
X353976D02*
D03*
X699213Y167283D02*
D03*
Y157283D02*
D03*
X709213Y162284D02*
D03*
Y172283D02*
D03*
D36*
X349410Y420866D02*
D03*
X694685D02*
D03*
Y115354D02*
D03*
X349410D02*
D03*
D37*
X402264Y89862D02*
D03*
X419587D02*
D03*
D38*
X616417Y86535D02*
D03*
D39*
X606417D02*
D03*
X596417D02*
D03*
X586417D02*
D03*
X576417D02*
D03*
X566417D02*
D03*
X508937Y91181D02*
D03*
X535118Y306850D02*
D03*
X535118Y169606D02*
D03*
X508937Y366654D02*
D03*
X708898Y361142D02*
D03*
X709016Y222795D02*
D03*
Y85512D02*
D03*
X335079Y175118D02*
D03*
X535157Y451063D02*
D03*
X703543Y435630D02*
D03*
X463681Y450787D02*
D03*
X335079Y450709D02*
D03*
X333465Y81693D02*
D03*
X706299Y151772D02*
D03*
D40*
X518037Y158571D02*
D03*
X522933Y158014D02*
D03*
X519095Y279232D02*
D03*
X431123Y177076D02*
D03*
X479331Y173721D02*
D03*
X464370Y180748D02*
D03*
X494193Y186909D02*
D03*
X394094Y275098D02*
D03*
X433112Y271358D02*
D03*
X471161Y158366D02*
D03*
X488681Y169587D02*
D03*
X406772Y218012D02*
D03*
X419607Y222747D02*
D03*
X414307Y234945D02*
D03*
X417001Y249763D02*
D03*
X529823Y196653D02*
D03*
X520695Y234263D02*
D03*
X419390Y188976D02*
D03*
X476083Y187500D02*
D03*
X556693Y232972D02*
D03*
X557382Y226480D02*
D03*
X520990Y239087D02*
D03*
X516240Y236910D02*
D03*
X520669Y247638D02*
D03*
X505315Y296260D02*
D03*
X451476Y288386D02*
D03*
X616339Y98976D02*
D03*
X351673Y254823D02*
D03*
X351378Y207677D02*
D03*
X528346Y292421D02*
D03*
X472835Y108366D02*
D03*
X539764Y232874D02*
D03*
X471063Y152854D02*
D03*
X393326Y227373D02*
D03*
X393701Y222047D02*
D03*
X398149Y224519D02*
D03*
X394980Y123327D02*
D03*
X425039Y172913D02*
D03*
X418799Y168701D02*
D03*
D41*
X540748Y219390D02*
D03*
X369108Y312697D02*
D03*
X483291Y169095D02*
D03*
X500295Y166831D02*
D03*
X427027Y194882D02*
D03*
X426673Y157677D02*
D03*
X503051Y176870D02*
D03*
X508167Y162690D02*
D03*
X436319Y158465D02*
D03*
X579528Y250689D02*
D03*
X578150Y354232D02*
D03*
X484252Y326575D02*
D03*
X517224Y443898D02*
D03*
X346063Y140157D02*
D03*
X373425Y104528D02*
D03*
X670374Y138484D02*
D03*
X664173Y249311D02*
D03*
X702264Y402461D02*
D03*
X336024Y409449D02*
D03*
X372933Y258465D02*
D03*
X601279Y230413D02*
D03*
X605315Y218012D02*
D03*
Y207480D02*
D03*
X554035Y388779D02*
D03*
X524409Y315354D02*
D03*
X515256Y310827D02*
D03*
X478642D02*
D03*
X469390D02*
D03*
X429528Y388779D02*
D03*
X406102Y319291D02*
D03*
X464862Y305217D02*
D03*
X467126Y286910D02*
D03*
X406201Y326476D02*
D03*
Y332776D02*
D03*
X406299Y340748D02*
D03*
X399016Y319193D02*
D03*
Y326476D02*
D03*
Y332874D02*
D03*
X398819Y340748D02*
D03*
X524567Y285394D02*
D03*
X514528Y285197D02*
D03*
X561024Y157480D02*
D03*
X414307Y210378D02*
D03*
X405610Y203642D02*
D03*
X526476Y172165D02*
D03*
X532776Y152953D02*
D03*
X440277Y175008D02*
D03*
X521949Y109843D02*
D03*
X533366Y106102D02*
D03*
X586319Y111221D02*
D03*
X540059Y150295D02*
D03*
X534350Y160630D02*
D03*
X479134Y151870D02*
D03*
X384941Y133465D02*
D03*
X374920Y143905D02*
D03*
X363681Y148819D02*
D03*
X412402Y182945D02*
D03*
X403366Y190659D02*
D03*
X385353Y125695D02*
D03*
X370866Y148721D02*
D03*
X407697Y186623D02*
D03*
X381712Y120872D02*
D03*
X363502Y154732D02*
D03*
X398248Y194694D02*
D03*
Y213593D02*
D03*
X418918Y95083D02*
D03*
X389173Y115157D02*
D03*
X389684Y129731D02*
D03*
X412444Y174606D02*
D03*
X399606Y247835D02*
D03*
X422560Y164772D02*
D03*
X441043Y110925D02*
D03*
X429035Y151673D02*
D03*
X441240Y152854D02*
D03*
X532677Y286890D02*
D03*
D42*
X400079Y367205D02*
D03*
X382362D02*
D03*
M02*
