%FSLAX25Y25*%
%MOIN*%
G70*
G01*
G75*
%ADD10R,0.05079X0.04882*%
%ADD11O,0.01575X0.05906*%
%ADD12R,0.01575X0.05906*%
%ADD13R,0.00748X0.03961*%
%ADD14R,0.03961X0.00748*%
%ADD15R,0.08661X0.12992*%
%ADD16R,0.08661X0.03937*%
%ADD17O,0.03150X0.10039*%
%ADD18R,0.12992X0.08268*%
%ADD19R,0.04724X0.08268*%
%ADD20R,0.14567X0.09055*%
%ADD21R,0.03150X0.03543*%
%ADD22R,0.02756X0.03543*%
%ADD23R,0.03543X0.03150*%
%ADD24R,0.03543X0.02756*%
%ADD25R,0.02953X0.03543*%
%ADD26R,0.39370X0.19685*%
%ADD27R,0.03543X0.02953*%
%ADD28O,0.09055X0.01378*%
%ADD29R,0.07874X0.09843*%
%ADD30R,0.01969X0.09055*%
%ADD31C,0.31496*%
%ADD32C,0.01000*%
%ADD33C,0.01969*%
%ADD34C,0.03937*%
%ADD35C,0.06000*%
%ADD36C,0.11811*%
%ADD37C,0.02362*%
%ADD38R,0.05906X0.05906*%
%ADD39C,0.05906*%
%ADD40C,0.03937*%
%ADD41C,0.05000*%
%ADD42R,0.09055X0.09055*%
%ADD43C,0.00787*%
%ADD44C,0.01181*%
%ADD45C,0.00984*%
%ADD46C,0.02362*%
%ADD47C,0.00394*%
%ADD48R,0.05879X0.05682*%
%ADD49O,0.02375X0.06706*%
%ADD50R,0.02375X0.06706*%
%ADD51R,0.01548X0.04761*%
%ADD52R,0.04761X0.01548*%
%ADD53R,0.09461X0.13792*%
%ADD54R,0.09461X0.04737*%
%ADD55O,0.03950X0.10839*%
%ADD56R,0.13792X0.09068*%
%ADD57R,0.05524X0.09068*%
%ADD58R,0.15367X0.09855*%
%ADD59R,0.03950X0.04343*%
%ADD60R,0.03556X0.04343*%
%ADD61R,0.04343X0.03950*%
%ADD62R,0.04343X0.03556*%
%ADD63R,0.03753X0.04343*%
%ADD64R,0.40170X0.20485*%
%ADD65R,0.04343X0.03753*%
%ADD66O,0.09855X0.02178*%
%ADD67R,0.08674X0.10642*%
%ADD68R,0.02769X0.09855*%
%ADD69C,0.06800*%
%ADD70C,0.12611*%
%ADD71C,0.03162*%
%ADD72R,0.06706X0.06706*%
%ADD73C,0.06706*%
%ADD74C,0.04737*%
%ADD75C,0.05800*%
%ADD76R,0.09855X0.09855*%
%ADD77C,0.04724*%
%ADD78C,0.00500*%
%ADD79C,0.00667*%
D32*
X511890Y91181D02*
G03*
X511890Y91181I-2953J0D01*
G01*
X538071Y306850D02*
G03*
X538071Y306850I-2953J0D01*
G01*
X538071Y169606D02*
G03*
X538071Y169606I-2953J0D01*
G01*
X511890Y366654D02*
G03*
X511890Y366654I-2953J0D01*
G01*
X711850Y361181D02*
G03*
X711850Y361181I-2953J0D01*
G01*
X711969Y222835D02*
G03*
X711969Y222835I-2953J0D01*
G01*
Y85551D02*
G03*
X711969Y85551I-2953J0D01*
G01*
X338032Y175079D02*
G03*
X338032Y175079I-2953J0D01*
G01*
X538110Y451063D02*
G03*
X538110Y451063I-2953J0D01*
G01*
X706496Y435630D02*
G03*
X706496Y435630I-2953J0D01*
G01*
X466634Y450787D02*
G03*
X466634Y450787I-2953J0D01*
G01*
X338032Y450669D02*
G03*
X338032Y450669I-2953J0D01*
G01*
X336417Y81693D02*
G03*
X336417Y81693I-2953J0D01*
G01*
X709252Y151772D02*
G03*
X709252Y151772I-2953J0D01*
G01*
D78*
X408343Y253839D02*
X411342D01*
X409842Y252339D02*
Y255339D01*
X417398Y280118D02*
X420398D01*
X418898Y278618D02*
Y281618D01*
X353716Y330217D02*
X356716D01*
X355217Y328716D02*
Y331716D01*
X390724Y307776D02*
X393724D01*
X392224Y306276D02*
Y309276D01*
X331020Y271988D02*
X334020D01*
X332520Y270488D02*
Y273488D01*
X331020Y261850D02*
X334020D01*
X332520Y260350D02*
Y263350D01*
X331020Y251713D02*
X334020D01*
X332520Y250213D02*
Y253213D01*
X331020Y241476D02*
X334020D01*
X332520Y239976D02*
Y242976D01*
X331020Y231437D02*
X334020D01*
X332520Y229937D02*
Y232937D01*
X331020Y221299D02*
X334020D01*
X332520Y219799D02*
Y222799D01*
X331020Y211161D02*
X334020D01*
X332520Y209661D02*
Y212661D01*
X331020Y201122D02*
X334020D01*
X332520Y199622D02*
Y202622D01*
X451925Y84095D02*
X454925D01*
X453425Y82595D02*
Y85594D01*
X461925Y84095D02*
X464925D01*
X463425Y82595D02*
Y85594D01*
X471925Y84095D02*
X474925D01*
X473425Y82595D02*
Y85594D01*
X481925Y84095D02*
X484925D01*
X483425Y82595D02*
Y85594D01*
X491925Y84095D02*
X494925D01*
X493425Y82595D02*
Y85594D01*
X501925Y84095D02*
X504925D01*
X503425Y82595D02*
Y85594D01*
X496925Y94095D02*
X499925D01*
X498425Y92594D02*
Y95595D01*
X486925Y94095D02*
X489925D01*
X488425Y92594D02*
Y95595D01*
X476925Y94095D02*
X479925D01*
X478425Y92594D02*
Y95595D01*
X466925Y94095D02*
X469925D01*
X468425Y92594D02*
Y95595D01*
X456925Y94095D02*
X459925D01*
X458425Y92594D02*
Y95595D01*
X446925Y94095D02*
X449925D01*
X448425Y92594D02*
Y95595D01*
X594130Y303937D02*
X597130D01*
X595630Y302437D02*
Y305437D01*
X584130Y303937D02*
X587130D01*
X585630Y302437D02*
Y305437D01*
X574130Y303937D02*
X577130D01*
X575630Y302437D02*
Y305437D01*
X564130Y303937D02*
X567130D01*
X565630Y302437D02*
Y305437D01*
X554130Y303937D02*
X557130D01*
X555630Y302437D02*
Y305437D01*
X544130Y303937D02*
X547130D01*
X545630Y302437D02*
Y305437D01*
X539130Y313937D02*
X542130D01*
X540630Y312437D02*
Y315437D01*
X549130Y313937D02*
X552130D01*
X550630Y312437D02*
Y315437D01*
X559130Y313937D02*
X562130D01*
X560630Y312437D02*
Y315437D01*
X569130Y313937D02*
X572130D01*
X570630Y312437D02*
Y315437D01*
X579130Y313937D02*
X582130D01*
X580630Y312437D02*
Y315437D01*
X589130Y313937D02*
X592130D01*
X590630Y312437D02*
Y315437D01*
X589130Y176693D02*
X592130D01*
X590630Y175193D02*
Y178193D01*
X579130Y176693D02*
X582130D01*
X580630Y175193D02*
Y178193D01*
X569130Y176693D02*
X572130D01*
X570630Y175193D02*
Y178193D01*
X559130Y176693D02*
X562130D01*
X560630Y175193D02*
Y178193D01*
X549130Y176693D02*
X552130D01*
X550630Y175193D02*
Y178193D01*
X539130Y176693D02*
X542130D01*
X540630Y175193D02*
Y178193D01*
X544130Y166693D02*
X547130D01*
X545630Y165193D02*
Y168193D01*
X554130Y166693D02*
X557130D01*
X555630Y165193D02*
Y168193D01*
X564130Y166693D02*
X567130D01*
X565630Y165193D02*
Y168193D01*
X574130Y166693D02*
X577130D01*
X575630Y165193D02*
Y168193D01*
X584130Y166693D02*
X587130D01*
X585630Y165193D02*
Y168193D01*
X594130Y166693D02*
X597130D01*
X595630Y165193D02*
Y168193D01*
X451925Y359567D02*
X454925D01*
X453425Y358067D02*
Y361067D01*
X461925Y359567D02*
X464925D01*
X463425Y358067D02*
Y361067D01*
X471925Y359567D02*
X474925D01*
X473425Y358067D02*
Y361067D01*
X481925Y359567D02*
X484925D01*
X483425Y358067D02*
Y361067D01*
X491925Y359567D02*
X494925D01*
X493425Y358067D02*
Y361067D01*
X501925Y359567D02*
X504925D01*
X503425Y358067D02*
Y361067D01*
X496925Y369567D02*
X499925D01*
X498425Y368067D02*
Y371067D01*
X486925Y369567D02*
X489925D01*
X488425Y368067D02*
Y371067D01*
X476925Y369567D02*
X479925D01*
X478425Y368067D02*
Y371067D01*
X466925Y369567D02*
X469925D01*
X468425Y368067D02*
Y371067D01*
X456925Y369567D02*
X459925D01*
X458425Y368067D02*
Y371067D01*
X446925Y369567D02*
X449925D01*
X448425Y368067D02*
Y371067D01*
X656886Y364094D02*
X659886D01*
X658386Y362595D02*
Y365595D01*
X666886Y364094D02*
X669886D01*
X668386Y362595D02*
Y365595D01*
X676886Y364094D02*
X679886D01*
X678386Y362595D02*
Y365595D01*
X686886Y364094D02*
X689886D01*
X688386Y362595D02*
Y365595D01*
X696886Y364094D02*
X699886D01*
X698386Y362595D02*
Y365595D01*
X701886Y354095D02*
X704886D01*
X703386Y352594D02*
Y355594D01*
X691886Y354095D02*
X694886D01*
X693386Y352594D02*
Y355594D01*
X681886Y354095D02*
X684886D01*
X683386Y352594D02*
Y355594D01*
X671886Y354095D02*
X674886D01*
X673386Y352594D02*
Y355594D01*
X661886Y354095D02*
X664886D01*
X663386Y352594D02*
Y355594D01*
X657004Y225748D02*
X660004D01*
X658504Y224248D02*
Y227248D01*
X667004Y225748D02*
X670004D01*
X668504Y224248D02*
Y227248D01*
X677004Y225748D02*
X680004D01*
X678504Y224248D02*
Y227248D01*
X687004Y225748D02*
X690004D01*
X688504Y224248D02*
Y227248D01*
X697004Y225748D02*
X700004D01*
X698504Y224248D02*
Y227248D01*
X702004Y215748D02*
X705004D01*
X703504Y214248D02*
Y217248D01*
X692004Y215748D02*
X695004D01*
X693504Y214248D02*
Y217248D01*
X682004Y215748D02*
X685004D01*
X683504Y214248D02*
Y217248D01*
X672004Y215748D02*
X675004D01*
X673504Y214248D02*
Y217248D01*
X662004Y215748D02*
X665004D01*
X663504Y214248D02*
Y217248D01*
X657004Y88465D02*
X660004D01*
X658504Y86965D02*
Y89965D01*
X667004Y88465D02*
X670004D01*
X668504Y86965D02*
Y89965D01*
X677004Y88465D02*
X680004D01*
X678504Y86965D02*
Y89965D01*
X687004Y88465D02*
X690004D01*
X688504Y86965D02*
Y89965D01*
X697004Y88465D02*
X700004D01*
X698504Y86965D02*
Y89965D01*
X702004Y78465D02*
X705004D01*
X703504Y76965D02*
Y79965D01*
X692004Y78465D02*
X695004D01*
X693504Y76965D02*
Y79965D01*
X682004Y78465D02*
X685004D01*
X683504Y76965D02*
Y79965D01*
X672004Y78465D02*
X675004D01*
X673504Y76965D02*
Y79965D01*
X662004Y78465D02*
X665004D01*
X663504Y76965D02*
Y79965D01*
X384090Y172165D02*
X387090D01*
X385591Y170665D02*
Y173665D01*
X374091Y172165D02*
X377091D01*
X375590Y170665D02*
Y173665D01*
X364090Y172165D02*
X367091D01*
X365591Y170665D02*
Y173665D01*
X354090Y172165D02*
X357090D01*
X355591Y170665D02*
Y173665D01*
X344091Y172165D02*
X347091D01*
X345590Y170665D02*
Y173665D01*
X339090Y182165D02*
X342091D01*
X340591Y180665D02*
Y183665D01*
X349091Y182165D02*
X352091D01*
X350590Y180665D02*
Y183665D01*
X359090Y182165D02*
X362090D01*
X360591Y180665D02*
Y183665D01*
X369091Y182165D02*
X372091D01*
X370590Y180665D02*
Y183665D01*
X379090Y182165D02*
X382090D01*
X380591Y180665D02*
Y183665D01*
X399091Y260531D02*
X402091D01*
X400591Y259032D02*
Y262032D01*
X412870Y260531D02*
X415870D01*
X414370Y259032D02*
Y262032D01*
X398598Y355807D02*
X401598D01*
X400098Y354307D02*
Y357307D01*
X412378Y355807D02*
X415378D01*
X413878Y354307D02*
Y357307D01*
X594169Y448150D02*
X597169D01*
X595669Y446650D02*
Y449650D01*
X584169Y448150D02*
X587169D01*
X585669Y446650D02*
Y449650D01*
X574169Y448150D02*
X577169D01*
X575669Y446650D02*
Y449650D01*
X564169Y448150D02*
X567169D01*
X565669Y446650D02*
Y449650D01*
X554169Y448150D02*
X557169D01*
X555669Y446650D02*
Y449650D01*
X544169Y448150D02*
X547169D01*
X545669Y446650D02*
Y449650D01*
X539169Y458150D02*
X542169D01*
X540669Y456650D02*
Y459650D01*
X549169Y458150D02*
X552169D01*
X550669Y456650D02*
Y459650D01*
X559169Y458150D02*
X562169D01*
X560669Y456650D02*
Y459650D01*
X569169Y458150D02*
X572169D01*
X570669Y456650D02*
Y459650D01*
X579169Y458150D02*
X582169D01*
X580669Y456650D02*
Y459650D01*
X589169Y458150D02*
X592169D01*
X590669Y456650D02*
Y459650D01*
X694957Y451142D02*
X697957D01*
X696457Y449642D02*
Y452642D01*
X694957Y441142D02*
X697957D01*
X696457Y439642D02*
Y442642D01*
X704957Y446142D02*
X707957D01*
X706457Y444642D02*
Y447642D01*
X704957Y456142D02*
X707957D01*
X706457Y454642D02*
Y457642D01*
X477693Y457874D02*
X480693D01*
X479193Y456374D02*
Y459374D01*
X467693Y457874D02*
X470693D01*
X469193Y456374D02*
Y459374D01*
X472693Y447874D02*
X475693D01*
X474193Y446374D02*
Y449374D01*
X482693Y447874D02*
X485693D01*
X484193Y446374D02*
Y449374D01*
X384091Y447756D02*
X387091D01*
X385591Y446256D02*
Y449256D01*
X374091Y447756D02*
X377091D01*
X375591Y446256D02*
Y449256D01*
X364091Y447756D02*
X367091D01*
X365591Y446256D02*
Y449256D01*
X354091Y447756D02*
X357091D01*
X355591Y446256D02*
Y449256D01*
X344091Y447756D02*
X347091D01*
X345591Y446256D02*
Y449256D01*
X339091Y457756D02*
X342091D01*
X340591Y456256D02*
Y459256D01*
X349091Y457756D02*
X352091D01*
X350591Y456256D02*
Y459256D01*
X359091Y457756D02*
X362091D01*
X360591Y456256D02*
Y459256D01*
X369091Y457756D02*
X372091D01*
X370591Y456256D02*
Y459256D01*
X379091Y457756D02*
X382091D01*
X380591Y456256D02*
Y459256D01*
X343504Y420866D02*
X355315D01*
X349410Y414961D02*
Y426772D01*
X688779Y420866D02*
X700591D01*
X694685Y414961D02*
Y426772D01*
X688779Y115354D02*
X700591D01*
X694685Y109449D02*
Y121260D01*
X343504Y115354D02*
X355315D01*
X349410Y109449D02*
Y121260D01*
X347476Y88779D02*
X350476D01*
X348976Y87279D02*
Y90280D01*
X337476Y88779D02*
X340476D01*
X338976Y87279D02*
Y90280D01*
X342476Y78780D02*
X345476D01*
X343976Y77280D02*
Y80279D01*
X352476Y78780D02*
X355476D01*
X353976Y77280D02*
Y80279D01*
X400492Y89862D02*
X404036D01*
X402264Y88091D02*
Y91634D01*
X417815Y89862D02*
X421358D01*
X419587Y88091D02*
Y91634D01*
X614646Y86535D02*
X618189D01*
X616417Y84764D02*
Y88307D01*
X604646Y86535D02*
X608189D01*
X606417Y84764D02*
Y88307D01*
X594646Y86535D02*
X598189D01*
X596417Y84764D02*
Y88307D01*
X584646Y86535D02*
X588189D01*
X586417Y84764D02*
Y88307D01*
X574646Y86535D02*
X578189D01*
X576417Y84764D02*
Y88307D01*
X564646Y86535D02*
X568189D01*
X566417Y84764D02*
Y88307D01*
X697713Y167283D02*
X700713D01*
X699213Y165784D02*
Y168783D01*
X697713Y157283D02*
X700713D01*
X699213Y155783D02*
Y158783D01*
X707713Y162284D02*
X710713D01*
X709213Y160784D02*
Y163784D01*
X707713Y172283D02*
X710713D01*
X709213Y170783D02*
Y173784D01*
X516637Y158571D02*
X519437D01*
X518037Y157171D02*
Y159971D01*
X521533Y158014D02*
X524333D01*
X522933Y156614D02*
Y159414D01*
X539348Y219390D02*
X542148D01*
X540748Y217990D02*
Y220790D01*
X517695Y279232D02*
X520495D01*
X519095Y277832D02*
Y280632D01*
X429723Y177076D02*
X432523D01*
X431123Y175676D02*
Y178476D01*
X367708Y312697D02*
X370508D01*
X369108Y311297D02*
Y314097D01*
X477931Y173721D02*
X480731D01*
X479331Y172320D02*
Y175120D01*
X481891Y169095D02*
X484691D01*
X483291Y167694D02*
Y170494D01*
X462970Y180748D02*
X465770D01*
X464370Y179348D02*
Y182148D01*
X498895Y166831D02*
X501695D01*
X500295Y165431D02*
Y168231D01*
X425627Y194882D02*
X428427D01*
X427027Y193482D02*
Y196282D01*
X425273Y157677D02*
X428073D01*
X426673Y156277D02*
Y159077D01*
X492793Y186909D02*
X495593D01*
X494193Y185509D02*
Y188309D01*
X501651Y176870D02*
X504451D01*
X503051Y175470D02*
Y178270D01*
X392694Y275098D02*
X395495D01*
X394094Y273698D02*
Y276498D01*
X431712Y271358D02*
X434512D01*
X433112Y269958D02*
Y272758D01*
X469761Y158366D02*
X472561D01*
X471161Y156966D02*
Y159766D01*
X487281Y169587D02*
X490081D01*
X488681Y168187D02*
Y170987D01*
X506767Y162690D02*
X509566D01*
X508167Y161290D02*
Y164090D01*
X434919Y158465D02*
X437719D01*
X436319Y157065D02*
Y159865D01*
X405372Y218012D02*
X408172D01*
X406772Y216612D02*
Y219412D01*
X418207Y222747D02*
X421007D01*
X419607Y221347D02*
Y224147D01*
X412907Y234945D02*
X415707D01*
X414307Y233545D02*
Y236345D01*
X415602Y249763D02*
X418401D01*
X417001Y248363D02*
Y251162D01*
X578128Y250689D02*
X580928D01*
X579528Y249289D02*
Y252089D01*
X576750Y354232D02*
X579550D01*
X578150Y352832D02*
Y355632D01*
X482852Y326575D02*
X485652D01*
X484252Y325175D02*
Y327975D01*
X515824Y443898D02*
X518624D01*
X517224Y442498D02*
Y445298D01*
X344663Y140157D02*
X347463D01*
X346063Y138758D02*
Y141558D01*
X372025Y104528D02*
X374825D01*
X373425Y103128D02*
Y105928D01*
X668974Y138484D02*
X671774D01*
X670374Y137084D02*
Y139884D01*
X662773Y249311D02*
X665573D01*
X664173Y247911D02*
Y250711D01*
X700864Y402461D02*
X703664D01*
X702264Y401061D02*
Y403861D01*
X334624Y409449D02*
X337424D01*
X336024Y408049D02*
Y410849D01*
X505984Y91181D02*
X511890D01*
X508937Y88228D02*
Y94134D01*
X532165Y306850D02*
X538071D01*
X535118Y303898D02*
Y309803D01*
X532165Y169606D02*
X538071D01*
X535118Y166654D02*
Y172559D01*
X505984Y366654D02*
X511890D01*
X508937Y363701D02*
Y369606D01*
X705945Y361142D02*
X711850D01*
X708898Y358189D02*
Y364094D01*
X706063Y222795D02*
X711969D01*
X709016Y219843D02*
Y225748D01*
X706063Y85512D02*
X711969D01*
X709016Y82559D02*
Y88465D01*
X332126Y175118D02*
X338032D01*
X335079Y172165D02*
Y178071D01*
X528423Y196653D02*
X531223D01*
X529823Y195254D02*
Y198054D01*
X519295Y234263D02*
X522095D01*
X520695Y232863D02*
Y235663D01*
X371533Y258465D02*
X374333D01*
X372933Y257065D02*
Y259865D01*
X417990Y188976D02*
X420790D01*
X419390Y187576D02*
Y190376D01*
X474683Y187500D02*
X477483D01*
X476083Y186100D02*
Y188900D01*
X599880Y230413D02*
X602679D01*
X601279Y229013D02*
Y231813D01*
X603915Y218012D02*
X606715D01*
X605315Y216612D02*
Y219412D01*
X603915Y207480D02*
X606715D01*
X605315Y206080D02*
Y208880D01*
X555293Y232972D02*
X558093D01*
X556693Y231572D02*
Y234372D01*
X555982Y226480D02*
X558782D01*
X557382Y225080D02*
Y227880D01*
X519590Y239087D02*
X522390D01*
X520990Y237686D02*
Y240487D01*
X514840Y236910D02*
X517640D01*
X516240Y235509D02*
Y238310D01*
X519269Y247638D02*
X522069D01*
X520669Y246238D02*
Y249038D01*
X552635Y388779D02*
X555435D01*
X554035Y387380D02*
Y390179D01*
X523009Y315354D02*
X525809D01*
X524409Y313954D02*
Y316754D01*
X513856Y310827D02*
X516656D01*
X515256Y309427D02*
Y312227D01*
X477242Y310827D02*
X480042D01*
X478642Y309427D02*
Y312227D01*
X467990Y310827D02*
X470790D01*
X469390Y309427D02*
Y312227D01*
X503915Y296260D02*
X506715D01*
X505315Y294860D02*
Y297660D01*
X428128Y388779D02*
X430928D01*
X429528Y387380D02*
Y390179D01*
X404702Y319291D02*
X407502D01*
X406102Y317891D02*
Y320691D01*
X463462Y305217D02*
X466262D01*
X464862Y303817D02*
Y306616D01*
X465726Y286910D02*
X468526D01*
X467126Y285509D02*
Y288310D01*
X450076Y288386D02*
X452876D01*
X451476Y286986D02*
Y289786D01*
X404801Y326476D02*
X407601D01*
X406201Y325076D02*
Y327876D01*
X404801Y332776D02*
X407601D01*
X406201Y331376D02*
Y334176D01*
X404899Y340748D02*
X407699D01*
X406299Y339348D02*
Y342148D01*
X397616Y319193D02*
X400416D01*
X399016Y317793D02*
Y320593D01*
X397616Y326476D02*
X400416D01*
X399016Y325076D02*
Y327876D01*
X397616Y332874D02*
X400416D01*
X399016Y331474D02*
Y334274D01*
X397419Y340748D02*
X400219D01*
X398819Y339348D02*
Y342148D01*
X523167Y285394D02*
X525967D01*
X524567Y283994D02*
Y286794D01*
X513128Y285197D02*
X515928D01*
X514528Y283797D02*
Y286597D01*
X614939Y98976D02*
X617739D01*
X616339Y97576D02*
Y100376D01*
X350273Y254823D02*
X353073D01*
X351673Y253423D02*
Y256223D01*
X349978Y207677D02*
X352778D01*
X351378Y206277D02*
Y209077D01*
X559624Y157480D02*
X562424D01*
X561024Y156080D02*
Y158880D01*
X526946Y292421D02*
X529746D01*
X528346Y291021D02*
Y293821D01*
X412907Y210378D02*
X415707D01*
X414307Y208978D02*
Y211778D01*
X471435Y108366D02*
X474235D01*
X472835Y106966D02*
Y109766D01*
X538364Y232874D02*
X541164D01*
X539764Y231474D02*
Y234274D01*
X404210Y203642D02*
X407010D01*
X405610Y202242D02*
Y205042D01*
X532205Y451063D02*
X538110D01*
X535157Y448110D02*
Y454016D01*
X700591Y435630D02*
X706496D01*
X703543Y432677D02*
Y438583D01*
X460728Y450787D02*
X466634D01*
X463681Y447835D02*
Y453740D01*
X332126Y450709D02*
X338032D01*
X335079Y447756D02*
Y453661D01*
X525076Y172165D02*
X527876D01*
X526476Y170765D02*
Y173565D01*
X531376Y152953D02*
X534176D01*
X532776Y151553D02*
Y154353D01*
X438877Y175008D02*
X441677D01*
X440277Y173609D02*
Y176409D01*
X520549Y109843D02*
X523349D01*
X521949Y108442D02*
Y111242D01*
X531966Y106102D02*
X534766D01*
X533366Y104702D02*
Y107502D01*
X584919Y111221D02*
X587719D01*
X586319Y109820D02*
Y112620D01*
X538659Y150295D02*
X541459D01*
X540059Y148895D02*
Y151695D01*
X532950Y160630D02*
X535750D01*
X534350Y159230D02*
Y162030D01*
X469663Y152854D02*
X472463D01*
X471063Y151454D02*
Y154254D01*
X477734Y151870D02*
X480534D01*
X479134Y150470D02*
Y153270D01*
X383541Y133465D02*
X386341D01*
X384941Y132065D02*
Y134865D01*
X373520Y143905D02*
X376320D01*
X374920Y142505D02*
Y145305D01*
X362281Y148819D02*
X365081D01*
X363681Y147419D02*
Y150219D01*
X411002Y182945D02*
X413802D01*
X412402Y181545D02*
Y184345D01*
X401966Y190659D02*
X404766D01*
X403366Y189259D02*
Y192059D01*
X383953Y125695D02*
X386754D01*
X385353Y124295D02*
Y127095D01*
X369466Y148721D02*
X372266D01*
X370866Y147320D02*
Y150120D01*
X406297Y186623D02*
X409097D01*
X407697Y185223D02*
Y188023D01*
X380311Y120872D02*
X383112D01*
X381712Y119472D02*
Y122272D01*
X362102Y154732D02*
X364902D01*
X363502Y153332D02*
Y156132D01*
X391926Y227373D02*
X394726D01*
X393326Y225973D02*
Y228773D01*
X396848Y194694D02*
X399648D01*
X398248Y193295D02*
Y196095D01*
X396848Y213593D02*
X399648D01*
X398248Y212193D02*
Y214993D01*
X392301Y222047D02*
X395101D01*
X393701Y220647D02*
Y223447D01*
X396749Y224519D02*
X399549D01*
X398149Y223119D02*
Y225919D01*
X417518Y95083D02*
X420318D01*
X418918Y93683D02*
Y96483D01*
X387773Y115157D02*
X390573D01*
X389173Y113758D02*
Y116558D01*
X388284Y129731D02*
X391084D01*
X389684Y128331D02*
Y131131D01*
X393580Y123327D02*
X396380D01*
X394980Y121927D02*
Y124727D01*
X423639Y172913D02*
X426439D01*
X425039Y171513D02*
Y174313D01*
X411044Y174606D02*
X413844D01*
X412444Y173206D02*
Y176006D01*
X417399Y168701D02*
X420199D01*
X418799Y167301D02*
Y170101D01*
X398206Y247835D02*
X401006D01*
X399606Y246435D02*
Y249235D01*
X421160Y164772D02*
X423960D01*
X422560Y163372D02*
Y166172D01*
X439643Y110925D02*
X442443D01*
X441043Y109525D02*
Y112325D01*
X427635Y151673D02*
X430435D01*
X429035Y150273D02*
Y153073D01*
X439840Y152854D02*
X442640D01*
X441240Y151454D02*
Y154254D01*
X531277Y286890D02*
X534077D01*
X532677Y285490D02*
Y288290D01*
X330512Y81693D02*
X336417D01*
X333465Y78740D02*
Y84646D01*
X703346Y151772D02*
X709252D01*
X706299Y148819D02*
Y154724D01*
M02*
