%FSLAX25Y25*%
%MOIN*%
G70*
G01*
G75*
G04 Layer_Color=2752767*
%ADD10R,0.05079X0.04882*%
%ADD11O,0.01575X0.05906*%
%ADD12R,0.01575X0.05906*%
%ADD13R,0.00748X0.03961*%
%ADD14R,0.03961X0.00748*%
%ADD15R,0.08661X0.12992*%
%ADD16R,0.08661X0.03937*%
%ADD17O,0.03150X0.10039*%
%ADD18R,0.12992X0.08268*%
%ADD19R,0.04724X0.08268*%
%ADD20R,0.14567X0.09055*%
%ADD21R,0.03150X0.03543*%
%ADD22R,0.02756X0.03543*%
%ADD23R,0.03543X0.03150*%
%ADD24R,0.03543X0.02756*%
%ADD25R,0.02953X0.03543*%
%ADD26R,0.39370X0.19685*%
%ADD27R,0.03543X0.02953*%
%ADD28O,0.09055X0.01378*%
%ADD29R,0.07874X0.09843*%
%ADD30R,0.01969X0.09055*%
%ADD31C,0.31496*%
%ADD32C,0.01000*%
%ADD33C,0.01969*%
%ADD34C,0.03937*%
%ADD35C,0.06000*%
%ADD36C,0.11811*%
%ADD37C,0.02362*%
%ADD38R,0.05906X0.05906*%
%ADD39C,0.05906*%
%ADD40C,0.03937*%
%ADD41C,0.05000*%
%ADD42R,0.09055X0.09055*%
%ADD43C,0.00787*%
%ADD44C,0.01181*%
%ADD45C,0.00984*%
%ADD46C,0.02362*%
%ADD47C,0.00394*%
%ADD48R,0.05879X0.05682*%
%ADD49O,0.02375X0.06706*%
%ADD50R,0.02375X0.06706*%
%ADD51R,0.01548X0.04761*%
%ADD52R,0.04761X0.01548*%
%ADD53R,0.09461X0.13792*%
%ADD54R,0.09461X0.04737*%
%ADD55O,0.03950X0.10839*%
%ADD56R,0.13792X0.09068*%
%ADD57R,0.05524X0.09068*%
%ADD58R,0.15367X0.09855*%
%ADD59R,0.03950X0.04343*%
%ADD60R,0.03556X0.04343*%
%ADD61R,0.04343X0.03950*%
%ADD62R,0.04343X0.03556*%
%ADD63R,0.03753X0.04343*%
%ADD64R,0.40170X0.20485*%
%ADD65R,0.04343X0.03753*%
%ADD66O,0.09855X0.02178*%
%ADD67R,0.08674X0.10642*%
%ADD68R,0.02769X0.09855*%
%ADD69C,0.06800*%
%ADD70C,0.12611*%
%ADD71C,0.03162*%
%ADD72R,0.06706X0.06706*%
%ADD73C,0.06706*%
%ADD74C,0.04737*%
%ADD75C,0.05800*%
%ADD76R,0.09855X0.09855*%
%ADD77C,0.04724*%
%ADD78C,0.00500*%
%ADD79C,0.00667*%
D78*
X407842Y251839D02*
Y255839D01*
X411842D01*
Y251839D01*
X407842D01*
X416898Y278118D02*
Y282118D01*
X420898D01*
Y278118D01*
X416898D01*
X353217Y328217D02*
Y332217D01*
X357217D01*
Y328217D01*
X353217D01*
X390224Y305776D02*
Y309776D01*
X394224D01*
Y305776D01*
X390224D01*
X330520Y269988D02*
Y273988D01*
X334520D01*
Y269988D01*
X330520D01*
Y259850D02*
Y263850D01*
X334520D01*
Y259850D01*
X330520D01*
Y249713D02*
Y253713D01*
X334520D01*
Y249713D01*
X330520D01*
Y239476D02*
Y243476D01*
X334520D01*
Y239476D01*
X330520D01*
Y229437D02*
Y233437D01*
X334520D01*
Y229437D01*
X330520D01*
Y219299D02*
Y223299D01*
X334520D01*
Y219299D01*
X330520D01*
Y209161D02*
Y213161D01*
X334520D01*
Y209161D01*
X330520D01*
Y199122D02*
Y203122D01*
X334520D01*
Y199122D01*
X330520D01*
X451425Y82095D02*
Y86094D01*
X455425D01*
Y82095D01*
X451425D01*
X461425D02*
Y86094D01*
X465425D01*
Y82095D01*
X461425D01*
X471425D02*
Y86094D01*
X475425D01*
Y82095D01*
X471425D01*
X481425D02*
Y86094D01*
X485425D01*
Y82095D01*
X481425D01*
X491425D02*
Y86094D01*
X495425D01*
Y82095D01*
X491425D01*
X501425D02*
Y86094D01*
X505425D01*
Y82095D01*
X501425D01*
X496425Y92094D02*
Y96095D01*
X500425D01*
Y92094D01*
X496425D01*
X486425D02*
Y96095D01*
X490425D01*
Y92094D01*
X486425D01*
X476425D02*
Y96095D01*
X480425D01*
Y92094D01*
X476425D01*
X466425D02*
Y96095D01*
X470425D01*
Y92094D01*
X466425D01*
X456425D02*
Y96095D01*
X460425D01*
Y92094D01*
X456425D01*
X446425D02*
Y96095D01*
X450425D01*
Y92094D01*
X446425D01*
X593630Y301937D02*
Y305937D01*
X597630D01*
Y301937D01*
X593630D01*
X583630D02*
Y305937D01*
X587630D01*
Y301937D01*
X583630D01*
X573630D02*
Y305937D01*
X577630D01*
Y301937D01*
X573630D01*
X563630D02*
Y305937D01*
X567630D01*
Y301937D01*
X563630D01*
X553630D02*
Y305937D01*
X557630D01*
Y301937D01*
X553630D01*
X543630D02*
Y305937D01*
X547630D01*
Y301937D01*
X543630D01*
X538630Y311937D02*
Y315937D01*
X542630D01*
Y311937D01*
X538630D01*
X548630D02*
Y315937D01*
X552630D01*
Y311937D01*
X548630D01*
X558630D02*
Y315937D01*
X562630D01*
Y311937D01*
X558630D01*
X568630D02*
Y315937D01*
X572630D01*
Y311937D01*
X568630D01*
X578630D02*
Y315937D01*
X582630D01*
Y311937D01*
X578630D01*
X588630D02*
Y315937D01*
X592630D01*
Y311937D01*
X588630D01*
X588630Y174693D02*
Y178693D01*
X592630D01*
Y174693D01*
X588630D01*
X578630D02*
Y178693D01*
X582630D01*
Y174693D01*
X578630D01*
X568630D02*
Y178693D01*
X572630D01*
Y174693D01*
X568630D01*
X558630D02*
Y178693D01*
X562630D01*
Y174693D01*
X558630D01*
X548630D02*
Y178693D01*
X552630D01*
Y174693D01*
X548630D01*
X538630D02*
Y178693D01*
X542630D01*
Y174693D01*
X538630D01*
X543630Y164693D02*
Y168693D01*
X547630D01*
Y164693D01*
X543630D01*
X553630D02*
Y168693D01*
X557630D01*
Y164693D01*
X553630D01*
X563630D02*
Y168693D01*
X567630D01*
Y164693D01*
X563630D01*
X573630D02*
Y168693D01*
X577630D01*
Y164693D01*
X573630D01*
X583630D02*
Y168693D01*
X587630D01*
Y164693D01*
X583630D01*
X593630D02*
Y168693D01*
X597630D01*
Y164693D01*
X593630D01*
X451425Y357567D02*
Y361567D01*
X455425D01*
Y357567D01*
X451425D01*
X461425D02*
Y361567D01*
X465425D01*
Y357567D01*
X461425D01*
X471425D02*
Y361567D01*
X475425D01*
Y357567D01*
X471425D01*
X481425D02*
Y361567D01*
X485425D01*
Y357567D01*
X481425D01*
X491425D02*
Y361567D01*
X495425D01*
Y357567D01*
X491425D01*
X501425D02*
Y361567D01*
X505425D01*
Y357567D01*
X501425D01*
X496425Y367567D02*
Y371567D01*
X500425D01*
Y367567D01*
X496425D01*
X486425D02*
Y371567D01*
X490425D01*
Y367567D01*
X486425D01*
X476425D02*
Y371567D01*
X480425D01*
Y367567D01*
X476425D01*
X466425D02*
Y371567D01*
X470425D01*
Y367567D01*
X466425D01*
X456425D02*
Y371567D01*
X460425D01*
Y367567D01*
X456425D01*
X446425D02*
Y371567D01*
X450425D01*
Y367567D01*
X446425D01*
X656386Y362094D02*
Y366094D01*
X660386D01*
Y362094D01*
X656386D01*
X666386D02*
Y366094D01*
X670386D01*
Y362094D01*
X666386D01*
X676386D02*
Y366094D01*
X680386D01*
Y362094D01*
X676386D01*
X686386D02*
Y366094D01*
X690386D01*
Y362094D01*
X686386D01*
X696386D02*
Y366094D01*
X700386D01*
Y362094D01*
X696386D01*
X701386Y352095D02*
Y356095D01*
X705386D01*
Y352095D01*
X701386D01*
X691386D02*
Y356095D01*
X695386D01*
Y352095D01*
X691386D01*
X681386D02*
Y356095D01*
X685386D01*
Y352095D01*
X681386D01*
X671386D02*
Y356095D01*
X675386D01*
Y352095D01*
X671386D01*
X661386D02*
Y356095D01*
X665386D01*
Y352095D01*
X661386D01*
X656504Y223748D02*
Y227748D01*
X660504D01*
Y223748D01*
X656504D01*
X666504D02*
Y227748D01*
X670504D01*
Y223748D01*
X666504D01*
X676504D02*
Y227748D01*
X680504D01*
Y223748D01*
X676504D01*
X686504D02*
Y227748D01*
X690504D01*
Y223748D01*
X686504D01*
X696504D02*
Y227748D01*
X700504D01*
Y223748D01*
X696504D01*
X701504Y213748D02*
Y217748D01*
X705504D01*
Y213748D01*
X701504D01*
X691504D02*
Y217748D01*
X695504D01*
Y213748D01*
X691504D01*
X681504D02*
Y217748D01*
X685504D01*
Y213748D01*
X681504D01*
X671504D02*
Y217748D01*
X675504D01*
Y213748D01*
X671504D01*
X661504D02*
Y217748D01*
X665504D01*
Y213748D01*
X661504D01*
X656504Y86465D02*
Y90465D01*
X660504D01*
Y86465D01*
X656504D01*
X666504D02*
Y90465D01*
X670504D01*
Y86465D01*
X666504D01*
X676504D02*
Y90465D01*
X680504D01*
Y86465D01*
X676504D01*
X686504D02*
Y90465D01*
X690504D01*
Y86465D01*
X686504D01*
X696504D02*
Y90465D01*
X700504D01*
Y86465D01*
X696504D01*
X701504Y76465D02*
Y80465D01*
X705504D01*
Y76465D01*
X701504D01*
X691504D02*
Y80465D01*
X695504D01*
Y76465D01*
X691504D01*
X681504D02*
Y80465D01*
X685504D01*
Y76465D01*
X681504D01*
X671504D02*
Y80465D01*
X675504D01*
Y76465D01*
X671504D01*
X661504D02*
Y80465D01*
X665504D01*
Y76465D01*
X661504D01*
X383591Y170165D02*
Y174165D01*
X387591D01*
Y170165D01*
X383591D01*
X373590D02*
Y174165D01*
X377590D01*
Y170165D01*
X373590D01*
X363591D02*
Y174165D01*
X367590D01*
Y170165D01*
X363591D01*
X353590D02*
Y174165D01*
X357591D01*
Y170165D01*
X353590D01*
X343590D02*
Y174165D01*
X347590D01*
Y170165D01*
X343590D01*
X338591Y180165D02*
Y184165D01*
X342590D01*
Y180165D01*
X338591D01*
X348590D02*
Y184165D01*
X352590D01*
Y180165D01*
X348590D01*
X358591D02*
Y184165D01*
X362591D01*
Y180165D01*
X358591D01*
X368590D02*
Y184165D01*
X372590D01*
Y180165D01*
X368590D01*
X378590D02*
Y184165D01*
X382591D01*
Y180165D01*
X378590D01*
X398590Y258531D02*
Y262531D01*
X402591D01*
Y258531D01*
X398590D01*
X412370D02*
Y262531D01*
X416370D01*
Y258531D01*
X412370D01*
X398098Y353807D02*
Y357807D01*
X402098D01*
Y353807D01*
X398098D01*
X411878D02*
Y357807D01*
X415878D01*
Y353807D01*
X411878D01*
X593669Y446150D02*
Y450150D01*
X597669D01*
Y446150D01*
X593669D01*
X583669D02*
Y450150D01*
X587669D01*
Y446150D01*
X583669D01*
X573669D02*
Y450150D01*
X577669D01*
Y446150D01*
X573669D01*
X563669D02*
Y450150D01*
X567669D01*
Y446150D01*
X563669D01*
X553669D02*
Y450150D01*
X557669D01*
Y446150D01*
X553669D01*
X543669D02*
Y450150D01*
X547669D01*
Y446150D01*
X543669D01*
X538669Y456150D02*
Y460150D01*
X542669D01*
Y456150D01*
X538669D01*
X548669D02*
Y460150D01*
X552669D01*
Y456150D01*
X548669D01*
X558669D02*
Y460150D01*
X562669D01*
Y456150D01*
X558669D01*
X568669D02*
Y460150D01*
X572669D01*
Y456150D01*
X568669D01*
X578669D02*
Y460150D01*
X582669D01*
Y456150D01*
X578669D01*
X588669D02*
Y460150D01*
X592669D01*
Y456150D01*
X588669D01*
X694457Y449142D02*
Y453142D01*
X698457D01*
Y449142D01*
X694457D01*
Y439142D02*
Y443142D01*
X698457D01*
Y439142D01*
X694457D01*
X704457Y444142D02*
Y448142D01*
X708457D01*
Y444142D01*
X704457D01*
Y454142D02*
Y458142D01*
X708457D01*
Y454142D01*
X704457D01*
X477193Y455874D02*
Y459874D01*
X481193D01*
Y455874D01*
X477193D01*
X467193D02*
Y459874D01*
X471193D01*
Y455874D01*
X467193D01*
X472193Y445874D02*
Y449874D01*
X476193D01*
Y445874D01*
X472193D01*
X482193D02*
Y449874D01*
X486193D01*
Y445874D01*
X482193D01*
X383591Y445756D02*
Y449756D01*
X387591D01*
Y445756D01*
X383591D01*
X373591D02*
Y449756D01*
X377591D01*
Y445756D01*
X373591D01*
X363591D02*
Y449756D01*
X367591D01*
Y445756D01*
X363591D01*
X353591D02*
Y449756D01*
X357591D01*
Y445756D01*
X353591D01*
X343591D02*
Y449756D01*
X347591D01*
Y445756D01*
X343591D01*
X338591Y455756D02*
Y459756D01*
X342591D01*
Y455756D01*
X338591D01*
X348591D02*
Y459756D01*
X352591D01*
Y455756D01*
X348591D01*
X358591D02*
Y459756D01*
X362591D01*
Y455756D01*
X358591D01*
X368591D02*
Y459756D01*
X372591D01*
Y455756D01*
X368591D01*
X378591D02*
Y459756D01*
X382591D01*
Y455756D01*
X378591D01*
X346976Y86779D02*
Y90780D01*
X350976D01*
Y86779D01*
X346976D01*
X336976D02*
Y90780D01*
X340976D01*
Y86779D01*
X336976D01*
X341976Y76780D02*
Y80779D01*
X345976D01*
Y76780D01*
X341976D01*
X351976D02*
Y80779D01*
X355976D01*
Y76780D01*
X351976D01*
X402264Y87862D02*
X400264Y91862D01*
X404264D01*
X402264Y87862D01*
X419587D02*
X417587Y91862D01*
X421587D01*
X419587Y87862D01*
X616417Y84535D02*
X617417Y85535D01*
X618417D01*
X617417Y86535D01*
X618417Y87535D01*
X617417D01*
X616417Y88535D01*
X615417Y87535D01*
X614417D01*
X615417Y86535D01*
X614417Y85535D01*
X615417D01*
X616417Y84535D01*
X606417D02*
X607417Y85535D01*
X608417D01*
X607417Y86535D01*
X608417Y87535D01*
X607417D01*
X606417Y88535D01*
X605417Y87535D01*
X604417D01*
X605417Y86535D01*
X604417Y85535D01*
X605417D01*
X606417Y84535D01*
X596417D02*
X597417Y85535D01*
X598417D01*
X597417Y86535D01*
X598417Y87535D01*
X597417D01*
X596417Y88535D01*
X595417Y87535D01*
X594417D01*
X595417Y86535D01*
X594417Y85535D01*
X595417D01*
X596417Y84535D01*
X586417D02*
X587417Y85535D01*
X588417D01*
X587417Y86535D01*
X588417Y87535D01*
X587417D01*
X586417Y88535D01*
X585417Y87535D01*
X584417D01*
X585417Y86535D01*
X584417Y85535D01*
X585417D01*
X586417Y84535D01*
X576417D02*
X577417Y85535D01*
X578417D01*
X577417Y86535D01*
X578417Y87535D01*
X577417D01*
X576417Y88535D01*
X575417Y87535D01*
X574417D01*
X575417Y86535D01*
X574417Y85535D01*
X575417D01*
X576417Y84535D01*
X566417D02*
X567417Y85535D01*
X568417D01*
X567417Y86535D01*
X568417Y87535D01*
X567417D01*
X566417Y88535D01*
X565417Y87535D01*
X564417D01*
X565417Y86535D01*
X564417Y85535D01*
X565417D01*
X566417Y84535D01*
X697213Y165284D02*
Y169283D01*
X701213D01*
Y165284D01*
X697213D01*
Y155283D02*
Y159283D01*
X701213D01*
Y155283D01*
X697213D01*
X707213Y160284D02*
Y164284D01*
X711213D01*
Y160284D01*
X707213D01*
Y170283D02*
Y174284D01*
X711213D01*
Y170283D01*
X707213D01*
X516037Y156571D02*
X517037Y158571D01*
X516037Y160571D01*
X518037Y159571D01*
X520037Y160571D01*
X519037Y158571D01*
X520037Y156571D01*
X518037Y157571D01*
X516037Y156571D01*
X520933Y156014D02*
X521933Y158014D01*
X520933Y160014D01*
X522933Y159014D01*
X524933Y160014D01*
X523933Y158014D01*
X524933Y156014D01*
X522933Y157014D01*
X520933Y156014D01*
X538748Y217390D02*
X539748Y219390D01*
X538748Y221390D01*
X540748Y220390D01*
X542748Y221390D01*
X541748Y219390D01*
X542748Y217390D01*
X540748Y218390D01*
X538748Y217390D01*
X517095Y277232D02*
X518094Y279232D01*
X517095Y281232D01*
X519095Y280232D01*
X521095Y281232D01*
X520094Y279232D01*
X521095Y277232D01*
X519095Y278232D01*
X517095Y277232D01*
X429123Y175076D02*
X430123Y177076D01*
X429123Y179076D01*
X431123Y178076D01*
X433123Y179076D01*
X432123Y177076D01*
X433123Y175076D01*
X431123Y176076D01*
X429123Y175076D01*
X367108Y310697D02*
X368108Y312697D01*
X367108Y314697D01*
X369108Y313697D01*
X371108Y314697D01*
X370108Y312697D01*
X371108Y310697D01*
X369108Y311697D01*
X367108Y310697D01*
X477331Y171721D02*
X478331Y173721D01*
X477331Y175721D01*
X479331Y174721D01*
X481331Y175721D01*
X480331Y173721D01*
X481331Y171721D01*
X479331Y172721D01*
X477331Y171721D01*
X481291Y167095D02*
X482291Y169095D01*
X481291Y171095D01*
X483291Y170095D01*
X485291Y171095D01*
X484291Y169095D01*
X485291Y167095D01*
X483291Y168095D01*
X481291Y167095D01*
X462370Y178748D02*
X463370Y180748D01*
X462370Y182748D01*
X464370Y181748D01*
X466370Y182748D01*
X465370Y180748D01*
X466370Y178748D01*
X464370Y179748D01*
X462370Y178748D01*
X498295Y164831D02*
X499295Y166831D01*
X498295Y168831D01*
X500295Y167831D01*
X502295Y168831D01*
X501295Y166831D01*
X502295Y164831D01*
X500295Y165831D01*
X498295Y164831D01*
X425027Y192882D02*
X426027Y194882D01*
X425027Y196882D01*
X427027Y195882D01*
X429027Y196882D01*
X428027Y194882D01*
X429027Y192882D01*
X427027Y193882D01*
X425027Y192882D01*
X424673Y155677D02*
X425673Y157677D01*
X424673Y159677D01*
X426673Y158677D01*
X428673Y159677D01*
X427673Y157677D01*
X428673Y155677D01*
X426673Y156677D01*
X424673Y155677D01*
X492193Y184909D02*
X493193Y186909D01*
X492193Y188909D01*
X494193Y187909D01*
X496193Y188909D01*
X495193Y186909D01*
X496193Y184909D01*
X494193Y185909D01*
X492193Y184909D01*
X501051Y174870D02*
X502051Y176870D01*
X501051Y178870D01*
X503051Y177870D01*
X505051Y178870D01*
X504051Y176870D01*
X505051Y174870D01*
X503051Y175870D01*
X501051Y174870D01*
X392094Y273098D02*
X393094Y275098D01*
X392094Y277098D01*
X394094Y276098D01*
X396094Y277098D01*
X395094Y275098D01*
X396094Y273098D01*
X394094Y274098D01*
X392094Y273098D01*
X431112Y269358D02*
X432112Y271358D01*
X431112Y273358D01*
X433112Y272358D01*
X435112Y273358D01*
X434112Y271358D01*
X435112Y269358D01*
X433112Y270358D01*
X431112Y269358D01*
X469161Y156366D02*
X470161Y158366D01*
X469161Y160366D01*
X471161Y159366D01*
X473161Y160366D01*
X472161Y158366D01*
X473161Y156366D01*
X471161Y157366D01*
X469161Y156366D01*
X486681Y167587D02*
X487681Y169587D01*
X486681Y171587D01*
X488681Y170587D01*
X490681Y171587D01*
X489681Y169587D01*
X490681Y167587D01*
X488681Y168587D01*
X486681Y167587D01*
X506167Y160690D02*
X507166Y162690D01*
X506167Y164690D01*
X508167Y163690D01*
X510167Y164690D01*
X509166Y162690D01*
X510167Y160690D01*
X508167Y161690D01*
X506167Y160690D01*
X434319Y156465D02*
X435319Y158465D01*
X434319Y160465D01*
X436319Y159465D01*
X438319Y160465D01*
X437319Y158465D01*
X438319Y156465D01*
X436319Y157465D01*
X434319Y156465D01*
X404772Y216012D02*
X405772Y218012D01*
X404772Y220012D01*
X406772Y219012D01*
X408772Y220012D01*
X407772Y218012D01*
X408772Y216012D01*
X406772Y217012D01*
X404772Y216012D01*
X417607Y220747D02*
X418607Y222747D01*
X417607Y224747D01*
X419607Y223747D01*
X421607Y224747D01*
X420607Y222747D01*
X421607Y220747D01*
X419607Y221747D01*
X417607Y220747D01*
X412307Y232945D02*
X413307Y234945D01*
X412307Y236945D01*
X414307Y235945D01*
X416307Y236945D01*
X415307Y234945D01*
X416307Y232945D01*
X414307Y233945D01*
X412307Y232945D01*
X416001Y248763D02*
Y247763D01*
X418001D01*
Y248763D01*
X419001D01*
Y250763D01*
X418001D01*
Y251763D01*
X416001D01*
Y250763D01*
X415001D01*
Y248763D01*
X416001D01*
X577528Y248689D02*
X578528Y250689D01*
X577528Y252689D01*
X579528Y251689D01*
X581528Y252689D01*
X580528Y250689D01*
X581528Y248689D01*
X579528Y249689D01*
X577528Y248689D01*
X576150Y352232D02*
X577150Y354232D01*
X576150Y356232D01*
X578150Y355232D01*
X580150Y356232D01*
X579150Y354232D01*
X580150Y352232D01*
X578150Y353232D01*
X576150Y352232D01*
X482252Y324575D02*
X483252Y326575D01*
X482252Y328575D01*
X484252Y327575D01*
X486252Y328575D01*
X485252Y326575D01*
X486252Y324575D01*
X484252Y325575D01*
X482252Y324575D01*
X515224Y441898D02*
X516224Y443898D01*
X515224Y445898D01*
X517224Y444898D01*
X519224Y445898D01*
X518224Y443898D01*
X519224Y441898D01*
X517224Y442898D01*
X515224Y441898D01*
X344063Y138157D02*
X345063Y140157D01*
X344063Y142157D01*
X346063Y141157D01*
X348063Y142157D01*
X347063Y140157D01*
X348063Y138157D01*
X346063Y139157D01*
X344063Y138157D01*
X371425Y102528D02*
X372425Y104528D01*
X371425Y106528D01*
X373425Y105528D01*
X375425Y106528D01*
X374425Y104528D01*
X375425Y102528D01*
X373425Y103528D01*
X371425Y102528D01*
X668374Y136484D02*
X669374Y138484D01*
X668374Y140484D01*
X670374Y139484D01*
X672374Y140484D01*
X671374Y138484D01*
X672374Y136484D01*
X670374Y137484D01*
X668374Y136484D01*
X662173Y247311D02*
X663173Y249311D01*
X662173Y251311D01*
X664173Y250311D01*
X666173Y251311D01*
X665173Y249311D01*
X666173Y247311D01*
X664173Y248311D01*
X662173Y247311D01*
X700264Y400461D02*
X701264Y402461D01*
X700264Y404461D01*
X702264Y403461D01*
X704264Y404461D01*
X703264Y402461D01*
X704264Y400461D01*
X702264Y401461D01*
X700264Y400461D01*
X334024Y407449D02*
X335024Y409449D01*
X334024Y411449D01*
X336024Y410449D01*
X338024Y411449D01*
X337024Y409449D01*
X338024Y407449D01*
X336024Y408449D01*
X334024Y407449D01*
X506937Y89181D02*
X507937D01*
X508937Y90181D01*
X509937Y89181D01*
X510937D01*
Y90181D01*
X509937Y91181D01*
X510937Y92181D01*
Y93181D01*
X509937D01*
X508937Y92181D01*
X507937Y93181D01*
X506937D01*
Y92181D01*
X507937Y91181D01*
X506937Y90181D01*
Y89181D01*
X533118Y304850D02*
X534118D01*
X535118Y305850D01*
X536118Y304850D01*
X537118D01*
Y305850D01*
X536118Y306850D01*
X537118Y307850D01*
Y308850D01*
X536118D01*
X535118Y307850D01*
X534118Y308850D01*
X533118D01*
Y307850D01*
X534118Y306850D01*
X533118Y305850D01*
Y304850D01*
X533118Y167606D02*
X534118D01*
X535118Y168606D01*
X536118Y167606D01*
X537118D01*
Y168606D01*
X536118Y169606D01*
X537118Y170606D01*
Y171606D01*
X536118D01*
X535118Y170606D01*
X534118Y171606D01*
X533118D01*
Y170606D01*
X534118Y169606D01*
X533118Y168606D01*
Y167606D01*
X506937Y364654D02*
X507937D01*
X508937Y365654D01*
X509937Y364654D01*
X510937D01*
Y365654D01*
X509937Y366654D01*
X510937Y367654D01*
Y368654D01*
X509937D01*
X508937Y367654D01*
X507937Y368654D01*
X506937D01*
Y367654D01*
X507937Y366654D01*
X506937Y365654D01*
Y364654D01*
X706898Y359142D02*
X707898D01*
X708898Y360142D01*
X709898Y359142D01*
X710898D01*
Y360142D01*
X709898Y361142D01*
X710898Y362142D01*
Y363142D01*
X709898D01*
X708898Y362142D01*
X707898Y363142D01*
X706898D01*
Y362142D01*
X707898Y361142D01*
X706898Y360142D01*
Y359142D01*
X707016Y220795D02*
X708016D01*
X709016Y221795D01*
X710016Y220795D01*
X711016D01*
Y221795D01*
X710016Y222795D01*
X711016Y223795D01*
Y224795D01*
X710016D01*
X709016Y223795D01*
X708016Y224795D01*
X707016D01*
Y223795D01*
X708016Y222795D01*
X707016Y221795D01*
Y220795D01*
Y83512D02*
X708016D01*
X709016Y84512D01*
X710016Y83512D01*
X711016D01*
Y84512D01*
X710016Y85512D01*
X711016Y86512D01*
Y87512D01*
X710016D01*
X709016Y86512D01*
X708016Y87512D01*
X707016D01*
Y86512D01*
X708016Y85512D01*
X707016Y84512D01*
Y83512D01*
X333079Y173118D02*
X334079D01*
X335079Y174118D01*
X336079Y173118D01*
X337079D01*
Y174118D01*
X336079Y175118D01*
X337079Y176118D01*
Y177118D01*
X336079D01*
X335079Y176118D01*
X334079Y177118D01*
X333079D01*
Y176118D01*
X334079Y175118D01*
X333079Y174118D01*
Y173118D01*
X527823Y194653D02*
X528823Y196653D01*
X527823Y198653D01*
X529823Y197653D01*
X531823Y198653D01*
X530823Y196653D01*
X531823Y194653D01*
X529823Y195653D01*
X527823Y194653D01*
X518695Y232263D02*
X519695Y234263D01*
X518695Y236263D01*
X520695Y235263D01*
X522695Y236263D01*
X521695Y234263D01*
X522695Y232263D01*
X520695Y233263D01*
X518695Y232263D01*
X370933Y256465D02*
X371933Y258465D01*
X370933Y260465D01*
X372933Y259465D01*
X374933Y260465D01*
X373933Y258465D01*
X374933Y256465D01*
X372933Y257465D01*
X370933Y256465D01*
X417390Y186976D02*
X418390Y188976D01*
X417390Y190976D01*
X419390Y189976D01*
X421390Y190976D01*
X420390Y188976D01*
X421390Y186976D01*
X419390Y187976D01*
X417390Y186976D01*
X474083Y185500D02*
X475083Y187500D01*
X474083Y189500D01*
X476083Y188500D01*
X478083Y189500D01*
X477083Y187500D01*
X478083Y185500D01*
X476083Y186500D01*
X474083Y185500D01*
X599279Y228413D02*
X600280Y230413D01*
X599279Y232413D01*
X601279Y231413D01*
X603279Y232413D01*
X602280Y230413D01*
X603279Y228413D01*
X601279Y229413D01*
X599279Y228413D01*
X603315Y216012D02*
X604315Y218012D01*
X603315Y220012D01*
X605315Y219012D01*
X607315Y220012D01*
X606315Y218012D01*
X607315Y216012D01*
X605315Y217012D01*
X603315Y216012D01*
Y205480D02*
X604315Y207480D01*
X603315Y209480D01*
X605315Y208480D01*
X607315Y209480D01*
X606315Y207480D01*
X607315Y205480D01*
X605315Y206480D01*
X603315Y205480D01*
X554693Y230972D02*
X555693Y232972D01*
X554693Y234972D01*
X556693Y233972D01*
X558693Y234972D01*
X557693Y232972D01*
X558693Y230972D01*
X556693Y231972D01*
X554693Y230972D01*
X555382Y224480D02*
X556382Y226480D01*
X555382Y228480D01*
X557382Y227480D01*
X559382Y228480D01*
X558382Y226480D01*
X559382Y224480D01*
X557382Y225480D01*
X555382Y224480D01*
X518990Y237087D02*
X519990Y239087D01*
X518990Y241087D01*
X520990Y240087D01*
X522990Y241087D01*
X521990Y239087D01*
X522990Y237087D01*
X520990Y238087D01*
X518990Y237087D01*
X514240Y234910D02*
X515240Y236910D01*
X514240Y238910D01*
X516240Y237910D01*
X518240Y238910D01*
X517240Y236910D01*
X518240Y234910D01*
X516240Y235910D01*
X514240Y234910D01*
X518669Y245638D02*
X519669Y247638D01*
X518669Y249638D01*
X520669Y248638D01*
X522669Y249638D01*
X521669Y247638D01*
X522669Y245638D01*
X520669Y246638D01*
X518669Y245638D01*
X552035Y386779D02*
X553035Y388779D01*
X552035Y390779D01*
X554035Y389779D01*
X556035Y390779D01*
X555035Y388779D01*
X556035Y386779D01*
X554035Y387779D01*
X552035Y386779D01*
X522409Y313354D02*
X523410Y315354D01*
X522409Y317354D01*
X524409Y316354D01*
X526409Y317354D01*
X525410Y315354D01*
X526409Y313354D01*
X524409Y314354D01*
X522409Y313354D01*
X513256Y308827D02*
X514256Y310827D01*
X513256Y312827D01*
X515256Y311827D01*
X517256Y312827D01*
X516256Y310827D01*
X517256Y308827D01*
X515256Y309827D01*
X513256Y308827D01*
X476642D02*
X477642Y310827D01*
X476642Y312827D01*
X478642Y311827D01*
X480642Y312827D01*
X479642Y310827D01*
X480642Y308827D01*
X478642Y309827D01*
X476642Y308827D01*
X467390D02*
X468390Y310827D01*
X467390Y312827D01*
X469390Y311827D01*
X471390Y312827D01*
X470390Y310827D01*
X471390Y308827D01*
X469390Y309827D01*
X467390Y308827D01*
X503315Y294260D02*
X504315Y296260D01*
X503315Y298260D01*
X505315Y297260D01*
X507315Y298260D01*
X506315Y296260D01*
X507315Y294260D01*
X505315Y295260D01*
X503315Y294260D01*
X427528Y386779D02*
X428528Y388779D01*
X427528Y390779D01*
X429528Y389779D01*
X431528Y390779D01*
X430528Y388779D01*
X431528Y386779D01*
X429528Y387779D01*
X427528Y386779D01*
X404102Y317291D02*
X405102Y319291D01*
X404102Y321291D01*
X406102Y320291D01*
X408102Y321291D01*
X407102Y319291D01*
X408102Y317291D01*
X406102Y318291D01*
X404102Y317291D01*
X462862Y303217D02*
X463862Y305217D01*
X462862Y307217D01*
X464862Y306217D01*
X466862Y307217D01*
X465862Y305217D01*
X466862Y303217D01*
X464862Y304217D01*
X462862Y303217D01*
X465126Y284910D02*
X466126Y286910D01*
X465126Y288910D01*
X467126Y287910D01*
X469126Y288910D01*
X468126Y286910D01*
X469126Y284910D01*
X467126Y285910D01*
X465126Y284910D01*
X449476Y286386D02*
X450476Y288386D01*
X449476Y290386D01*
X451476Y289386D01*
X453476Y290386D01*
X452476Y288386D01*
X453476Y286386D01*
X451476Y287386D01*
X449476Y286386D01*
X404201Y324476D02*
X405201Y326476D01*
X404201Y328476D01*
X406201Y327476D01*
X408201Y328476D01*
X407201Y326476D01*
X408201Y324476D01*
X406201Y325476D01*
X404201Y324476D01*
Y330776D02*
X405201Y332776D01*
X404201Y334776D01*
X406201Y333776D01*
X408201Y334776D01*
X407201Y332776D01*
X408201Y330776D01*
X406201Y331776D01*
X404201Y330776D01*
X404299Y338748D02*
X405299Y340748D01*
X404299Y342748D01*
X406299Y341748D01*
X408299Y342748D01*
X407299Y340748D01*
X408299Y338748D01*
X406299Y339748D01*
X404299Y338748D01*
X397016Y317193D02*
X398016Y319193D01*
X397016Y321193D01*
X399016Y320193D01*
X401016Y321193D01*
X400016Y319193D01*
X401016Y317193D01*
X399016Y318193D01*
X397016Y317193D01*
Y324476D02*
X398016Y326476D01*
X397016Y328476D01*
X399016Y327476D01*
X401016Y328476D01*
X400016Y326476D01*
X401016Y324476D01*
X399016Y325476D01*
X397016Y324476D01*
Y330874D02*
X398016Y332874D01*
X397016Y334874D01*
X399016Y333874D01*
X401016Y334874D01*
X400016Y332874D01*
X401016Y330874D01*
X399016Y331874D01*
X397016Y330874D01*
X396819Y338748D02*
X397819Y340748D01*
X396819Y342748D01*
X398819Y341748D01*
X400819Y342748D01*
X399819Y340748D01*
X400819Y338748D01*
X398819Y339748D01*
X396819Y338748D01*
X522567Y283394D02*
X523567Y285394D01*
X522567Y287394D01*
X524567Y286394D01*
X526567Y287394D01*
X525567Y285394D01*
X526567Y283394D01*
X524567Y284394D01*
X522567Y283394D01*
X512528Y283197D02*
X513528Y285197D01*
X512528Y287197D01*
X514528Y286197D01*
X516528Y287197D01*
X515528Y285197D01*
X516528Y283197D01*
X514528Y284197D01*
X512528Y283197D01*
X614339Y96976D02*
X615339Y98976D01*
X614339Y100976D01*
X616339Y99976D01*
X618339Y100976D01*
X617339Y98976D01*
X618339Y96976D01*
X616339Y97976D01*
X614339Y96976D01*
X349673Y252823D02*
X350673Y254823D01*
X349673Y256823D01*
X351673Y255823D01*
X353673Y256823D01*
X352673Y254823D01*
X353673Y252823D01*
X351673Y253823D01*
X349673Y252823D01*
X349378Y205677D02*
X350378Y207677D01*
X349378Y209677D01*
X351378Y208677D01*
X353378Y209677D01*
X352378Y207677D01*
X353378Y205677D01*
X351378Y206677D01*
X349378Y205677D01*
X559024Y155480D02*
X560024Y157480D01*
X559024Y159480D01*
X561024Y158480D01*
X563024Y159480D01*
X562024Y157480D01*
X563024Y155480D01*
X561024Y156480D01*
X559024Y155480D01*
X526346Y290421D02*
X527347Y292421D01*
X526346Y294421D01*
X528346Y293421D01*
X530346Y294421D01*
X529347Y292421D01*
X530346Y290421D01*
X528346Y291421D01*
X526346Y290421D01*
X412307Y208378D02*
X413307Y210378D01*
X412307Y212378D01*
X414307Y211378D01*
X416307Y212378D01*
X415307Y210378D01*
X416307Y208378D01*
X414307Y209378D01*
X412307Y208378D01*
X470835Y106366D02*
X471835Y108366D01*
X470835Y110366D01*
X472835Y109366D01*
X474835Y110366D01*
X473835Y108366D01*
X474835Y106366D01*
X472835Y107366D01*
X470835Y106366D01*
X537764Y230874D02*
X538764Y232874D01*
X537764Y234874D01*
X539764Y233874D01*
X541764Y234874D01*
X540764Y232874D01*
X541764Y230874D01*
X539764Y231874D01*
X537764Y230874D01*
X403610Y201642D02*
X404610Y203642D01*
X403610Y205642D01*
X405610Y204642D01*
X407610Y205642D01*
X406610Y203642D01*
X407610Y201642D01*
X405610Y202642D01*
X403610Y201642D01*
X533157Y449063D02*
X534157D01*
X535157Y450063D01*
X536157Y449063D01*
X537157D01*
Y450063D01*
X536157Y451063D01*
X537157Y452063D01*
Y453063D01*
X536157D01*
X535157Y452063D01*
X534157Y453063D01*
X533157D01*
Y452063D01*
X534157Y451063D01*
X533157Y450063D01*
Y449063D01*
X701543Y433630D02*
X702543D01*
X703543Y434630D01*
X704543Y433630D01*
X705543D01*
Y434630D01*
X704543Y435630D01*
X705543Y436630D01*
Y437630D01*
X704543D01*
X703543Y436630D01*
X702543Y437630D01*
X701543D01*
Y436630D01*
X702543Y435630D01*
X701543Y434630D01*
Y433630D01*
X461681Y448787D02*
X462681D01*
X463681Y449787D01*
X464681Y448787D01*
X465681D01*
Y449787D01*
X464681Y450787D01*
X465681Y451787D01*
Y452787D01*
X464681D01*
X463681Y451787D01*
X462681Y452787D01*
X461681D01*
Y451787D01*
X462681Y450787D01*
X461681Y449787D01*
Y448787D01*
X333079Y448709D02*
X334079D01*
X335079Y449709D01*
X336079Y448709D01*
X337079D01*
Y449709D01*
X336079Y450709D01*
X337079Y451709D01*
Y452709D01*
X336079D01*
X335079Y451709D01*
X334079Y452709D01*
X333079D01*
Y451709D01*
X334079Y450709D01*
X333079Y449709D01*
Y448709D01*
X524476Y170165D02*
X525476Y172165D01*
X524476Y174165D01*
X526476Y173165D01*
X528476Y174165D01*
X527476Y172165D01*
X528476Y170165D01*
X526476Y171165D01*
X524476Y170165D01*
X530776Y150953D02*
X531776Y152953D01*
X530776Y154953D01*
X532776Y153953D01*
X534776Y154953D01*
X533776Y152953D01*
X534776Y150953D01*
X532776Y151953D01*
X530776Y150953D01*
X438277Y173009D02*
X439277Y175008D01*
X438277Y177008D01*
X440277Y176008D01*
X442277Y177008D01*
X441277Y175008D01*
X442277Y173009D01*
X440277Y174009D01*
X438277Y173009D01*
X519949Y107843D02*
X520949Y109843D01*
X519949Y111843D01*
X521949Y110843D01*
X523949Y111843D01*
X522949Y109843D01*
X523949Y107843D01*
X521949Y108843D01*
X519949Y107843D01*
X531366Y104102D02*
X532366Y106102D01*
X531366Y108102D01*
X533366Y107102D01*
X535366Y108102D01*
X534366Y106102D01*
X535366Y104102D01*
X533366Y105102D01*
X531366Y104102D01*
X584319Y109221D02*
X585319Y111221D01*
X584319Y113221D01*
X586319Y112221D01*
X588319Y113221D01*
X587319Y111221D01*
X588319Y109221D01*
X586319Y110221D01*
X584319Y109221D01*
X538059Y148295D02*
X539059Y150295D01*
X538059Y152295D01*
X540059Y151295D01*
X542059Y152295D01*
X541059Y150295D01*
X542059Y148295D01*
X540059Y149295D01*
X538059Y148295D01*
X532350Y158630D02*
X533350Y160630D01*
X532350Y162630D01*
X534350Y161630D01*
X536350Y162630D01*
X535350Y160630D01*
X536350Y158630D01*
X534350Y159630D01*
X532350Y158630D01*
X469063Y150854D02*
X470063Y152854D01*
X469063Y154854D01*
X471063Y153854D01*
X473063Y154854D01*
X472063Y152854D01*
X473063Y150854D01*
X471063Y151854D01*
X469063Y150854D01*
X477134Y149870D02*
X478134Y151870D01*
X477134Y153870D01*
X479134Y152870D01*
X481134Y153870D01*
X480134Y151870D01*
X481134Y149870D01*
X479134Y150870D01*
X477134Y149870D01*
X382941Y131465D02*
X383941Y133465D01*
X382941Y135465D01*
X384941Y134465D01*
X386941Y135465D01*
X385941Y133465D01*
X386941Y131465D01*
X384941Y132465D01*
X382941Y131465D01*
X372920Y141905D02*
X373920Y143905D01*
X372920Y145905D01*
X374920Y144905D01*
X376920Y145905D01*
X375920Y143905D01*
X376920Y141905D01*
X374920Y142905D01*
X372920Y141905D01*
X361681Y146819D02*
X362681Y148819D01*
X361681Y150819D01*
X363681Y149819D01*
X365681Y150819D01*
X364681Y148819D01*
X365681Y146819D01*
X363681Y147819D01*
X361681Y146819D01*
X410402Y180945D02*
X411402Y182945D01*
X410402Y184945D01*
X412402Y183945D01*
X414402Y184945D01*
X413402Y182945D01*
X414402Y180945D01*
X412402Y181945D01*
X410402Y180945D01*
X401366Y188659D02*
X402366Y190659D01*
X401366Y192659D01*
X403366Y191659D01*
X405366Y192659D01*
X404366Y190659D01*
X405366Y188659D01*
X403366Y189659D01*
X401366Y188659D01*
X383353Y123695D02*
X384353Y125695D01*
X383353Y127695D01*
X385353Y126695D01*
X387353Y127695D01*
X386353Y125695D01*
X387353Y123695D01*
X385353Y124695D01*
X383353Y123695D01*
X368866Y146721D02*
X369866Y148721D01*
X368866Y150721D01*
X370866Y149721D01*
X372866Y150721D01*
X371866Y148721D01*
X372866Y146721D01*
X370866Y147721D01*
X368866Y146721D01*
X405697Y184623D02*
X406697Y186623D01*
X405697Y188623D01*
X407697Y187623D01*
X409697Y188623D01*
X408697Y186623D01*
X409697Y184623D01*
X407697Y185623D01*
X405697Y184623D01*
X379712Y118872D02*
X380712Y120872D01*
X379712Y122872D01*
X381712Y121872D01*
X383712Y122872D01*
X382712Y120872D01*
X383712Y118872D01*
X381712Y119872D01*
X379712Y118872D01*
X361502Y152732D02*
X362502Y154732D01*
X361502Y156732D01*
X363502Y155732D01*
X365502Y156732D01*
X364502Y154732D01*
X365502Y152732D01*
X363502Y153732D01*
X361502Y152732D01*
X391326Y225373D02*
X392326Y227373D01*
X391326Y229373D01*
X393326Y228373D01*
X395326Y229373D01*
X394326Y227373D01*
X395326Y225373D01*
X393326Y226373D01*
X391326Y225373D01*
X396248Y192694D02*
X397248Y194694D01*
X396248Y196695D01*
X398248Y195694D01*
X400248Y196695D01*
X399248Y194694D01*
X400248Y192694D01*
X398248Y193694D01*
X396248Y192694D01*
Y211593D02*
X397248Y213593D01*
X396248Y215593D01*
X398248Y214593D01*
X400248Y215593D01*
X399248Y213593D01*
X400248Y211593D01*
X398248Y212593D01*
X396248Y211593D01*
X391701Y220047D02*
X392701Y222047D01*
X391701Y224047D01*
X393701Y223047D01*
X395701Y224047D01*
X394701Y222047D01*
X395701Y220047D01*
X393701Y221047D01*
X391701Y220047D01*
X396149Y222519D02*
X397149Y224519D01*
X396149Y226519D01*
X398149Y225519D01*
X400149Y226519D01*
X399149Y224519D01*
X400149Y222519D01*
X398149Y223519D01*
X396149Y222519D01*
X416918Y93083D02*
X417918Y95083D01*
X416918Y97083D01*
X418918Y96083D01*
X420918Y97083D01*
X419918Y95083D01*
X420918Y93083D01*
X418918Y94083D01*
X416918Y93083D01*
X387173Y113157D02*
X388173Y115157D01*
X387173Y117157D01*
X389173Y116157D01*
X391173Y117157D01*
X390173Y115157D01*
X391173Y113157D01*
X389173Y114157D01*
X387173Y113157D01*
X387684Y127731D02*
X388684Y129731D01*
X387684Y131731D01*
X389684Y130731D01*
X391684Y131731D01*
X390684Y129731D01*
X391684Y127731D01*
X389684Y128731D01*
X387684Y127731D01*
X392980Y121327D02*
X393980Y123327D01*
X392980Y125327D01*
X394980Y124327D01*
X396980Y125327D01*
X395980Y123327D01*
X396980Y121327D01*
X394980Y122327D01*
X392980Y121327D01*
X423039Y170913D02*
X424039Y172913D01*
X423039Y174913D01*
X425039Y173913D01*
X427039Y174913D01*
X426039Y172913D01*
X427039Y170913D01*
X425039Y171913D01*
X423039Y170913D01*
X410444Y172606D02*
X411444Y174606D01*
X410444Y176606D01*
X412444Y175606D01*
X414444Y176606D01*
X413444Y174606D01*
X414444Y172606D01*
X412444Y173606D01*
X410444Y172606D01*
X416799Y166701D02*
X417799Y168701D01*
X416799Y170701D01*
X418799Y169701D01*
X420799Y170701D01*
X419799Y168701D01*
X420799Y166701D01*
X418799Y167701D01*
X416799Y166701D01*
X397606Y245835D02*
X398606Y247835D01*
X397606Y249835D01*
X399606Y248835D01*
X401606Y249835D01*
X400606Y247835D01*
X401606Y245835D01*
X399606Y246835D01*
X397606Y245835D01*
X420560Y162772D02*
X421560Y164772D01*
X420560Y166772D01*
X422560Y165772D01*
X424560Y166772D01*
X423560Y164772D01*
X424560Y162772D01*
X422560Y163772D01*
X420560Y162772D01*
X439043Y108925D02*
X440043Y110925D01*
X439043Y112925D01*
X441043Y111925D01*
X443043Y112925D01*
X442043Y110925D01*
X443043Y108925D01*
X441043Y109925D01*
X439043Y108925D01*
X427035Y149673D02*
X428035Y151673D01*
X427035Y153673D01*
X429035Y152673D01*
X431035Y153673D01*
X430035Y151673D01*
X431035Y149673D01*
X429035Y150673D01*
X427035Y149673D01*
X439240Y150854D02*
X440240Y152854D01*
X439240Y154854D01*
X441240Y153854D01*
X443240Y154854D01*
X442240Y152854D01*
X443240Y150854D01*
X441240Y151854D01*
X439240Y150854D01*
X530677Y284890D02*
X531677Y286890D01*
X530677Y288890D01*
X532677Y287890D01*
X534677Y288890D01*
X533677Y286890D01*
X534677Y284890D01*
X532677Y285890D01*
X530677Y284890D01*
X331465Y79693D02*
X332465D01*
X333465Y80693D01*
X334465Y79693D01*
X335465D01*
Y80693D01*
X334465Y81693D01*
X335465Y82693D01*
Y83693D01*
X334465D01*
X333465Y82693D01*
X332465Y83693D01*
X331465D01*
Y82693D01*
X332465Y81693D01*
X331465Y80693D01*
Y79693D01*
X704299Y149772D02*
X705299D01*
X706299Y150772D01*
X707299Y149772D01*
X708299D01*
Y150772D01*
X707299Y151772D01*
X708299Y152772D01*
Y153772D01*
X707299D01*
X706299Y152772D01*
X705299Y153772D01*
X704299D01*
Y152772D01*
X705299Y151772D01*
X704299Y150772D01*
Y149772D01*
D79*
X351410Y420866D02*
G03*
X351410Y420866I-2000J0D01*
G01*
X696685D02*
G03*
X696685Y420866I-2000J0D01*
G01*
Y115354D02*
G03*
X696685Y115354I-2000J0D01*
G01*
X351410D02*
G03*
X351410Y115354I-2000J0D01*
G01*
M02*
